<svg width="428" height="191" viewBox="0 0 428 191" fill="none" xmlns="http://www.w3.org/2000/svg">
<path d="M280.931 37.4489C298.766 58.0938 312.546 79.9374 313.881 103.071C315.17 126.205 303.973 150.675 286.139 167.034C268.351 183.394 243.881 191.644 222.914 188.186C201.992 184.684 184.481 169.476 162.268 153.117C140.101 136.758 113.189 119.246 114.019 102.61C114.802 85.9282 143.327 70.0754 165.54 49.3842C187.752 28.7392 203.604 3.30131 222.452 0.305916C241.3 -2.68948 263.144 16.8035 280.931 37.4489Z" fill="#638BF0"/>
<path opacity="0.2" d="M-5 103C84 150 112.6 -4.4 207 110C301.4 224.4 332 -21 440 40" stroke="white" stroke-width="2"/>
<path opacity="0.2" d="M440 38.9999C334 21.9999 389.2 215.8 242 151C58 69.9999 178 6.99998 -4 38.9999" stroke="white" stroke-width="2"/>
<path fill-rule="evenodd" clip-rule="evenodd" d="M255.521 163.129L264.735 173.72L281.65 156.778L266.402 160.017L262.915 156.299" fill="#664500"/>
<path fill-rule="evenodd" clip-rule="evenodd" d="M208.934 168.4L207.84 177.628L205.749 182.98L227.465 189.858L217.162 178.513L219.666 171.183" fill="#664500"/>
<path fill-rule="evenodd" clip-rule="evenodd" d="M206.658 79.8809H215.763L214.093 92.4242H208.108L206.658 79.8809Z" fill="#D7E0FF"/>
<path fill-rule="evenodd" clip-rule="evenodd" d="M205.431 78.1424H216.989C217.259 78.1424 217.478 78.3021 217.478 78.4983V79.4974C217.478 79.694 217.259 79.8533 216.989 79.8533H205.431C205.161 79.8533 204.941 79.694 204.941 79.4974V78.4983C204.941 78.3021 205.161 78.1424 205.431 78.1424Z" fill="#B2C3FB"/>
<path fill-rule="evenodd" clip-rule="evenodd" d="M206.731 76.7494H215.691C215.961 76.7494 216.181 76.9087 216.181 77.1053V77.7803C216.181 77.9769 215.961 78.1362 215.691 78.1362H206.731C206.461 78.1362 206.242 77.9769 206.242 77.7803V77.1039C206.242 76.9087 206.461 76.7494 206.731 76.7494Z" fill="#D7E0FF"/>
<path d="M207.576 67.2819C206.843 68.5742 207.754 70.0343 208.428 71.2259C209.102 72.4176 209.081 74.1794 208.289 75.1195" stroke="#1B3C87" stroke-linecap="round" stroke-linejoin="round"/>
<path d="M210.483 67.2819C209.751 68.5742 210.662 70.0343 211.335 71.2259C212.009 72.4176 211.99 74.1794 211.196 75.1195" stroke="#1B3C87" stroke-linecap="round" stroke-linejoin="round"/>
<path d="M213.392 67.2819C212.659 68.5742 213.57 70.0343 214.244 71.2259C214.917 72.4176 214.897 74.1794 214.105 75.1195" stroke="#1B3C87" stroke-linecap="round" stroke-linejoin="round"/>
<path fill-rule="evenodd" clip-rule="evenodd" d="M153.721 130.789H201.649C201.706 130.789 201.763 130.802 201.816 130.827C201.869 130.852 201.918 130.889 201.958 130.935C201.999 130.981 202.031 131.036 202.053 131.096C202.075 131.157 202.087 131.221 202.087 131.286V189.554C202.087 189.619 202.075 189.684 202.053 189.744C202.031 189.805 201.999 189.86 201.958 189.906C201.918 189.952 201.869 189.989 201.816 190.014C201.763 190.039 201.706 190.052 201.649 190.052H153.721C153.604 190.052 153.493 189.999 153.411 189.906C153.328 189.813 153.282 189.686 153.282 189.554V131.286C153.282 131.155 153.328 131.028 153.411 130.935C153.493 130.841 153.604 130.789 153.721 130.789V130.789Z" fill="#D7E0FF"/>
<path fill-rule="evenodd" clip-rule="evenodd" d="M229.19 146.013C232.056 147.836 253.571 163.348 254.812 164.342C256.394 162.997 260.867 158.824 262.22 157.37C260.978 155.693 236.127 127.447 234.714 126.657C233.302 125.867 226.323 144.189 229.19 146.013Z" fill="#3C3744"/>
<path fill-rule="evenodd" clip-rule="evenodd" d="M167.769 115.446C163.406 139.895 207.015 139.484 212.859 139.206C212.72 142.476 208.981 165.789 209.059 168.7C211.626 169.258 217.836 171.228 219.517 171.75C220.798 169.344 237.045 133.8 235.572 124.565C235.015 121.075 197.499 110.878 194.432 110.961C191.366 111.043 167.996 114.174 167.769 115.446Z" fill="#3C3744"/>
<path fill-rule="evenodd" clip-rule="evenodd" d="M198.188 42.3182C198.326 39.008 193.878 34.4041 187.582 34.4041C174.819 34.4041 172.345 47.5015 162.564 65.3083C159.848 70.2521 146 80.8355 146 93.7198C146 106.604 156.208 109.766 165.842 109.766C175.475 109.766 196.496 90.2105 196.496 84.6902C196.496 79.17 192.863 71.565 192.863 63.8061C192.863 56.0473 193.933 51.6697 193.933 49.6262C193.933 47.5828 198.123 48.3141 198.188 42.3182Z" fill="#FB5D64"/>
<path fill-rule="evenodd" clip-rule="evenodd" d="M193.038 67.729C197.52 66.6923 200.993 79.1053 200.398 81.4377C198.766 82.0335 196.796 82.1115 196.433 81.5413C196.071 80.9711 190.35 68.3516 193.038 67.729Z" fill="#46DBC9"/>
<path fill-rule="evenodd" clip-rule="evenodd" d="M185.335 63.6824C204.95 63.6824 198.501 107.103 195.223 110.65C191.945 114.196 168.784 118.442 166.741 116.508C164.699 114.574 166.688 63.6275 185.335 63.6824Z" fill="#46DBC9"/>
<path fill-rule="evenodd" clip-rule="evenodd" d="M173.309 88.2312C173.923 89.9494 180.053 106.397 182.922 107.567C188.653 109.901 207.707 92.347 209.771 91.4835C212.084 90.5507 211.789 91.4677 213.784 91.4677C215.779 91.4677 217.578 89.1478 217.578 87.5083C217.578 85.8688 215.603 83.3837 213.88 83.3837C212.156 83.3837 208.601 86.7528 207.269 87.3292C205.937 87.9056 190.598 95.4817 189.814 95.6908C189.37 93.7049 187.41 87.3552 186.312 84.8207C185.215 82.2861 172.694 86.5133 173.309 88.2312Z" fill="#ECB3AB"/>
<path fill-rule="evenodd" clip-rule="evenodd" d="M174.114 67.4727C180.738 64.6401 188.36 82.7183 187.111 85.5505C185.862 88.3828 173.865 91.3824 172.032 89.9659C170.199 88.5494 167.948 70.1094 174.114 67.4727Z" fill="#46DBC9"/>
<path fill-rule="evenodd" clip-rule="evenodd" d="M183.272 54.9593C183.51 56.7446 183.438 63.7186 182.843 66.0752C183.724 67.0035 187.914 68.0527 190.341 67.1463C190.199 65.5991 190.389 61.6953 190.723 60.3385C191.056 58.9817 183.034 53.1741 183.272 54.9593Z" fill="#ECB3AB"/>
<path fill-rule="evenodd" clip-rule="evenodd" d="M181.43 50.7923C180.702 44.6517 183.652 39.2809 188.019 38.796C192.386 38.3112 196.515 42.8976 197.243 49.0374C197.971 55.1772 195.022 60.5488 190.655 61.0333C186.288 61.5177 182.158 56.9328 181.43 50.7923Z" fill="#F2C3BD"/>
<path fill-rule="evenodd" clip-rule="evenodd" d="M196.612 45.4905C195.766 45.4905 193.554 44.7303 192.967 42.8469C192.327 44.6267 187.282 50.5186 184.138 51.5549C184.397 52.7473 184.622 57.0323 181.46 59.2783C178.298 61.5242 175.913 46.9938 177.417 44.4194C178.92 41.8449 185.313 36.8341 187.178 36.8513C189.044 36.8685 196.924 36.9033 196.612 45.4905Z" fill="#FB5D64"/>
<path fill-rule="evenodd" clip-rule="evenodd" d="M181.453 52.1845C181.453 51.7905 181.569 51.4053 181.788 51.0777C182.007 50.75 182.318 50.4946 182.682 50.3438C183.046 50.1929 183.447 50.1534 183.833 50.2303C184.22 50.3071 184.575 50.4968 184.853 50.7754C185.132 51.054 185.322 51.4089 185.399 51.7954C185.476 52.1818 185.436 52.5824 185.285 52.9465C185.135 53.3105 184.879 53.6217 184.552 53.8406C184.224 54.0595 183.839 54.1763 183.445 54.1763C183.183 54.1764 182.924 54.1249 182.682 54.0248C182.441 53.9248 182.221 53.778 182.036 53.5931C181.851 53.4081 181.704 53.1885 181.604 52.9469C181.504 52.7052 181.453 52.4461 181.453 52.1845Z" fill="#F2C3BD"/>
<path d="M192.692 51.1965C192.692 52.1743 193.298 53.5403 193.845 54.135" stroke="#1B3C87" stroke-linecap="round" stroke-linejoin="round"/>
<path fill-rule="evenodd" clip-rule="evenodd" d="M189.526 49.5248C189.526 48.9755 189.775 48.5273 190.082 48.5273C190.388 48.5273 190.636 48.974 190.636 49.5248C190.636 50.0756 190.388 50.522 190.082 50.522C189.775 50.522 189.526 50.0756 189.526 49.5248Z" fill="#1B3C87"/>
<path d="M188.735 54.9165C189.085 55.7906 189.765 56.2374 190.62 56.296" stroke="#1B3C87" stroke-linecap="round" stroke-linejoin="round"/>
</svg>
