<svg width="423" height="379" viewBox="0 0 423 379" fill="none" xmlns="http://www.w3.org/2000/svg">
<path d="M327.133 75.0682C357.167 109.837 380.375 146.624 382.623 185.584C384.795 224.544 365.937 265.754 335.902 293.305C305.945 320.857 264.735 334.751 229.424 328.928C194.189 323.03 164.698 297.419 127.289 269.867C89.9579 242.316 44.6349 212.825 46.0315 184.808C47.3509 156.713 95.391 130.015 132.799 95.1688C170.206 60.4002 196.904 17.5597 228.646 12.5151C260.388 7.4705 297.176 40.299 327.133 75.0682Z" fill="#638BF0"/>
<ellipse cx="361.5" cy="302.5" rx="28.5" ry="3.5" fill="#3968E2"/>
<path d="M373.53 269.896H349.344V302.09H373.53V269.896Z" fill="#D7E0FF"/>
<path d="M358.848 281.825H352.769V287.903H358.848V281.825Z" fill="#FB5D64"/>
<path d="M355.808 281.825V269.896V281.825Z" fill="#D7E0FF"/>
<path d="M355.808 281.825V269.896" stroke="#1B3C87" stroke-width="2.33" stroke-miterlimit="10"/>
<path d="M373.171 294.56C377.758 294.56 381.477 290.841 381.477 286.254C381.477 281.667 377.758 277.948 373.171 277.948C368.583 277.948 364.865 281.667 364.865 286.254C364.865 290.841 368.583 294.56 373.171 294.56Z" stroke="#D7E0FF" stroke-width="6.99" stroke-miterlimit="10"/>
<mask id="mask0_61_2" style="mask-type:alpha" maskUnits="userSpaceOnUse" x="46" y="12" width="337" height="319">
<path d="M327.133 75.0682C357.167 109.837 380.375 146.624 382.623 185.584C384.795 224.544 365.937 265.754 335.902 293.305C305.945 320.857 264.735 334.751 229.424 328.928C194.189 323.03 164.698 297.419 127.289 269.867C89.9579 242.316 44.6349 212.825 46.0315 184.808C47.3509 156.713 95.391 130.015 132.799 95.1688C170.206 60.4002 196.904 17.5597 228.646 12.5151C260.388 7.4705 297.176 40.299 327.133 75.0682Z" fill="#FFFCEE"/>
</mask>
<defs>
<clipPath id="clip0_61_2">
<rect width="71" height="88" fill="white" transform="translate(198 78)"/>
</clipPath>
<clipPath id="clip1_61_2">
<rect width="12" height="20" fill="white" transform="translate(241 106)"/>
</clipPath>
</defs>
<g mask="url(#mask0_61_2)">
<path d="M215 204C215 207.947 209.364 223.661 193.945 223.661C179.942 223.661 144.358 163.382 143.248 161.067C139.543 160.698 133.109 155.923 131.272 149.415C130.991 148.419 135.218 142.714 139.836 144.082C140.92 144.406 136.267 138.609 135.631 137.609C134.179 135.333 135.043 132.228 135.758 132.228C136.473 132.228 145.709 144.788 146.397 144.841C147.086 144.893 152.719 147.469 153 148C153.487 148.92 152.747 155.975 153.8 157.392C154.852 158.808 190.91 197.23 190.91 197.23C191.239 193.546 194.927 183.429 195.519 182.376C196.111 181.324 215 192.405 215 204Z" fill="#F0B69A"/>
<g clip-path="url(#clip0_61_2)">
<path d="M211.635 109.894C211.635 109.894 204.915 109.505 202.772 100.851C200.63 92.1967 209.492 81.4033 217.674 78.7779C225.855 76.1525 227.9 81.2088 233.257 81.7923C238.613 82.3757 252.93 80.8199 258.676 93.558C264.422 106.296 254.878 118.354 262.182 127.883C269.487 137.509 275.623 155.109 254.099 162.694C232.575 170.278 207.837 164.347 200.143 150.636C192.546 136.926 207.252 128.855 209.492 121.757C211.927 114.756 212.999 113.006 211.635 109.894Z" fill="#22272E"/>
</g>
<path d="M223 148.5C199.945 148.5 189 188.334 189 191.5C189 194.666 212.027 216.5 214.5 216.5C216.973 216.5 230.651 159.33 230.651 156.958C230.651 154.585 227.548 148.5 223 148.5Z" fill="#F3F0F0"/>
<path d="M235.759 144.393C291.915 140.696 284.039 260.609 279.724 265.332C275.408 270.055 226.782 284.273 220.958 281.225C217.981 279.667 215.276 251.648 209.5 218.5C207.788 208.678 208.014 196.257 205.5 187C203.5 170 204.5 146 235.755 144.398" fill="white"/>
<path d="M241.5 174L235.5 163.5L228.5 174L233.5 161.5L235.5 163.5L240 158.5L241.5 174Z" fill="#C4C4C4" fill-opacity="0.18"/>
<path d="M253 148C240 140.5 225 145.667 219 148.5L235.5 163.5L253 148Z" fill="#F0B69A"/>
<path d="M233.5 161.5L222.5 147L218.5 149L226.471 172.514C227.098 174.363 229.732 174.31 230.284 172.436L233.5 161.5Z" fill="#3C3744"/>
<path d="M237.5 161.5L249 146L253 148L244.541 172.572C243.907 174.414 241.281 174.355 240.731 172.485L237.5 161.5Z" fill="#3C3744"/>
<path d="M243.89 119.229C243.89 119.229 242.973 124.825 242.903 126.579C242.684 129.513 243.925 147.318 244.372 150.362C242.618 152.313 229.94 154.107 228.519 152.993C228.541 150.546 227.295 137.911 226.817 136.157C217.318 134.929 209.872 123.509 209.872 109.603C209.866 106.817 210.173 104.04 210.788 101.323C213.647 100.402 217.805 95.907 218.436 94.2625L217.779 92.6442C220.467 101.323 236.737 109.309 242.715 110.002L242.066 111.028C242.912 109.331 244.421 108.204 246.148 108.204C248.78 108.204 250.946 110.87 250.946 114.168C250.946 117.466 248.797 120.133 246.148 120.133C245.507 120.119 244.877 119.963 244.303 119.676C243.729 119.39 243.225 118.979 242.829 118.475" fill="#F0B69A"/>
<path d="M252.336 357.27H225.224C225.224 357.27 216 261.957 216 260C217.677 261.677 217.398 262.236 224.385 264.193C228.578 268.665 258.206 343.015 258.206 343.015L252.336 357.27Z" fill="#3C3744"/>
<path d="M283.275 259V356.27H248.336L220.352 263.128C230.168 264.87 267.343 266.267 283.275 259Z" fill="#474151"/>
<path d="M296.604 190.608C296.604 190.608 292.5 226.79 292.5 231C292.5 235.21 274.5 272 274.5 272L254.498 280.171L273.055 229.579L272.212 198.563L296.604 190.608Z" fill="#F0B69A"/>
<path d="M278 271L250.5 282" stroke="#322D3C" stroke-width="2" stroke-linecap="round"/>
<path d="M260.761 146.959C283.855 140.429 304.071 206.765 301.948 212.308C299.826 217.852 273.03 226.811 268.5 224.5C263.97 222.189 245.728 151.208 260.761 146.959Z" fill="#F3F0F0"/>
</g>
<circle cx="227" cy="110" r="2" fill="#823F1F"/>
<circle cx="213" cy="111" r="2" fill="#823F1F"/>
<path d="M220 116C220 117.167 220.5 118.5 221.5 119.5" stroke="#D38C6A" stroke-width="2" stroke-linecap="round" stroke-linejoin="round"/>
<circle cx="224.5" cy="127.5" r="3.5" fill="#CB5D2F"/>
<g >
<circle cx="235" cy="184" r="2" fill="#E8E3EF"/>
</g>
<g >
<circle cx="235" cy="204" r="2" fill="#E8E3EF"/>
</g>
<g >
<circle cx="237" cy="224" r="2" fill="#E8E3EF"/>
</g>
<g >
<circle cx="239" cy="244" r="2" fill="#E8E3EF"/>
</g>
<g clip-path="url(#clip1_61_2)">
<path d="M241 110.405C241 110.405 246.347 103.024 251.337 107.31C256.327 111.595 249.436 122.429 242.545 122.071" fill="#F0B69A"/>
<path d="M248.723 122.905C248.723 121.238 247.297 118.143 245.634 118.143C243.97 118.143 242.545 121.238 242.545 122.905C242.545 124.571 243.97 126 245.634 126C247.297 126 248.723 124.69 248.723 122.905Z" fill="#FFE779"/>
<path d="M249.554 112.31C249.079 112.071 248.723 111.714 248.366 111.595C248.01 111.357 247.653 111.476 247.535 111.595C247.416 111.595 247.416 111.714 247.297 111.833C247.178 111.952 247.059 112.071 247.059 112.19C246.941 112.429 246.941 112.667 246.822 113.024C246.703 113.738 246.822 114.69 246.584 115.762C246.465 116.357 246.109 116.952 245.515 117.31C244.921 117.667 244.327 117.429 243.851 117.31C244.327 117.071 244.683 116.833 244.802 116.476C244.921 116.238 244.921 115.881 244.921 115.524C244.921 114.81 244.683 113.857 244.802 112.786C244.802 112.19 245.04 111.595 245.515 111C245.752 110.762 245.99 110.524 246.228 110.286C246.584 110.167 246.941 109.929 247.297 109.929C248.129 109.929 248.723 110.405 248.96 110.881C249.436 111.357 249.554 111.833 249.554 112.31Z" fill="#22272E"/>
</g>
<path d="M211 104C211.606 103.245 213.455 102.189 216 104" stroke="#AE816B" stroke-width="2" stroke-linecap="round"/>
<path d="M224 104C224.606 103.245 226.455 102.189 229 104" stroke="#AE816B" stroke-width="2" stroke-linecap="round"/>
</svg>
