<svg width="345" height="444" viewBox="0 0 345 444" fill="none" xmlns="http://www.w3.org/2000/svg">
<defs>
<clipPath id="clip0_304_22">
<rect width="58.2844" height="69.7127" fill="white" transform="translate(167.716 75) rotate(16.4285)"/>
</clipPath>
</defs>
<path d="M281.132 188.068C311.167 222.837 334.375 259.624 336.623 298.584C338.795 337.544 319.937 378.754 289.902 406.305C259.945 433.857 218.735 447.75 183.424 441.928C148.189 436.03 118.698 410.418 81.2892 382.867C43.9579 355.316 -1.36509 325.825 0.0314962 297.808C1.35086 269.713 49.391 243.015 86.799 208.169C124.206 173.4 150.904 130.56 182.646 125.515C214.388 120.47 251.176 153.299 281.132 188.068Z" fill="#FFF9DE"/>
<mask id="mask0_304_22" style="mask-type:alpha" maskUnits="userSpaceOnUse" x="0" y="125" width="337" height="319">
<path d="M281.132 188.068C311.167 222.837 334.375 259.624 336.623 298.584C338.795 337.544 319.937 378.754 289.902 406.305C259.945 433.857 218.735 447.75 183.424 441.928C148.189 436.03 118.698 410.418 81.2892 382.867C43.9579 355.316 -1.36509 325.825 0.0314962 297.808C1.35086 269.713 49.391 243.015 86.799 208.169C124.206 173.4 150.904 130.56 182.646 125.515C214.388 120.47 251.176 153.299 281.132 188.068Z" fill="#638BF0"/>
</mask>
<g >
<path d="M207.386 379.521C207.386 379.521 231.714 387.969 239.727 386.905C239.727 386.905 240.264 382.799 233.21 378.974C226.155 375.149 220.084 362.385 216.256 363.349C212.428 364.313 207.366 367.771 207.366 367.771L207.386 379.521Z" fill="#FFE94D"/>
<path d="M242.05 341.746C242.05 341.746 267.462 337.57 274 332.812C274 332.812 272.515 328.947 264.492 328.947C256.469 328.947 245.05 320.625 242.145 323.3C239.24 325.976 236.436 331.432 236.436 331.432L242.05 341.746Z" fill="#FFE94D"/>
<path d="M207.406 379.541C200.482 379.321 193.975 379.024 187.859 378.663C95.0993 373.182 92.39 352.548 92.39 352.548C76.9619 305.261 138.95 258.301 138.95 258.301C138.95 258.301 176.56 253.016 175.07 275.13C173.574 297.24 121.54 340.687 121.54 340.687C138.865 342.308 167.032 352.056 186.343 359.399C198.661 364.087 207.381 367.796 207.381 367.796C207.381 367.796 209.021 370.602 208.78 373.759C208.52 377.177 207.406 379.541 207.406 379.541Z" fill="#E69B01"/>
<path d="M187.859 378.663C95.0993 373.182 92.39 352.548 92.39 352.548C76.9619 305.261 138.95 258.301 138.95 258.301C138.95 258.301 176.56 253.016 175.07 275.13C173.574 297.24 121.54 340.687 121.54 340.687C138.865 342.308 167.032 352.056 186.343 359.399C188.671 365.417 190.197 372.62 187.859 378.663Z" fill="#604226"/>
<path d="M242.145 341.726C242.115 341.736 242.085 341.741 242.055 341.746C162.205 363.319 134.033 363.003 125.915 361.382C122.318 360.659 119.784 355.404 119.784 355.404C104.366 308.112 170.113 254.812 170.113 254.812C170.113 254.812 198.44 253.527 206.342 266.457C207.797 268.836 208.56 271.692 208.329 275.13C207.371 289.375 185.822 309.899 170.604 322.708C162.562 329.479 156.285 334.092 155.753 334.483L155.723 334.503C182.284 318.105 236.436 331.432 236.436 331.432C236.436 331.432 239.577 333.645 240.575 335.492C242.145 338.388 242.145 341.726 242.145 341.726Z" fill="#775434"/>
</g>
<path d="M269.891 93.9146C268.897 97.3679 262.581 118.83 257.147 135.384C253.816 145.503 250.775 153.81 249.486 154.919C248.492 155.797 244.634 157.9 239.311 160.591C231.885 164.275 221.539 168.898 211.831 172.346C205.575 174.63 199.554 176.381 194.818 177.024C193.006 177.375 191.426 177.435 190.021 177.375C181.426 176.848 180.96 167.372 182.014 159.597C182.365 157.373 182.776 155.27 183.183 153.629C183.765 151.23 184.291 149.654 184.291 149.654C184.291 149.654 185.636 149.363 187.914 148.891C192.239 147.957 199.96 146.376 208.61 144.971C216.969 143.626 226.206 142.396 233.982 142.044C233.982 142.044 238.192 134.38 243.51 124.848C249.942 113.269 257.95 98.9389 261.753 92.6197C262.164 91.9772 262.395 91.2745 262.455 90.5718C264.573 92.2181 267.086 93.4479 269.891 93.9146Z" fill="#FFB27D"/>
<path d="M141.093 96.4895C140.39 98.0706 139.633 99.5914 138.93 101.112C138.93 101.112 140.626 105.032 142.904 110.764C142.964 110.94 143.019 111.171 143.14 111.347C143.551 112.28 143.897 113.279 144.309 114.328C146.647 120.411 149.336 127.84 151.323 134.802C151.383 135.038 151.498 135.268 151.559 135.504C152.843 140.122 153.897 144.569 154.248 148.138C154.484 150.065 154.484 151.707 154.308 153.107L133.376 168.14C133.376 168.14 133.261 167.728 133.025 166.91C131.269 161.062 123.613 135.208 121.214 117.254C120.572 112.928 120.276 109.123 120.452 106.081C120.452 106.081 118.756 97.8347 127.762 79.2383C132.383 69.7067 139.803 57.54 151.674 42.3316C151.674 42.3316 152.953 40.1683 154.127 38.005C155.939 39.8169 159.712 39.4907 161.643 40.8911C160.208 41.5285 158.402 45.0219 158.166 45.8401C155.944 54.3778 150.505 73.7974 143.376 91.0536C143.376 91.0536 143.376 91.1139 143.315 91.1691C143.255 91.405 143.14 91.6359 143.024 91.8718C142.964 92.0475 142.849 92.2231 142.788 92.459C142.377 93.5131 141.91 94.5671 141.444 95.6162C141.323 95.9023 141.208 96.1934 141.093 96.4895Z" fill="#FFB27D"/>
<path d="M193.729 154.969L164.097 166.709L160.951 153.574C160.64 149.603 161.046 145.197 161.709 141.141C162.797 134.445 164.578 128.728 164.94 127.614C164.98 127.484 165 127.418 165 127.418L165.762 127.398L168.221 127.333L184.878 126.906C184.216 129.386 183.87 131.695 183.784 133.833C183.162 148.128 193.729 154.969 193.729 154.969Z" fill="#FFB27D"/>
<path d="M148.217 147.019C148.217 147.019 108.4 169.058 138.95 258.296L202.609 261.769C202.609 261.769 175.411 223.914 181.918 210.899C188.421 197.889 201.43 157.072 201.43 157.072L148.217 147.019Z" fill="#E5B0B4"/>
<path d="M257.177 135.554C257.177 135.554 251.633 154.201 248.969 155.692C246.3 157.183 211.389 175.106 200.808 176.547C200.808 176.547 197.11 176.923 195.801 177.556C195.801 177.556 195.801 177.556 195.796 177.561C195.58 177.656 195.43 177.767 195.374 177.887C195.364 177.902 195.354 177.927 195.344 177.967C194.597 179.94 185.224 211.883 185.004 220.36C184.848 226.268 210.878 264.274 210.567 268.585C210.542 268.972 210.451 269.323 210.306 269.644C208.841 272.877 201.671 272.601 195.786 269.514C192.685 267.888 187.101 265.343 180.799 263.4C173.971 261.297 166.299 259.907 160.048 261.187C148.036 263.651 135.714 260.569 131.399 247.319C127.089 234.068 127.706 206.949 126.472 201.402C125.238 195.861 124.159 178.459 131.545 166.9H131.55C131.55 166.895 131.55 166.89 131.555 166.885C131.555 166.885 132.478 165.033 130.938 161.188C129.397 157.338 118.154 116.813 119.849 104.641C119.849 104.641 120.321 92.7953 127.762 79.2332C127.762 79.2332 132.358 80.2722 136.281 83.7757C140.21 87.2791 142.768 90.9231 143.39 91.0737C143.39 91.0737 139.256 100.324 139.487 101.092C139.718 101.865 153.731 141.618 154.504 143.927C154.504 143.927 160.018 143.445 161.212 144.644C161.212 144.644 160.74 156.048 186.614 146.597C186.614 146.597 188.21 146.336 188.285 147.676C188.285 147.676 221.65 142.346 233.26 141.512C233.26 141.512 233.882 141.442 237.469 134.731C241.734 126.751 243.49 124.858 243.49 124.858C243.49 124.858 254.021 124.863 257.177 135.554Z" fill="#F7E070"/>
<path d="M210.567 268.575C210.542 268.962 210.451 269.313 210.306 269.634C208.841 272.867 201.671 272.591 195.786 269.504C192.685 267.878 187.101 265.333 180.799 263.39C176.675 253.136 170.991 237.571 168.818 224.913C165.512 205.619 191.541 181.381 195.339 177.957C194.592 179.93 185.219 211.873 184.999 220.35C184.843 226.258 210.873 264.264 210.567 268.575Z" fill="#F1D758"/>
<path d="M184 130.5C184 130.5 169.907 140.895 161.704 141.146C162.792 134.45 164.573 128.733 164.935 127.619C165.211 127.534 165.487 127.458 165.758 127.403C166.335 127.283 166.912 127.233 167.478 127.268C167.724 127.283 167.97 127.308 168.216 127.333C175.105 128.131 184 130.5 184 130.5Z" fill="#ED975D"/>
<path d="M158.287 130.987C158.287 130.987 168.5 140 189.183 128.126C196.423 113.269 204.35 104.817 189.549 96.5297C174.748 88.2429 169.029 92.4691 165.406 96.8409C161.789 101.208 150 122.5 158.287 130.987Z" fill="#FFB27D"/>
<g clip-path="url(#clip0_304_22)">
<path d="M215.711 110.51C216.691 115.866 215.023 122.035 212.699 126.656C210.2 131.619 206.707 135.995 203.424 140.464C200.417 144.546 195.194 150.617 195.66 155.919C193.041 154.405 191.996 150.733 192 147.863C192.01 144.754 193.007 141.739 193.996 138.787C193.398 139.059 192.8 139.33 192.211 139.604C193.35 133.509 193.579 127.276 194.668 121.165C195.563 116.079 196.792 110.446 199.718 106.089C201.531 103.381 204.407 101.171 207.763 101.473C212.167 101.876 214.984 106.496 215.711 110.51Z" fill="#723A24"/>
<path d="M193.242 132.374C199.183 131.669 203.962 126.996 206.605 121.693C209.789 115.326 208.384 107.825 205.225 101.729C202.972 102.375 201.049 104.101 199.715 106.099C196.789 110.456 195.57 116.091 194.665 121.175C194.015 124.882 193.665 128.633 193.242 132.374Z" fill="#602517"/>
<path d="M189.933 118.513C190.773 119.034 191.889 119.276 192.124 120.382C192.267 121.069 191.945 121.76 191.63 122.388C190.964 123.731 190.285 125.081 189.619 126.425C189.456 126.759 188.199 129.85 187.984 129.884C193.409 128.951 198.471 126.283 201.833 121.803C208.53 112.859 208.428 99.6925 202.156 90.5708C199.185 86.2553 194.783 82.8389 189.709 81.4846C182.841 79.6562 175.731 79.0885 171.529 84.8816C169.307 87.95 172.345 92.9516 173.813 96.2125C175.598 100.157 177.755 103.937 180.235 107.464C182.151 110.191 184.273 112.771 186.574 115.186C187.547 116.205 188.536 117.392 189.621 118.29C189.715 118.373 189.823 118.448 189.933 118.513Z" fill="#723A24"/>
<path d="M190.819 118.949C191.927 117.463 194.098 116.324 195.926 116.24C199.257 116.076 199.866 119.575 198.476 121.982C196.663 125.128 192.589 128.654 188.793 126.847" fill="#FFB27D"/>
<path fill-rule="evenodd" clip-rule="evenodd" d="M193.331 119.338C194.056 118.708 195.043 118.226 196.043 118.717C196.52 118.95 196.751 119.457 196.785 119.928C196.821 120.407 196.664 120.948 196.247 121.316C196.083 121.46 195.833 121.445 195.688 121.28C195.543 121.116 195.559 120.866 195.723 120.721C195.919 120.548 196.016 120.269 195.995 119.986C195.974 119.696 195.84 119.5 195.694 119.429L195.693 119.429C195.137 119.155 194.504 119.369 193.851 119.936C193.346 120.374 192.904 120.966 192.604 121.48C192.881 121.657 193.049 121.945 193.109 122.249C193.196 122.691 193.069 123.202 192.733 123.556C192.13 124.192 191.117 124.376 190.357 124.215C190.143 124.169 190.006 123.959 190.051 123.745C190.097 123.531 190.307 123.394 190.521 123.44C191.082 123.559 191.79 123.399 192.158 123.011C192.308 122.853 192.372 122.607 192.331 122.402C192.295 122.22 192.192 122.111 192.003 122.095L191.434 122.045L191.68 121.529C191.994 120.874 192.593 119.978 193.331 119.338ZM195.868 119.073L195.868 119.073L195.868 119.073Z" fill="#22272E"/>
<path d="M158.5 108.5C158.5 106.5 159.129 105.358 159.5 103C159.911 100.435 160.479 99.0672 161.422 96.6373C162.436 94.0425 163.788 91.5803 165.449 89.3512C166.849 87.4599 167.933 85.7596 169.925 84.4249C170.568 84.0029 171.349 83.6219 172.041 83.9132C174.741 85.0807 172.022 92.2173 171.367 94.0335C170.004 97.8138 167.935 101.353 165.278 104.359C163.153 106.768 159.422 107.276 158.506 109.321C158.473 108.994 158.533 108.826 158.5 108.5Z" fill="#723A24"/>
</g>
<path d="M170 125C166.4 125 163.167 121.667 162 120C160.667 121.333 158.7 124.8 161.5 128C164.3 131.2 168.333 127.333 170 125Z" fill="#212F47"/>
<path fill-rule="evenodd" clip-rule="evenodd" d="M167.459 127.706C167.027 126.728 166.12 125.752 164.886 125.055C163.122 124.059 161.213 123.93 160.079 124.617C160.117 125.708 160.512 126.87 161.5 128C163.296 130.052 165.599 129.198 167.459 127.706Z" fill="#F15E6B"/>
<path d="M177 114C177 115.105 176.105 116 175 116C173.895 116 173 115.105 173 114C173 112.895 173.895 112 175 112C176.105 112 177 112.895 177 114Z" fill="#664500"/>
<path fill-rule="evenodd" clip-rule="evenodd" d="M169.437 115.257C169.571 115.499 169.484 115.803 169.243 115.937C168.515 116.341 167.587 117 167.087 117.664C166.835 117.997 166.744 118.262 166.757 118.454C166.767 118.609 166.852 118.828 167.257 119.071C167.494 119.213 167.571 119.52 167.429 119.757C167.287 119.994 166.979 120.071 166.743 119.929C166.148 119.572 165.796 119.095 165.759 118.518C165.724 117.977 165.977 117.474 166.288 117.061C166.913 116.233 167.985 115.492 168.757 115.063C168.999 114.929 169.303 115.016 169.437 115.257Z" fill="#C36F0B"/>
<path fill-rule="evenodd" clip-rule="evenodd" d="M176.5 108C176.5 107.724 176.724 107.5 177 107.5C177.514 107.5 178.294 107.609 178.989 107.951C179.695 108.298 180.369 108.918 180.496 109.938C180.53 110.212 180.336 110.462 180.062 110.496C179.788 110.53 179.538 110.336 179.504 110.062C179.431 109.482 179.063 109.102 178.548 108.849C178.023 108.591 177.403 108.5 177 108.5C176.724 108.5 176.5 108.276 176.5 108Z" fill="#C36F0B"/>
<path fill-rule="evenodd" clip-rule="evenodd" d="M166.5 104C166.5 103.724 166.724 103.5 167 103.5C167.514 103.5 168.294 103.609 168.989 103.951C169.695 104.298 170.369 104.918 170.496 105.938C170.53 106.212 170.336 106.462 170.062 106.496C169.788 106.53 169.538 106.336 169.504 106.062C169.431 105.482 169.063 105.102 168.548 104.849C168.023 104.591 167.403 104.5 167 104.5C166.724 104.5 166.5 104.276 166.5 104Z" fill="#C36F0B"/>
<path d="M168 110C168 111.105 167.105 112 166 112C164.895 112 164 111.105 164 110C164 108.895 164.895 108 166 108C167.105 108 168 108.895 168 110Z" fill="#664500"/>
<path d="M169.521 34.6627C169.019 34.7405 166.467 36.8224 166.566 36.6716C169.848 31.7004 171.44 27.2788 170.895 25.1677C170.666 24.3019 159.745 26.8556 157.951 31.2675C157.029 33.5342 153 40.2128 153 40.2128L159.167 43C159.167 43 161.615 41.8131 162.689 42.0807C163.763 42.3482 167.574 40.8403 168.763 39.2302C168.763 39.2302 171.385 34.3709 169.521 34.6627Z" fill="#FFB27D"/>
<path d="M271.935 70.0374C269.054 70.7262 262.3 80.6429 262.341 82.4308C262.346 82.6653 262.346 82.9144 262.346 83.1538C261.979 82.2696 261.577 81.3268 261.288 80.7992C260.219 78.8598 259 79.8368 259 79.8368C259.367 81.9081 259.33 86.8908 260.42 87.6676C261.51 88.4443 262.041 91.6342 262.041 91.6342L269.472 95C269.472 95 273.938 86.119 275.72 83.4811C279.19 78.3469 274.816 69.3486 271.935 70.0374Z" fill="#FFB27D"/>
<path d="M65.6157 159.057C64.6645 156.794 63.7885 149.862 69.3719 151.719C76.6096 154.125 75.733 149.491 75.098 145.993C74.4629 142.495 73.835 139.54 80.6452 140.445C87.4553 141.351 85.6555 135.435 85.745 135.346" stroke="#FE7523" stroke-opacity="0.6" stroke-width="3" stroke-linecap="round"/>
<path d="M152.435 28.9607C150.705 28.8042 145.58 26.619 147.402 22.7244C149.764 17.6758 146.313 16.4583 143.71 15.517C141.107 14.5757 138.901 13.8575 140.134 8.53485C141.366 3.21219 136.903 2.2284 136.845 2.11578" stroke="#FE7523" stroke-opacity="0.6" stroke-width="3" stroke-linecap="round"/>
<path d="M32.6985 57.4169C33.959 56.2223 38.9861 53.8199 40.7047 57.7614C42.9325 62.8707 46.1271 61.0851 48.5538 59.7537C50.9804 58.4223 52.9772 57.2414 56.1575 61.6837C59.3379 66.1261 63.0255 63.427 63.1481 63.4581" stroke="#FE7523" stroke-opacity="0.6" stroke-width="3" stroke-linecap="round"/>
<path d="M315.929 104.495C314.203 104.69 308.743 103.583 309.743 99.4007C311.039 93.9796 307.413 93.4826 304.674 93.0852C301.935 92.6878 299.63 92.4289 299.764 86.9672C299.898 81.5054 295.329 81.4412 295.249 81.3425" stroke="#FE7523" stroke-opacity="0.6" stroke-width="3" stroke-linecap="round"/>
<path d="M230.741 50.238C229.835 47.9562 229.096 41.0092 234.642 42.9754C241.831 45.5242 241.046 40.8735 240.48 37.3635C239.914 33.8535 239.345 30.8875 246.136 31.927C252.927 32.9664 251.244 27.0166 251.335 26.9289" stroke="#FE7523" stroke-opacity="0.6" stroke-width="3" stroke-linecap="round"/>
<circle cx="259.5" cy="10.5" r="5.5" fill="#EAF0F8"/>
<circle cx="184.5" cy="63.5" r="5.5" fill="#EAF0F8"/>
<circle cx="87.5" cy="39.5" r="5.5" fill="#EAF0F8"/>
<circle cx="63.5" cy="106.5" r="5.5" fill="#EAF0F8"/>
<circle cx="84.5" cy="167.5" r="5.5" fill="#EAF0F8"/>
<circle cx="222.5" cy="97.5" r="5.5" fill="#EAF0F8"/>
<circle cx="339.5" cy="59.5" r="5.5" fill="#EAF0F8"/>
<rect x="102.545" y="63" width="6.66667" height="14" transform="rotate(32.6103 102.545 63)" fill="#FFCFC9"/>
<rect x="139" y="77.9762" width="6.66667" height="14" transform="rotate(-48.2827 139 77.9762)" fill="#FFCFC9"/>
<rect x="1.05566" y="86.4901" width="6.66667" height="14" transform="rotate(-13.4493 1.05566 86.4901)" fill="#FFCFC9"/>
<rect x="338.763" y="203" width="6.66667" height="14" transform="rotate(28.8872 338.763 203)" fill="#FFCFC9"/>
<rect x="211.109" y="58" width="6.66667" height="14" transform="rotate(12.8293 211.109 58)" fill="#FFCFC9"/>
<rect x="310.635" y="10.5778" width="6.66667" height="14" transform="rotate(-35.757 310.635 10.5778)" fill="#FFCFC9"/>
<rect x="48.9385" y="164.075" width="6.66667" height="14" transform="rotate(57.7656 48.9385 164.075)" fill="#FFCFC9"/>
</svg>
