<svg width="428" height="379" viewBox="0 0 428 379" fill="none" xmlns="http://www.w3.org/2000/svg">
<defs>
<linearGradient id="paint0_linear_318_600" x1="236.222" y1="151.774" x2="246.214" y2="149.088" gradientUnits="userSpaceOnUse">
<stop offset="0.5237" stop-color="#285BD4"/>
<stop offset="1" stop-color="#2355B7"/>
</linearGradient>
<linearGradient id="paint1_linear_318_600" x1="240.826" y1="205.599" x2="306.137" y2="188.037" gradientUnits="userSpaceOnUse">
<stop offset="0.5237" stop-color="#285BD4"/>
<stop offset="1" stop-color="#2355B7"/>
</linearGradient>
<clipPath id="clip0_318_600">
<rect width="433.98" height="378.592" fill="white" transform="translate(-1)"/>
</clipPath>
<clipPath id="clip1_318_600">
<rect width="85.299" height="150.3" fill="white" transform="translate(316 140)"/>
</clipPath>
<clipPath id="clip2_318_600">
<rect width="80" height="164" fill="white" transform="translate(186 137.114) rotate(-17.543)"/>
</clipPath>
<clipPath id="clip3_318_600">
<rect width="30.8" height="44.2" fill="white" transform="matrix(-1 0 0 1 253.4 102)"/>
</clipPath>
<clipPath id="clip4_318_600">
<rect width="44.4" height="58" fill="white" transform="matrix(-1 0 0 1 269.4 72)"/>
</clipPath>
<clipPath id="clip5_318_600">
<rect width="18.2" height="33.9" fill="white" transform="matrix(-1 0 0 1 224.4 89)"/>
</clipPath>
<clipPath id="clip6_318_600">
<rect width="63.4" height="48.2" fill="white" transform="matrix(-1 0 0 1 269.4 61)"/>
</clipPath>
<clipPath id="clip7_318_600">
<rect width="9.8" height="13.4" fill="white" transform="matrix(-1 0 0 1 224.4 98)"/>
</clipPath>
<clipPath id="clip8_318_600">
<rect width="73" height="123" fill="white" transform="translate(216 133.957) rotate(-15.0514)"/>
</clipPath>
</defs>
<g clip-path="url(#clip0_318_600)">
<path d="M313.133 63.0682C343.167 97.8369 366.375 134.624 368.623 173.584C370.795 212.544 351.937 253.754 321.902 281.305C291.945 308.857 250.735 322.751 215.424 316.928C180.189 311.03 150.698 285.419 113.289 257.867C75.9579 230.316 30.6349 200.825 32.0315 172.808C33.3509 144.713 81.391 118.015 118.799 83.1688C156.206 48.4002 182.904 5.5597 214.646 0.515097C246.388 -4.5295 283.176 28.299 313.133 63.0682Z" fill="#638BF0"/>
<ellipse cx="347.5" cy="290.5" rx="28.5" ry="3.5" fill="#3968E2"/>
<g clip-path="url(#clip1_318_600)">
<path d="M338.613 220.217C338.613 218.766 335.548 212.475 327.645 212.475C323.048 212.475 316.032 216.83 316.032 217.395C321.597 218.605 326.677 225.782 330.064 225.782C333.613 225.782 338.613 223.847 338.613 220.217Z" fill="#FB9D49"/>
<path d="M361.535 201.723C357.906 201.4 352.987 187.448 357.503 180.432C367.019 165.674 391.778 160.916 400.971 140.028C400.891 147.206 408.149 205.513 361.535 201.723Z" fill="#FB9D49"/>
<path d="M346.181 253.059C346.172 227.432 365.391 186.607 377.588 178.167" stroke="#664500" stroke-width="2.37914" stroke-miterlimit="10" stroke-linecap="round" stroke-linejoin="round"/>
<path d="M366.641 191.158C365.786 189.332 364.393 183.509 364.935 180.161" stroke="#664500" stroke-width="2.37914" stroke-miterlimit="10" stroke-linecap="round" stroke-linejoin="round"/>
<path d="M373.056 182.345C374.556 182.764 381.394 182.248 385.255 181.136" stroke="#664500" stroke-width="2.37914" stroke-miterlimit="10" stroke-linecap="round" stroke-linejoin="round"/>
<path d="M348.781 234.161C348.677 231.757 344.903 218.695 330.509 220.351" stroke="#664500" stroke-width="2.37914" stroke-miterlimit="10" stroke-linecap="round" stroke-linejoin="round"/>
<path d="M334.677 220.239C334.122 219.091 332.1 216.783 331.02 216.484" stroke="#664500" stroke-width="2.37914" stroke-miterlimit="10" stroke-linecap="round" stroke-linejoin="round"/>
<path d="M363.926 290.299L371.577 253.093L322.91 253.131L330.569 290.356L363.926 290.299Z" fill="#F0A0A4"/>
</g>
<path d="M279.766 192.5C288.299 204.122 300.599 212.09 308.266 207.119C314.866 202.82 321.599 171.111 323.799 160.027C324.266 157.608 324.533 156.198 324.533 156.198L325.266 152.906C325.266 152.906 332.333 151.764 334.066 151.226C335.866 150.689 337.733 149.681 339.133 147.129C342 144.307 350.5 140.176 347 139C344.5 138.16 335.933 144.979 335.933 144.979C335.933 144.979 331.733 145.113 325.333 144.307C318.933 143.501 315.666 143.501 313.666 146.188C312.533 147.666 311.866 150.286 311.866 150.286L310.399 154.249L300.399 181.054C300.399 181.054 295.733 191.911 295 190.5C287.867 194.598 284.099 186.185 279.766 192.5Z" fill="#DE8E68"/>
<path d="M345.203 147.428C345.203 147.428 349.219 144.496 351.35 143.149C353.481 141.801 349.957 140.296 346.76 141.564C343.564 142.832 337.99 144.654 337.99 144.654C337.99 144.654 341.433 141.484 342.334 140.375C343.236 139.265 340.941 138.314 338.728 139.662C336.433 141.088 332.745 144.337 330.122 145.447C327.499 146.556 327.581 149.409 328.893 149.885C330.122 150.36 340.203 149.33 345.203 147.428Z" fill="#DE8E68"/>
<path d="M315 145C315 145 319.318 142.137 321.418 141.197C323.517 140.257 326.857 139.109 327.811 139.004C328.67 138.9 330.292 140.675 327.143 143.494C323.994 146.313 322.181 147.984 322.181 147.984C322.181 147.984 313.473 148.446 315 145Z" fill="#DE8E68"/>
<path d="M221.266 136C234.266 128.5 249.266 133.667 255.266 136.5L245.406 145.464C241.628 148.898 235.87 148.935 232.049 145.55L221.266 136Z" fill="#DE8E68"/>
<path d="M239.5 316.5L267 309.5C267 309.5 273.266 247.957 273.266 246C271.589 247.677 256.754 247.543 249.766 249.5C245.573 253.972 233 316.5 233 316.5H239.5Z" fill="#15181D"/>
<path fill-rule="evenodd" clip-rule="evenodd" d="M232.421 318.236L233 316.5L245.5 310.5L254.5 308L267 309.5L266.507 312.954C255.172 316.351 243.647 318.17 232.421 318.236Z" fill="#15181D"/>
<path d="M190.991 247V304L233.5 316L253.914 251.128C244.098 252.87 206.923 254.267 190.991 247Z" fill="#22272E"/>
<path fill-rule="evenodd" clip-rule="evenodd" d="M191 309.582V304L198.5 303L211.5 306L228.5 311L233.5 316L232.755 318.234C226.874 318.287 221.074 317.86 215.424 316.928C207.018 315.521 198.938 312.992 191 309.582Z" fill="#22272E"/>
<g clip-path="url(#clip2_318_600)">
<mask id="mask0_318_600" style="mask-type:alpha" maskUnits="userSpaceOnUse" x="180" y="133" width="104" height="120">
<path d="M223.872 133.66C223.872 133.66 219.372 135.015 209.833 135.196C200.294 135.377 189.405 138.179 185.175 143.512C180.946 148.844 179.596 188.162 180.226 205.967C180.856 223.683 193.545 250.256 193.545 250.256C193.545 250.256 223.872 253.69 248.709 252.515C273.547 251.25 279.486 245.827 281.196 244.11C282.906 242.392 283.896 238.235 282.906 236.427C281.916 234.71 277.057 220.61 275.257 207.142C273.547 193.585 277.237 174.875 275.527 158.335C273.817 141.794 267.428 136.913 267.428 136.913C267.428 136.913 259.418 134.202 245.56 133.75C231.791 133.117 223.872 133.66 223.872 133.66Z" fill="#FFE779"/>
</mask>
<g mask="url(#mask0_318_600)">
<path d="M218 135.5L210.016 142.367L229.814 272.712L276.299 256.105L260 135.5L247.517 137.866L218 135.5Z" fill="white"/>
</g>
</g>
<path d="M188.5 198.5V265L194.022 263.587C204.624 260.875 215.548 259.626 226.488 259.875L232 260C233.167 254.667 232.9 239.5 226.5 227.5L214 166.5L188.5 198.5Z" fill="#377FED"/>
<path d="M197.052 196.721L192.666 205.695C192.666 205.695 197.301 212.068 202.266 224.145C207.232 236.222 215.107 259.223 218.5 263.5C218.5 263.5 210.376 266.478 202.266 270C202.266 270 187.039 243.518 179.839 233.286C172.639 223.055 169.77 209.972 170.266 203.43C171.011 193.786 178.211 179.529 178.873 175.671C179.535 171.813 196.887 185.567 197.052 196.721Z" fill="#DE8E68"/>
<path d="M212.731 253.242C211.572 255.255 207.6 260.622 198.331 262.803C198 262.886 197.917 263.222 198.083 263.474L201.503 269.332C201.586 269.5 201.834 269.5 202 269.5C212.345 266.313 215.876 260.958 216.29 259.951C216.372 259.867 216.372 259.7 216.29 259.616L213.476 253.326C213.31 252.907 212.897 252.907 212.731 253.242Z" fill="#22272E"/>
<path d="M206.924 263.428C205.784 261.529 206.316 259.091 208.113 257.984C209.909 256.877 212.289 257.52 213.429 259.419C214.569 261.319 214.037 263.756 212.241 264.863C210.444 265.97 208.064 265.328 206.924 263.428Z" fill="white"/>
<path d="M187.5 151.5C191.5 142.7 204.833 137.833 211 136.5L220.5 167.5C213.833 178.333 200.4 200.8 200 204C199.6 207.2 209.833 231.667 215 243.5L190.5 259.5C182.667 245.167 167 214 167 204C167 191.5 182.5 162.5 187.5 151.5Z" fill="#3B85F7"/>
<path opacity="0.08" d="M209.636 140.211L205.13 156.584L214.64 154.91L206.28 167.467C206.28 167.467 208.039 181.975 213.095 197.017C218.148 212.059 226.497 227.633 226.497 227.633L216.779 152.622L209.636 140.211Z" fill="#285BD4"/>
<path d="M220.193 133.234L210.047 136.763L206.89 155.549L213.236 155.382C213.236 155.382 212.15 157.916 210.724 160.26C209.302 162.603 207.54 164.753 207.54 164.753C207.54 164.753 208.485 175.553 213.199 191.435C217.909 207.317 226.456 228.621 226.456 228.621C226.456 228.621 229.154 203.239 226.196 172.897C223.882 149.196 220.193 133.234 220.193 133.234Z" fill="#A9D6FF"/>
<path d="M226.1 227.757C225.972 227.775 225.842 227.702 225.792 227.577C224.378 224.037 217.115 205.664 212.919 191.518C208.254 175.792 207.258 164.887 207.249 164.779C207.241 164.704 207.265 164.627 207.315 164.567C207.332 164.546 209.081 162.404 210.478 160.106C211.537 158.368 212.414 156.502 212.783 155.685L206.898 155.839C206.811 155.843 206.727 155.805 206.671 155.739C206.615 155.674 206.588 155.586 206.605 155.498L209.692 137.119C209.719 136.96 209.867 136.853 210.026 136.881C210.184 136.909 210.29 137.058 210.263 137.218L207.235 155.248L213.227 155.089C213.326 155.087 213.42 155.135 213.476 155.219C213.531 155.302 213.54 155.407 213.5 155.498C213.489 155.523 212.389 158.079 210.971 160.413C209.721 162.47 208.194 164.404 207.839 164.846C207.958 166.062 209.086 176.56 213.476 191.351C217.666 205.471 224.917 223.822 226.33 227.356C226.389 227.507 226.316 227.676 226.17 227.735C226.146 227.747 226.123 227.753 226.1 227.757Z" fill="#69A6FF"/>
<path d="M200.487 271.782L222.172 263.037" stroke="#63737A" stroke-width="2" stroke-linecap="round"/>
<circle cx="226" cy="242" r="2" fill="#0F224F"/>
<path d="M283 153.5C279.4 147.1 263.5 136.5 256 132C254.5 136.5 250.075 217.003 249.5 228.5C249 238.5 251.167 252 252.5 259C262.9 261.8 275.5 253.5 280.5 249C273.7 237.8 271 210.333 270.5 198C277.7 207.2 288.5 214.5 293 217C311.4 229 321 193.333 323.5 174L304.5 160.5L295.5 185C291.1 171.8 285.667 159.5 283 153.5Z" fill="#3B85F7"/>
<path opacity="0.08" d="M263.03 136.601L267.252 155.842L260.591 156.937L267.446 167.575C267.446 167.575 266.737 176.951 262.212 194.243C257.683 211.536 249.339 236.746 249.339 236.746L256.665 151.527L263.03 136.601Z" fill="#285BD4"/>
<path d="M255.826 131.693C255.826 131.693 251.416 159.072 249.808 185.29C248.196 211.509 249.609 237.669 249.609 237.669C249.609 237.669 254.458 220.015 258.604 202.057C262.75 184.096 266.191 165.831 266.191 165.831C266.191 165.831 264.225 163.069 262.923 160.795C261.621 158.517 260.982 156.728 260.982 156.728L265.683 155.443L263.066 136.214L255.826 131.693Z" fill="#A9D6FF"/>
<path d="M249.654 238.013C249.61 238.019 249.56 238.016 249.514 238.005C249.329 237.954 249.222 237.762 249.272 237.576C249.32 237.401 254.167 219.726 258.266 201.979C262.168 185.072 265.489 167.68 265.823 165.911C265.428 165.35 263.765 162.958 262.621 160.967C261.318 158.69 260.678 156.918 260.654 156.844C260.62 156.754 260.627 156.652 260.674 156.564C260.717 156.478 260.795 156.414 260.889 156.39L265.295 155.185L262.787 136.751C262.76 136.562 262.892 136.386 263.08 136.359C263.27 136.333 263.446 136.466 263.47 136.659L266.017 155.395C266.041 155.567 265.933 155.734 265.765 155.778L261.436 156.962C261.684 157.589 262.281 158.981 263.215 160.62C264.494 162.855 266.447 165.602 266.465 165.628C266.521 165.704 266.542 165.803 266.524 165.896C266.491 166.08 263.032 184.375 258.932 202.137C254.831 219.899 249.98 237.588 249.932 237.763C249.899 237.901 249.783 237.995 249.654 238.013Z" fill="#69A6FF"/>
<circle cx="227" cy="252" r="2" fill="#0F224F"/>
<g clip-path="url(#clip3_318_600)">
<path d="M246.481 117.473C246.481 117.473 247.41 126.7 248.001 130.22C248.592 133.74 248.001 140.5 239.472 143.537C229.9 145.5 225.312 139.5 222.922 134.5C222.331 133.263 222.331 129.364 222.416 128.032C222.669 123.847 223.176 113.573 222.922 105.203C222.585 94.5487 246.481 109.959 246.481 117.473Z" fill="#DE8E68"/>
</g>
<g clip-path="url(#clip4_318_600)">
<path d="M262.7 90.7C262.7 90.7 262.4 97.7 263.7 105.7C265 113.7 265.9 125.7 254 129C242.1 132.3 228.1 127.8 223.7 111.4C219.3 95 216.1 78.4 231.3 73.6C246.5 68.8 264.5 75 262.7 90.7Z" fill="#DE8E68"/>
</g>
<circle r="2" transform="matrix(-1 0 0 1 245.4 97)" fill="#823F1F"/>
<circle r="2" transform="matrix(-1 0 0 1 260.4 96)" fill="#823F1F"/>
<path d="M258.4 104C258.4 105.167 257.9 106.5 256.9 107.5" stroke="#B76640" stroke-width="2" stroke-linecap="round" stroke-linejoin="round"/>
<g clip-path="url(#clip5_318_600)">
<path d="M206.2 90.2C206.2 90.2 206.2 98.3 210.9 106.3C215.6 114.3 221.3 118.5 223.2 122.1C225.1 125.7 224.6 116.3 223.2 111.8C221.8 107.4 213.5 83.3 206.2 90.2Z" fill="#22272E"/>
</g>
<g clip-path="url(#clip6_318_600)">
<path d="M222 101.8C222 101.8 223.5 99.5 224.2 94.9C224.8 90.3 229.7 90.6 232 82.1C234.3 73.6 239.9 84.1 248.8 87.9C257.7 91.7 264.7 85.6 268.3 78.8C271.8 72.1 265.8 66 261.7 63.2C257.6 60.4 253.3 64.9 245.3 62.9C237.3 60.9 224.4 58.4 218.2 67.4C212 76.4 205.6 78.6 206 88.4C206.5 98.2 217.9 109.1 218.6 109.2C219.4 109.4 222 101.8 222 101.8Z" fill="#22272E"/>
<circle r="2.5" transform="matrix(-1 0 0 1 222.9 101.5)" fill="#DE8E68"/>
<path d="M240.493 90.9412C242.002 90.2953 245.816 89.3146 248.999 90.5588" stroke="#22272E" stroke-width="2" stroke-linecap="round"/>
<path d="M256.044 90.331C257.497 89.5669 261.22 88.2851 264.492 89.2714" stroke="#22272E" stroke-width="2" stroke-linecap="round"/>
</g>
<path d="M263.737 110.705C263.737 110.705 263.837 111.905 262.137 112.205C260.437 112.405 260.237 109.905 257.337 109.505C255.537 109.305 249.237 109.805 246.637 112.205C244.037 114.605 240.437 117.405 235.237 115.805C230.037 114.205 226.937 106.905 225.937 96.3048C225.037 86.6048 221.437 96.0048 221.437 98.3048C221.437 99.9048 222.937 97.6048 224.737 104.105C225.537 107.005 224.737 115.205 227.837 121.205C230.237 125.805 236.937 130.505 245.437 131.105C253.937 131.705 260.937 128.205 263.037 122.605C265.137 117.205 264.337 111.105 263.737 110.705Z" fill="#22272E"/>
<path d="M257.4 117C256.4 117.755 253.8 118.811 251.4 117" stroke="#D38C6A" stroke-width="2" stroke-linecap="round"/>
<g clip-path="url(#clip7_318_600)">
<path d="M224.4 103.4C224.4 103.4 221.7 97.4 217 98.1C212.2 98.9 214.6 111.5 223.3 111.4" fill="#DE8E68"/>
<path d="M217.3 102.6C217.6 102.3 217.9 102 218.1 101.9C218.4 101.8 218.3 102 218.5 102.1C218.5 102.2 218.7 103 218.8 103.7C218.9 104.4 219.1 105.2 219.5 105.9C219.7 106.3 219.9 106.7 220.3 107C220.7 107.3 221.2 107.4 221.6 107.2C221.2 107 221.1 106.7 221 106.4C220.9 106.1 220.9 105.8 220.8 105.5C220.7 104.8 220.7 104.1 220.5 103.3C220.4 102.9 220.3 102.5 220.2 102.1C220.1 101.9 220 101.7 219.9 101.5C219.8 101.4 219.8 101.3 219.6 101.2C219.5 101.1 219.3 101 219.2 100.9C219 100.8 218.7 100.7 218.3 100.7C217.9 100.8 217.7 101 217.5 101.2C217.2 101.7 217.2 102.2 217.3 102.6Z" fill="#22272E"/>
</g>
<g clip-path="url(#clip8_318_600)">
<path d="M235.846 150.373L237.899 157.551L244.621 157.253L246.09 148.63L241.218 142.697L235.846 150.373Z" fill="url(#paint0_linear_318_600)"/>
<path opacity="0.1" d="M218.422 142.965C218.422 142.965 231.494 158.427 232.706 158.151C234.642 157.711 241.343 144.962 241.454 144.993C242.206 145.204 247.629 156.04 248.591 156.104C249.554 156.168 257 132.5 257 132.5L241.197 142.06L218.422 142.965Z" fill="#3E3566"/>
<path d="M222 132C222 132 220.662 131.984 218.422 135V135C215.567 138.846 218.97 143.755 222.6 146.881L232.376 155.299C232.376 155.299 234.801 152.59 237.017 149.537C239.234 146.487 241.243 143.093 241.243 143.093L248 153.652L257.5 132L256.915 131.825C254.02 130.956 250.951 130.844 248 131.5V131.5C248 131.5 248 137.5 244.89 139.599C243.23 141.09 241.19 142.059 241.19 142.059C241.19 142.059 232.95 141.293 229.5 138.5C226.046 135.708 222 132 222 132Z" fill="white"/>
<path d="M238.042 157.294C238.042 157.294 225.792 188.747 252.425 222.432C267.992 242.119 294.511 240.214 294.511 240.214L304.697 232.356L315.756 223.823C315.756 223.823 312.261 223.835 308.636 222.652C305.012 221.473 301.251 219.099 301.251 219.099C301.251 219.099 276.072 216.772 261.584 201.376C243.485 182.141 244.511 157.265 244.511 157.265L238.042 157.294Z" fill="url(#paint1_linear_318_600)"/>
</g>
</g>
</svg>
