<svg width="428" height="191" viewBox="0 0 428 191" fill="none" xmlns="http://www.w3.org/2000/svg">
<path d="M280.931 37.4489C298.766 58.0938 312.546 79.9374 313.881 103.071C315.17 126.205 303.973 150.675 286.139 167.034C268.351 183.394 243.881 191.644 222.914 188.186C201.992 184.684 184.481 169.476 162.268 153.117C140.101 136.758 113.189 119.246 114.019 102.61C114.802 85.9282 143.327 70.0754 165.54 49.3842C187.752 28.7392 203.604 3.30131 222.452 0.305916C241.3 -2.68948 263.144 16.8035 280.931 37.4489Z" fill="#638BF0"/>
<path opacity="0.2" d="M454 103C408.333 86.6667 336.4 -4.39998 242 110C147.6 224.4 103 49 -5 110" stroke="white" stroke-width="2"/>
<path opacity="0.2" d="M440 39C334 22 389.2 215.8 242 151C58 70 56 36 0 87" stroke="white" stroke-width="2"/>
<path d="M202.758 83.9312C201.802 87.7509 196.455 132.145 196.561 135.965C197.603 139.117 228.747 177.684 228.747 177.684L234 171L212.592 129.473L215.742 86.1479L202.758 83.9312Z" fill="#3B3744"/>
<path d="M209 178L213.363 88.0453C213.363 88.0453 237.107 90.9196 237.107 92.4427C237.107 93.9658 217.965 177.992 217.965 177.992L209 178Z" fill="#3B3744"/>
<path d="M187.437 54.8712C187.857 56.2204 194.967 76.7225 196.965 78.3515C198.964 79.9806 205.243 79.0491 205.522 78.6773C205.802 78.3056 207.753 61.0996 207.753 61.0996L200.779 60.6358C199.942 62.7266 199.15 65.433 198.918 66.1686C198.319 64.5416 192.592 55.5228 192.358 54.8712" fill="#C36F0B"/>
<path d="M223.094 98.199L228.031 109.019" stroke="#1B3C87" stroke-linecap="round" stroke-linejoin="round"/>
<path d="M204.214 64.0692C203.229 63.4536 200.043 61.7106 199.405 60.2715C200.631 53.1016 206.445 41.7303 214.075 44.4927C216.062 45.1723 208.224 66.258 204.214 64.0692Z" fill="#46DBC9"/>
<path d="M220.966 43.0628C242.284 43.0628 237.191 89.6816 233.879 91.7084C230.567 93.7353 204.792 89.6816 201.958 85.8758C200.854 74.7543 205.729 43.0628 220.966 43.0628Z" fill="#46DBC9"/>
<path d="M231.854 65.5585C232.137 67.8252 234.376 74.0876 234.052 75.2909C233.728 76.4942 226.141 100.738 225.213 101.624C225.567 102.473 227.336 106.221 227.412 106.721C228.545 105.623 243.189 79.4764 243.403 77.2797C243.617 75.083 244.314 63.4757 243.96 61.9886C243.607 60.5015 231.596 63.9095 231.854 65.5585Z" fill="#C36F0B"/>
<path d="M232.576 45.2198C240.195 43.4768 245.824 58.9958 244.923 62.9455C242.496 65.3081 232.982 67.8267 230.461 66.4895C228.81 63.3793 226.965 46.5011 232.576 45.2198Z" fill="#46DBC9"/>
<path d="M227.613 35.6776C227.413 37.6765 226.44 44.3446 226.666 46.2595C225.698 47.103 220.427 47.7826 218.76 45.9297C219.46 44.0967 219.708 40.4528 219.624 38.8478C219.54 37.2427 227.613 35.6776 227.613 35.6776Z" fill="#A75D06"/>
<path d="M229.584 29.6628C229.921 23.4014 226.17 18.1091 221.207 17.842C216.244 17.575 211.947 22.4343 211.611 28.6957C211.274 34.9571 215.024 40.2494 219.987 40.5164C224.95 40.7835 229.247 35.9242 229.584 29.6628Z" fill="#C36F0B"/>
<path d="M207.296 21.4386C208.046 23.217 207.47 23.8109 207.355 24.3435C207.242 24.8576 207.334 27.8759 211.454 27.8087C211.635 28.0408 211.759 28.3141 211.816 28.6057C211.874 28.8974 211.862 29.199 211.783 29.4852C211.681 29.8536 211.44 30.165 211.115 30.3512C210.79 30.5374 210.406 30.5833 210.048 30.4786C209.774 30.3975 209.543 30.2085 209.405 29.9529C209.266 29.6972 209.231 29.3956 209.308 29.1136C209.337 29.007 209.386 28.9074 209.453 28.8205C209.52 28.7337 209.603 28.6613 209.697 28.6075C209.791 28.5537 209.894 28.5195 210.001 28.5071C210.108 28.4946 210.216 28.504 210.32 28.5347C210.475 28.5807 210.606 28.688 210.684 28.8332C210.763 28.9783 210.782 29.1494 210.738 29.3092C210.722 29.3668 210.696 29.4206 210.66 29.4675C210.624 29.5144 210.579 29.5535 210.528 29.5825C210.477 29.6116 210.421 29.63 210.364 29.6368C210.306 29.6435 210.247 29.6384 210.192 29.6218C210.134 29.6049 210.073 29.6122 210.02 29.6421C209.968 29.6719 209.93 29.7219 209.913 29.781C209.897 29.8401 209.904 29.9035 209.933 29.9573C209.962 30.011 210.01 30.0507 210.068 30.0676C210.295 30.134 210.539 30.1049 210.746 29.9866C210.952 29.8683 211.105 29.6705 211.17 29.4366C211.208 29.2989 211.22 29.1548 211.204 29.0126C211.188 28.8703 211.145 28.7326 211.078 28.6075C211.01 28.4823 210.919 28.3721 210.81 28.2831C210.701 28.1941 210.576 28.1281 210.442 28.0889C210.119 27.9943 209.773 28.0357 209.479 28.204C209.186 28.3722 208.969 28.6536 208.877 28.9862C208.767 29.3855 208.815 29.8134 209.01 30.1764C209.205 30.5395 209.532 30.8083 209.919 30.9243C210.086 30.9726 210.257 30.9971 210.43 30.9973C210.833 30.9965 211.225 30.8604 211.546 30.6097C211.867 30.3589 212.1 30.0073 212.209 29.6079C212.294 29.3032 212.317 28.9838 212.277 28.6696C212.237 28.3553 212.135 28.0529 211.977 27.781C216.616 27.488 229.99 34.8064 229.99 34.8064C229.99 34.8064 232.869 35.6655 233.734 33.7644C233.734 33.7644 238.285 34.0087 239.206 31.1015C239.572 29.9495 239.476 29.0962 239.226 28.4849C239.474 28.6314 239.751 28.7184 240.036 28.7396C240.072 28.7396 240.11 28.7396 240.149 28.7396C240.62 28.7391 241.074 28.5536 241.418 28.2208C241.761 27.8881 241.969 27.4331 241.998 26.9485C242.02 26.5328 241.88 26.1251 241.611 25.8148C241.341 25.5045 240.963 25.3168 240.559 25.2929C240.224 25.2739 239.895 25.3925 239.644 25.6228C239.393 25.853 239.242 26.1761 239.222 26.5213C239.206 26.8097 239.302 27.0927 239.489 27.3083C239.676 27.5238 239.938 27.6542 240.218 27.671C240.454 27.6849 240.686 27.6017 240.863 27.4398C241.039 27.2778 241.146 27.0503 241.16 26.8073C241.162 26.7769 241.157 26.7464 241.148 26.7176C241.138 26.6889 241.123 26.6624 241.103 26.6396C241.083 26.6169 241.06 26.5984 241.033 26.5851C241.006 26.5719 240.977 26.5641 240.948 26.5624C240.918 26.5606 240.889 26.5649 240.861 26.5749C240.833 26.5849 240.807 26.6005 240.785 26.6208C240.763 26.6411 240.745 26.6656 240.732 26.693C240.719 26.7205 240.712 26.7502 240.71 26.7806C240.707 26.8403 240.692 26.8987 240.667 26.9526C240.641 27.0064 240.606 27.0546 240.563 27.0944C240.519 27.1342 240.469 27.1648 240.414 27.1844C240.359 27.2041 240.301 27.2125 240.243 27.209C240.082 27.1995 239.931 27.1245 239.824 27.0006C239.716 26.8766 239.661 26.7138 239.67 26.5479C239.676 26.4375 239.703 26.3293 239.749 26.2297C239.796 26.1301 239.861 26.0409 239.942 25.9674C240.022 25.8938 240.116 25.8373 240.217 25.801C240.319 25.7647 240.426 25.7494 240.533 25.756C240.675 25.7643 240.813 25.8011 240.94 25.8645C241.067 25.9278 241.181 26.0164 241.275 26.1251C241.369 26.2338 241.442 26.3606 241.488 26.4981C241.534 26.6356 241.554 26.7812 241.546 26.9265C241.524 27.3087 241.355 27.6663 241.077 27.9207C240.799 28.1751 240.435 28.3056 240.063 28.2834C239.419 28.2452 238.727 27.62 238.366 26.886C238.911 26.1844 240.098 24.3667 239.613 22.3868C239.039 20.0354 236.79 19.5688 236.79 19.5688C236.79 19.5688 238.815 15.1866 234.99 13.0771C233.973 12.5156 233.057 12.3222 232.257 12.3431C232.351 12.24 232.434 12.1275 232.506 12.0073C232.664 11.7401 232.717 11.4213 232.656 11.1151C232.594 10.809 232.422 10.5382 232.174 10.3575C232.072 10.2851 231.956 10.2351 231.835 10.2104C231.713 10.1857 231.588 10.1869 231.467 10.2139C231.342 10.242 231.224 10.2959 231.12 10.3723C231.016 10.4487 230.929 10.5461 230.863 10.6585C230.75 10.848 230.712 11.0744 230.756 11.2918C230.8 11.5092 230.922 11.7013 231.099 11.829C231.148 11.8636 231.209 11.8765 231.267 11.865C231.326 11.8535 231.378 11.8185 231.411 11.7677C231.445 11.7168 231.458 11.6544 231.446 11.594C231.435 11.5337 231.401 11.4803 231.352 11.4458C231.27 11.3858 231.214 11.2962 231.195 11.1952C231.175 11.0942 231.193 10.9892 231.246 10.9016C231.281 10.843 231.326 10.7923 231.38 10.7524C231.435 10.7126 231.496 10.6846 231.561 10.6701C231.623 10.6568 231.687 10.6564 231.748 10.6692C231.81 10.6819 231.869 10.7074 231.921 10.7442C232.075 10.8571 232.182 11.0263 232.219 11.2172C232.257 11.4082 232.222 11.6067 232.122 11.7723C231.991 11.9934 231.489 12.6904 230.607 12.3628C230.63 11.9396 230.567 11.5162 230.423 11.1193C230.317 10.8438 230.152 10.5964 229.94 10.3957C229.68 10.1606 229.366 9.99867 229.027 9.92562C228.538 9.82441 228.035 9.81656 227.543 9.90247C227.543 9.90247 227.378 8.46913 225.815 7.88677C223.436 6.9999 221.203 8.63006 221.203 8.63006C221.203 8.63006 219.156 6.16862 216.218 7.29514C213.672 8.27347 213.381 10.1259 213.349 10.596C212.978 10.6264 212.609 10.5228 212.304 10.3031C211.546 9.73459 211.826 8.91372 211.929 8.68216C212.007 8.50438 212.147 8.3636 212.322 8.28835C212.496 8.2131 212.692 8.20902 212.87 8.27694C212.928 8.30073 212.982 8.33661 213.027 8.3824C213.072 8.42818 213.107 8.48291 213.131 8.54323C213.155 8.60719 213.166 8.67559 213.164 8.74426C213.162 8.81293 213.147 8.88044 213.118 8.94267C213.077 9.0373 213.003 9.11222 212.91 9.15206C212.817 9.19189 212.713 9.19361 212.619 9.15686C212.563 9.13413 212.501 9.13503 212.447 9.15935C212.392 9.18367 212.348 9.22941 212.326 9.28653C212.304 9.34364 212.305 9.40744 212.329 9.46389C212.352 9.52035 212.397 9.56483 212.452 9.58755C212.654 9.66627 212.878 9.66292 213.077 9.57818C213.277 9.49345 213.437 9.33369 213.527 9.13138C213.58 9.0122 213.609 8.88309 213.612 8.75192C213.616 8.62075 213.593 8.49026 213.546 8.3684C213.499 8.25012 213.43 8.14281 213.342 8.05303C213.254 7.96325 213.149 7.89289 213.034 7.84624C212.749 7.73493 212.434 7.73953 212.152 7.85912C211.87 7.97872 211.643 8.20431 211.518 8.48997C211.231 9.14412 211.217 10.0622 212.037 10.6782C212.064 10.699 212.092 10.7187 212.122 10.7384C211.688 10.8044 211.242 10.9456 210.981 11.2385C210.348 11.9506 210.981 12.8988 210.981 12.8988C210.981 12.8988 209.397 13.1952 208.894 14.441C208.39 15.6868 209.196 16.3386 208.274 17.2278C207.352 18.1169 206.545 19.6591 207.296 21.4386Z" fill="#3F4D79"/>
<path d="M223 27.2745C223 27.2745 222.968 18.8888 215.795 19.0011C208.622 19.1135 211.623 28 211.623 28L223 27.2745Z" fill="white"/>
<path d="M224.828 30.1819C225.085 31.6706 220.178 40.1081 216.826 39.3889C212.92 38.5508 208.28 24.287 214.444 22.444C220.607 20.601 224.584 28.761 224.828 30.1819Z" fill="#C36F0B"/>
<path d="M217.419 29.3676C217.419 30.1092 216.14 32.8496 215.066 32.8496L217.419 29.3676Z" fill="#874B03"/>
<path d="M217.419 29.3676C217.419 30.1092 216.14 32.8496 215.066 32.8496" stroke="#874B03" stroke-linecap="round" stroke-linejoin="round"/>
<path d="M213.883 29.8782C214.243 29.8782 214.535 29.3457 214.535 28.6889C214.535 28.032 214.243 27.4995 213.883 27.4995C213.523 27.4995 213.231 28.032 213.231 28.6889C213.231 29.3457 213.523 29.8782 213.883 29.8782Z" fill="#874B03"/>
<path d="M218.547 36.8779C219.147 36.8659 220.688 35.8545 221.446 34.6792L218.547 36.8779Z" fill="#874B03"/>
<path d="M218.547 36.8779C219.147 36.8659 220.688 35.8545 221.446 34.6792" stroke="#874B03" stroke-linecap="round" stroke-linejoin="round"/>
<path d="M226.5 34C227.881 34 229 32.8807 229 31.5C229 30.1193 227.881 29 226.5 29C225.119 29 224 30.1193 224 31.5C224 32.8807 225.119 34 226.5 34Z" fill="#C36F0B"/>
<path d="M193.084 54.8439L187.375 55.0058L182 43.2227L187.707 43.0628L193.084 54.8439Z" fill="#3B3744"/>
<path d="M234.201 170.628L239.578 177.13L244.011 178.004L235.051 190.976H226.605L231.814 188L231.039 180.802L228.135 178.21" fill="#664500"/>
<path d="M217.936 177.843L216.997 184.961L218.584 190.977H198.461L209.007 182.89L209.039 177.843" fill="#664500"/>
<path d="M191.532 51.4683C191.566 50.217 192.987 46.879 192.005 46.5392C191.024 46.1994 186.758 44.6143 187.338 45.9395C187.918 47.2647 188.188 47.5266 188.897 47.9663" fill="#C36F0B"/>
<path d="M186.08 52.4137C183.881 51.4142 181.958 48.332 186.08 49.6153V52.4137Z" fill="#C36F0B"/>
<path d="M183.809 49.5014C182.41 48.2522 181.932 46.5871 185.152 47.5885L183.809 49.5014Z" fill="#C36F0B"/>
</svg>
