<svg width="375" height="316" viewBox="0 0 375 316" fill="none" xmlns="http://www.w3.org/2000/svg">
    <defs>
        <linearGradient id="paint0_linear_1244_2518" x1="65.3001" y1="191.398" x2="74.0393" y2="189.048" gradientUnits="userSpaceOnUse">
        <stop offset="0.5237" stop-color="#285BD4"/>
        <stop offset="1" stop-color="#2355B7"/>
        </linearGradient>
        <linearGradient id="paint1_linear_1244_2518" x1="69.3269" y1="238.477" x2="126.452" y2="223.116" gradientUnits="userSpaceOnUse">
        <stop offset="0.5237" stop-color="#285BD4"/>
        <stop offset="1" stop-color="#2355B7"/>
        </linearGradient>
        <clipPath id="clip0_1244_2518">
        <rect width="37.9938" height="122.123" fill="white" transform="translate(260.693 166.925)"/>
        </clipPath>
        <clipPath id="clip1_1244_2518">
        <rect width="9.09108" height="6.74219" fill="white" transform="translate(283.793 154.34) rotate(-24.8025)"/>
        </clipPath>
        <clipPath id="clip2_1244_2518">
        <rect width="26.7766" height="42.137" fill="white" transform="translate(284.213 145.214)"/>
        </clipPath>
        <clipPath id="clip3_1244_2518">
        <rect width="10.8554" height="18.0923" fill="white" transform="translate(305.019 137.073)"/>
        </clipPath>
        <clipPath id="clip4_1244_2518">
        <rect width="41.6123" height="30.7569" fill="white" transform="translate(276.976 119.885)"/>
        </clipPath>
        <clipPath id="clip5_1244_2518">
        <rect width="56.9907" height="51.563" fill="white" transform="translate(269.739 106.316)"/>
        </clipPath>
        <clipPath id="clip6_1244_2518">
        <rect width="63.8514" height="107.585" fill="white" transform="translate(47.6119 175.814) rotate(-15.0514)"/>
        </clipPath>
        <clipPath id="clip7_1244_2518">
        <rect width="26.94" height="38.6607" fill="white" transform="matrix(-1 0 0 1 80.3248 147.862)"/>
        </clipPath>
        <clipPath id="clip8_1244_2518">
        <rect width="38.8356" height="50.7312" fill="white" transform="matrix(-1 0 0 1 94.3197 121.621)"/>
        </clipPath>
        <clipPath id="clip9_1244_2518">
        <rect width="15.9191" height="29.6515" fill="white" transform="matrix(-1 0 0 1 54.9594 136.491)"/>
        </clipPath>
        <clipPath id="clip10_1244_2518">
        <rect width="55.4545" height="42.1594" fill="white" transform="matrix(-1 0 0 1 94.3197 112)"/>
        </clipPath>
        <clipPath id="clip11_1244_2518">
        <rect width="8.57183" height="11.7207" fill="white" transform="matrix(-1 0 0 1 54.9594 144.363)"/>
        </clipPath>
        </defs>
    <path fill-rule="evenodd" clip-rule="evenodd" d="M348.703 173.584C346.455 134.624 323.247 97.837 293.212 63.0683C263.255 28.2991 226.468 -4.52941 194.726 0.515189C172.942 3.97715 153.534 25.2398 131.41 49.4781C121.296 60.5586 110.614 72.261 98.8783 83.1689C87.6287 93.6482 75.4175 103.391 63.8046 112.656C36.8016 134.199 13.0334 153.162 12.1108 172.808C10.8629 197.843 46.9204 224.057 81.2454 249.01C85.333 251.982 89.3961 254.936 93.3686 257.868C98.7216 261.81 103.913 265.713 108.981 269.524C111.441 271.373 113.871 273.2 116.278 275H308.434C334.681 247.694 350.714 209.674 348.703 173.584Z" fill="#638BF0"/>
<path d="M335.971 178.117C329.307 178.283 314.909 180.864 314.909 180.864C314.826 187.898 316.744 262.455 317.034 273.671H358.154L372.722 189.076C372.722 187.637 372.438 186.212 371.888 184.882C371.337 183.552 370.53 182.344 369.512 181.327C368.494 180.309 367.286 179.502 365.957 178.951C364.627 178.401 363.202 178.117 361.763 178.117C361.763 178.117 344.065 178.374 337.193 178.117C336.824 178.105 336.415 178.106 335.971 178.117Z" fill="#DFE8F4"/>
<path fill-rule="evenodd" clip-rule="evenodd" d="M280.927 238.532C280.927 236.066 283.308 214.87 283.308 214.87L269.159 219.53L269.648 237.7L261.917 275H272.57C274.041 268.988 280.927 240.735 280.927 238.532Z" fill="#F0B69A"/>
<g clip-path="url(#clip0_1244_2518)">
<path d="M276.955 244.887C272.378 245.514 267.616 244.003 263.478 242.029C262.679 241.649 261.901 241.237 261.123 240.816C261.256 240.312 261.379 239.808 261.512 239.305C262.495 235.44 265.731 224.029 266.663 220.154C275.368 183.877 284.626 173.258 287.729 172.826C296.28 171.623 295.348 182.365 294.273 188.595C292.747 197.405 287.616 212.701 284.349 221.017C283.018 224.42 276.535 244.599 276.535 244.599C276.535 244.599 276.699 244.712 276.955 244.887Z" fill="#352C38"/>
<path fill-rule="evenodd" clip-rule="evenodd" d="M266.655 274C270.815 263.048 273.642 251.533 275.173 239.85C276.126 232.582 276.576 225.252 276.535 217.943C276.505 213.533 276.29 209.123 275.88 204.734C275.757 203.421 275.601 202.114 275.445 200.808C275.106 197.973 274.767 195.143 274.774 192.265C274.784 187.515 277.644 184.292 280.532 181.037C280.726 180.819 280.92 180.6 281.113 180.381C284.493 176.547 287.995 172.816 291.549 169.156C291.569 169.135 291.589 169.114 291.61 169.094C292.142 168.548 292.679 168 293.31 167.604C296.966 165.291 298.758 169.485 298.697 172.62C298.673 173.803 298.52 174.976 298.367 176.148C298.261 176.962 298.155 177.776 298.093 178.593C297.924 180.762 297.755 182.928 297.587 185.094C297.417 187.271 297.248 189.448 297.079 191.627C296.746 195.878 296.416 200.131 296.085 204.385C295.755 208.638 295.425 212.891 295.092 217.142C295.02 218.054 294.949 218.97 294.877 219.885C294.806 220.805 294.734 221.724 294.662 222.641L294.624 223.138C294.114 229.797 293.605 236.448 293.126 243.108C293.126 245.094 292.899 247.115 292.674 249.125C292.537 250.341 292.402 251.553 292.317 252.751C292.213 254.205 292.249 255.631 292.285 257.049C292.317 258.286 292.348 259.518 292.286 260.758C292.056 265.151 291.498 269.561 290.943 273.956C290.941 273.971 290.939 273.985 290.937 274H266.655Z" fill="#201923"/>
</g>
<path d="M270.62 129.922C270.722 127.053 271.919 124.296 273.874 122.176C274.744 121.238 275.738 120.446 276.846 119.821C277.433 119.497 278.032 119.207 278.665 118.984C279.218 118.794 279.953 118.749 280.145 118.113C280.19 117.957 280.145 117.745 280.021 117.633C279.467 117.153 278.744 117.566 278.168 117.812C277.501 118.091 276.868 118.426 276.258 118.805C275.06 119.575 273.964 120.524 273.083 121.651C271.23 124.006 270.394 126.964 270.507 129.91C270.507 130 270.609 130 270.62 129.922Z" fill="#6D2B29"/>
<path d="M271.795 131.216C271.467 135.145 272.145 139.129 273.614 142.835C273.998 143.806 274.484 144.81 275.456 145.391C278.54 147.221 280.71 143.371 282.246 141.708C284.676 139.085 286.201 135.87 286.517 132.589C286.8 129.721 287.794 126.819 287.885 123.962C287.952 121.863 285.873 119.832 283.998 118.638C282.495 117.678 280.393 117.209 278.608 117.901C277.106 118.47 276.1 119.709 275.298 120.948C273.196 124.185 272.089 127.678 271.795 131.216Z" fill="#6D2B29"/>
<path d="M307.633 149.04C307.633 149.04 306.804 154.102 306.74 155.689C306.542 158.343 307.665 174.45 308.069 177.203C306.483 178.969 295.013 180.591 293.728 179.584C293.748 177.37 292.621 165.94 292.189 164.354C283.596 163.243 276.86 152.912 276.86 140.332C276.854 137.812 276.071 135.716 276.523 131.645C276.976 128.479 276.976 125.313 279.69 123.051L285.57 123.504C288.001 131.355 301.163 140.066 306.57 140.693L305.983 141.622C306.748 140.086 308.113 139.067 309.676 139.067C312.057 139.067 314.016 141.479 314.016 144.462C314.016 147.445 312.072 149.857 309.676 149.857C309.096 149.845 308.526 149.704 308.006 149.445C307.487 149.185 307.032 148.814 306.673 148.358" fill="#F0B69A"/>
<g clip-path="url(#clip1_1244_2518)">
<path d="M284.385 154.481C284.185 156.57 285.994 158.514 287.792 158.88C290.055 159.352 292.704 158 293.592 155.705C294.375 153.666 292.262 151.304 290.3 152.658C289.61 153.137 288.856 154.028 287.99 154.125C287.092 154.22 286.133 153.769 285.226 153.741C284.849 153.756 284.43 154.093 284.385 154.481Z" fill="#212F47"/>
<path d="M293.579 155.711C293.636 155.557 293.679 155.409 293.703 155.254C290.714 154.591 288.748 157.113 287.773 158.873C287.779 158.887 287.779 158.887 287.792 158.881C290.042 159.358 292.704 158 293.579 155.711Z" fill="#F15E6B"/>
</g>
<path d="M331.25 265.78C329.386 258.065 326.25 247.422 323.962 238.747C321.892 230.843 313.405 226.072 315.596 218.369C318.054 209.753 316.826 199.623 319.283 191.007C320.204 187.795 326.746 181.487 326.601 178.181C321.44 173.05 320.082 174.745 313.613 169.187C307.801 168.251 302.484 163.671 297.726 167.131C293.889 169.916 281.043 182.561 279.724 186.283C278.198 190.585 278.537 192.73 278.997 195.254C280.983 205.92 283.077 233.711 282.835 234.979C282.617 236.069 281.406 258.183 277.956 264.891C277.048 266.645 284.312 269.501 299.676 270.639C323.211 272.369 331.42 266.491 331.25 265.78Z" fill="white"/>
<g clip-path="url(#clip2_1244_2518)">
<path d="M309.053 145.377C308.058 144.961 305.824 145.432 304.82 145.558C301.862 145.938 298.958 146.816 296.344 148.209C294.516 149.231 294.227 150.127 294.335 151.339C294.661 154.84 295.421 158.015 295.204 161.489C295.023 164.383 294.67 167.667 293.322 170.29C292.137 172.588 290.4 174.524 288.727 176.469C287.216 178.224 285.343 180.097 284.502 182.286C283.607 184.601 284.819 186.655 287.207 187.198C290.102 187.858 293.06 186.239 295.195 184.167C299.483 180.006 304.006 169.431 310.989 168.644C309.904 168.653 306.765 162.022 306.819 159.924C306.928 155.102 308.484 150.172 309.053 145.377Z" fill="#F0B69A"/>
</g>
<path d="M329.973 185.487C327.268 183.465 324.878 180.868 322.026 179.071C320.463 178.085 318.506 177.333 316.617 177.352C314.356 177.382 313.736 179.159 313.647 181.073C313.441 185.662 315.054 190.711 316.027 195.183C318.565 206.853 321.594 218.874 328.694 228.736C328.901 229.019 329.107 229.303 329.314 229.576C329.107 224.928 329.304 221.227 330.484 216.579C331.822 211.345 333.385 206.179 334.438 200.867C335.146 197.322 335.578 193.709 335.598 190.086C333.857 188.426 331.92 186.951 329.973 185.487Z" fill="#201923"/>
<path fill-rule="evenodd" clip-rule="evenodd" d="M306.881 219.137C306.832 218.19 306.773 217.243 306.714 216.296C305.888 203.269 305.308 191.18 307.658 178.387C308.484 173.915 309.625 172.157 313.234 169.462C317.688 166.12 320.144 167.832 323.801 170.382C324.375 170.783 324.98 171.204 325.626 171.63C329.333 174.081 333.975 177.177 334.959 182.01C336.237 188.279 335.775 194.695 334.546 200.876C333.817 204.555 332.843 208.164 331.869 211.773C331.436 213.376 331.004 214.979 330.592 216.588C329.324 221.569 329.186 225.455 329.471 230.611C329.786 236.138 330.386 241.656 331.281 247.134C331.402 247.902 334.197 259.306 336.473 268.592C337.045 270.93 337.586 273.134 338.042 275H309.775C309.431 268.383 309.041 260.788 308.652 253.192C307.985 240.212 307.319 227.232 306.881 219.137Z" fill="#352C38"/>
<path fill-rule="evenodd" clip-rule="evenodd" d="M317.911 191.965C315.221 188.035 316.519 182.625 320.671 180.282L320.718 180.258C323.186 178.859 326.227 178.777 328.695 180.165C337.468 185.074 363.388 215.296 368.336 222.269C369.28 223.604 369.892 224.412 370.304 224.956C370.943 225.799 371.101 226.007 371.271 226.56C371.868 228.484 372.643 232.231 370.678 234.773C364.751 242.424 352.67 259.754 345.096 270.618C343.965 272.241 342.934 273.72 342.04 275H332.658L329.771 272.524C332.366 271.58 339.061 258.94 344.77 248.162C346.963 244.021 349.01 240.156 350.624 237.334C351.104 236.494 351.758 235.578 352.424 234.644C353.932 232.531 355.503 230.33 355.267 228.729C347.349 220.345 341.117 214.597 333.713 207.846C332.569 206.805 331.402 205.779 330.232 204.751C325.793 200.849 321.318 196.917 317.958 192.035C317.952 192.023 317.943 192.011 317.934 192C317.926 191.988 317.917 191.977 317.911 191.965Z" fill="#F0B69A"/>
<path d="M351.322 231.329C351.322 231.329 349.65 235.049 349.065 234.874C352.726 239.037 361.473 242.838 367.45 244.342C369.473 240.541 373.532 233.043 374.795 228.927C375.275 227.365 374.817 225.044 374.396 223.458C373.94 221.744 371.739 218.258 370.581 216.998C369.189 215.494 367.716 214.06 366.265 212.603C363.06 209.396 359.82 206.224 356.651 202.971C327.105 172.585 319.326 172.131 316.016 173.495C306.916 177.273 313.653 192.804 318.32 198.273C324.917 206.003 328.49 212.662 336.526 218.9C339.801 221.453 351.322 231.329 351.322 231.329Z" fill="#352C38"/>
<path d="M294.164 140.691C294.164 141.691 293.353 142.501 292.354 142.501C291.355 142.501 290.545 141.691 290.545 140.691C290.545 139.692 291.355 138.882 292.354 138.882C293.353 138.882 294.164 139.692 294.164 140.691Z" fill="#823F1F"/>
<path d="M281.499 141.596C281.499 142.595 280.689 143.405 279.69 143.405C278.69 143.405 277.88 142.595 277.88 141.596C277.88 140.597 278.69 139.787 279.69 139.787C280.689 139.787 281.499 140.597 281.499 141.596Z" fill="#823F1F"/>
<path fill-rule="evenodd" clip-rule="evenodd" d="M286.022 145.119C286.574 145.119 287.022 145.567 287.022 146.119C287.022 146.91 287.369 147.861 288.086 148.578C288.477 148.969 288.477 149.602 288.086 149.992C287.695 150.383 287.062 150.383 286.672 149.992C285.579 148.9 285.022 147.439 285.022 146.119C285.022 145.567 285.47 145.119 286.022 145.119Z" fill="#D38C6A"/>
<g clip-path="url(#clip3_1244_2518)">
<path d="M305.019 141.058C305.019 141.058 309.855 134.381 314.369 138.258C318.884 142.134 312.65 151.934 306.416 151.611" fill="#F0B69A"/>
<path d="M312.005 152.365C312.005 150.858 310.715 148.058 309.21 148.058C307.706 148.058 306.416 150.858 306.416 152.365C306.416 153.873 307.706 155.165 309.21 155.165C310.715 155.165 312.005 153.981 312.005 152.365Z" fill="#FFE779"/>
<path d="M312.757 142.781C312.327 142.565 312.005 142.242 311.682 142.134C311.36 141.919 311.038 142.027 310.93 142.134C310.823 142.134 310.823 142.242 310.715 142.35C310.608 142.458 310.5 142.565 310.5 142.673C310.393 142.888 310.393 143.104 310.285 143.427C310.178 144.073 310.285 144.934 310.07 145.904C309.963 146.442 309.64 146.981 309.103 147.304C308.566 147.627 308.028 147.411 307.598 147.304C308.028 147.088 308.351 146.873 308.458 146.55C308.566 146.334 308.566 146.011 308.566 145.688C308.566 145.042 308.351 144.181 308.458 143.211C308.458 142.673 308.673 142.134 309.103 141.596C309.318 141.381 309.533 141.165 309.748 140.95C310.07 140.842 310.393 140.627 310.715 140.627C311.468 140.627 312.005 141.058 312.22 141.488C312.65 141.919 312.757 142.35 312.757 142.781Z" fill="#22272E"/>
</g>
<g clip-path="url(#clip4_1244_2518)">
<path fill-rule="evenodd" clip-rule="evenodd" d="M279.901 136.911C279.308 137.003 278.913 137.316 278.756 137.511C278.41 137.942 277.78 138.011 277.35 137.665C276.919 137.319 276.85 136.69 277.196 136.259C277.645 135.7 278.477 135.107 279.596 134.935C280.747 134.757 282.104 135.038 283.556 136.07C284.006 136.391 284.111 137.015 283.791 137.465C283.47 137.915 282.846 138.02 282.396 137.7C281.302 136.922 280.462 136.825 279.901 136.911Z" fill="#893530"/>
<path fill-rule="evenodd" clip-rule="evenodd" d="M292.901 136.911C292.308 137.003 291.913 137.316 291.756 137.511C291.41 137.942 290.78 138.011 290.35 137.665C289.919 137.319 289.85 136.69 290.196 136.259C290.645 135.7 291.477 135.107 292.596 134.935C293.747 134.757 295.104 135.038 296.556 136.07C297.006 136.391 297.111 137.015 296.791 137.465C296.47 137.915 295.846 138.02 295.396 137.7C294.302 136.922 293.462 136.825 292.901 136.911Z" fill="#893530"/>
</g>
<g clip-path="url(#clip5_1244_2518)">
<path d="M288.314 132.253C289.851 135.265 291.331 138.309 293.647 140.888C295.861 143.344 298.946 145.388 302.166 146.322C304.369 146.966 307.77 148.378 309.047 150.4C309.454 151.045 310.471 157.568 309.612 157.879C315.25 155.912 319.871 151.678 324.221 147.811C323.464 143.721 322.719 139.643 321.962 135.554C321.024 130.497 320.075 125.385 317.894 120.718C315.058 114.651 309.974 109.439 303.545 107.305C297.884 105.416 291.139 106.205 286.371 109.872C282.45 112.884 277.671 118.873 279.84 124.052C282.631 121.829 286.099 128.064 287.331 130.364C287.67 130.986 287.986 131.62 288.314 132.253Z" fill="#893530"/>
<path d="M310.798 147.144C304.9 149.522 297.782 148.4 293.105 144.088C290.879 142.032 289.376 139.432 288.574 136.543C287.704 133.376 287.512 130.075 286.563 126.93C285.681 123.985 284.145 121.152 281.444 119.473C280.845 119.096 280.281 120.04 280.879 120.418C286.698 124.019 285.964 131.998 287.806 137.654C289.625 143.266 294.46 147.766 300.404 148.856C303.963 149.511 307.623 148.867 310.798 147.178C310.821 147.166 310.81 147.144 310.798 147.144Z" fill="#893530"/>
<path d="M286.71 107.705C284.156 109.383 282.088 111.606 280.834 114.384C279.614 117.073 279.038 120.24 279.964 123.096C280.009 123.252 280.258 123.23 280.258 123.052C280.19 120.207 280.416 117.418 281.456 114.739C282.506 112.028 284.326 109.461 286.755 107.783C286.823 107.75 286.766 107.661 286.71 107.705Z" fill="#893530"/>
<path d="M325.995 146.422C324.877 142.277 323.532 138.21 322.131 134.153C320.753 130.175 319.498 126.074 317.645 122.285C317.555 122.096 317.284 122.241 317.318 122.418C318.244 126.586 319.871 130.631 321.306 134.653C322.719 138.632 324.21 142.577 325.893 146.455C325.927 146.522 326.006 146.477 325.995 146.422Z" fill="#893530"/>
</g>
<path d="M18.266 175.941C16.8269 175.941 15.4018 176.224 14.0722 176.775C12.7426 177.326 11.5346 178.133 10.517 179.151C9.49936 180.168 8.69217 181.377 8.14149 182.706C7.59081 184.036 7.30742 185.461 7.3075 186.9C7.3075 186.9 15.1905 250.727 18.0645 273.993H77.3178C77.3124 270.239 77.1972 191.071 76.5903 175.941H18.266Z" fill="#DFE8F4"/>
<path d="M266.384 55.1286V74.3883H266.505V94.9486L252.14 79.5891H210.834V55.1286H266.384Z" fill="#EAF0F8"/>
<path d="M140.644 88.0453V107.305H140.523V127.865L154.889 112.506H196.196V88.0453H140.644Z" fill="#EAF0F8"/>
<path fill-rule="evenodd" clip-rule="evenodd" d="M143.801 93.0092C143.801 92.4569 144.249 92.0092 144.801 92.0092H185.239C185.792 92.0092 186.239 92.4569 186.239 93.0092C186.239 93.5614 185.792 94.0092 185.239 94.0092H144.801C144.249 94.0092 143.801 93.5614 143.801 93.0092Z" fill="#BAC4D2"/>
<path fill-rule="evenodd" clip-rule="evenodd" d="M143.801 102.566C143.801 102.013 144.249 101.566 144.801 101.566H158.918C159.47 101.566 159.918 102.013 159.918 102.566C159.918 103.118 159.47 103.566 158.918 103.566H144.801C144.249 103.566 143.801 103.118 143.801 102.566Z" fill="#BAC4D2"/>
<path fill-rule="evenodd" clip-rule="evenodd" d="M216.052 60.2927C216.052 59.7404 216.5 59.2927 217.052 59.2927H257.488C258.04 59.2927 258.488 59.7404 258.488 60.2927C258.488 60.845 258.04 61.2927 257.488 61.2927H217.052C216.5 61.2927 216.052 60.845 216.052 60.2927Z" fill="#BAC4D2"/>
<path fill-rule="evenodd" clip-rule="evenodd" d="M216.308 69.8492C216.308 69.2969 216.755 68.8492 217.308 68.8492H231.424C231.977 68.8492 232.424 69.2969 232.424 69.8492C232.424 70.4015 231.977 70.8492 231.424 70.8492H217.308C216.755 70.8492 216.308 70.4015 216.308 69.8492Z" fill="#BAC4D2"/>
<path d="M103.387 227.02C110.851 237.185 121.609 244.155 128.315 239.807C134.088 236.046 139.977 208.312 141.902 198.616C142.31 196.501 142.543 195.267 142.543 195.267L143.184 192.388C143.184 192.388 149.366 191.389 150.882 190.919C152.456 190.449 154.089 189.567 155.313 187.335C157.821 184.867 165.256 181.253 162.195 180.225C160.008 179.49 152.514 185.454 152.514 185.454C152.514 185.454 148.841 185.572 143.243 184.867C137.645 184.162 134.788 184.162 133.038 186.512C132.047 187.805 131.464 190.096 131.464 190.096L130.181 193.563L121.434 217.008C121.434 217.008 117.353 226.505 116.711 225.271C110.472 228.855 107.177 221.497 103.387 227.02Z" fill="#DE8E68"/>
<path d="M160.623 187.597C160.623 187.597 164.136 185.032 166 183.853C167.864 182.675 164.781 181.358 161.985 182.467C159.189 183.576 154.314 185.171 154.314 185.171C154.314 185.171 157.325 182.398 158.114 181.427C158.902 180.457 156.895 179.625 154.959 180.804C152.952 182.051 149.726 184.893 147.432 185.864C145.138 186.834 145.209 189.33 146.356 189.745C147.432 190.161 156.25 189.26 160.623 187.597Z" fill="#DE8E68"/>
<path d="M134.205 185.473C134.205 185.473 137.982 182.968 139.818 182.147C141.654 181.325 144.576 180.32 145.41 180.229C146.161 180.137 147.58 181.69 144.826 184.156C142.072 186.622 140.486 188.083 140.486 188.083C140.486 188.083 132.87 188.487 134.205 185.473Z" fill="#DE8E68"/>
<path d="M52.2182 177.601C63.5889 171.041 76.7091 175.56 81.9572 178.038L74.1647 185.122C70.3872 188.556 64.6293 188.593 60.8077 185.209L52.2182 177.601Z" fill="#DE8E68"/>
<path fill-rule="evenodd" clip-rule="evenodd" d="M42.3776 183.17L49.3614 177.163L75.1794 179.233L86.0978 177.163L99.3198 275H56.3261L42.3776 183.17Z" fill="white"/>
<path fill-rule="evenodd" clip-rule="evenodd" d="M23.5583 275V232.268L45.8626 204.278L56.7961 257.634C59.7696 263.209 61.2294 269.566 61.7917 275H23.5583Z" fill="#377FED"/>
<g clip-path="url(#clip6_1244_2518)">
<path d="M64.9711 190.172L66.7669 196.451L72.6458 196.19L73.9309 188.648L69.6698 183.458L64.9711 190.172Z" fill="url(#paint0_linear_1244_2518)"/>
<path opacity="0.1" d="M49.7307 183.693C49.7307 183.693 61.1641 197.217 62.2246 196.976C63.918 196.591 69.7788 185.44 69.8755 185.467C70.5341 185.651 75.2769 195.13 76.1187 195.185C76.9606 195.241 83.4736 174.539 83.4736 174.539L69.6514 182.902L49.7307 183.693Z" fill="#3E3566"/>
<path d="M52.86 174.102C52.86 174.102 51.69 174.088 49.7308 176.726C47.2329 180.09 50.2098 184.384 53.3848 187.118L61.9359 194.481C61.9359 194.481 64.0568 192.111 65.9953 189.441C67.9346 186.774 69.6915 183.805 69.6915 183.805L75.6016 193.04L83.911 174.102L83.3997 173.949C80.8673 173.189 78.1825 173.091 75.6016 173.665C75.6016 173.665 75.6016 178.913 72.8813 180.748C71.4292 182.053 69.6452 182.9 69.6452 182.9C69.6452 182.9 62.4381 182.23 59.4201 179.787C56.3993 177.345 52.86 174.102 52.86 174.102Z" fill="white"/>
</g>
<path fill-rule="evenodd" clip-rule="evenodd" d="M82.5992 174.102C89.1592 178.038 103.067 187.31 106.215 192.908C108.548 198.156 113.3 208.914 117.149 220.46L125.021 199.03L141.64 210.838C139.453 227.749 131.056 258.946 114.962 248.45C111.026 246.263 101.58 239.878 95.282 231.831C95.6992 242.122 97.8678 264.461 103.231 275H77.8948C77.1839 269.602 76.6618 263.547 76.9138 258.508C77.4165 248.453 81.2871 178.038 82.5992 174.102Z" fill="#3B85F7"/>
<path opacity="0.08" d="M88.7482 178.127L92.4408 194.956L86.6144 195.914L92.6108 205.219C92.6108 205.219 91.9903 213.419 88.0323 228.544C84.0714 243.67 76.7729 265.721 76.7729 265.721L83.1806 191.182L88.7482 178.127Z" fill="#285BD4"/>
<path d="M82.4472 173.834C82.4472 173.834 78.5894 197.781 77.1827 220.714C75.7731 243.647 77.0086 266.528 77.0086 266.528C77.0086 266.528 81.2504 251.087 84.8767 235.379C88.5026 219.669 91.513 203.693 91.513 203.693C91.513 203.693 89.7936 201.277 88.6546 199.288C87.5153 197.296 86.9565 195.731 86.9565 195.731L91.0683 194.607L88.7794 177.788L82.4472 173.834Z" fill="#A9D6FF"/>
<path d="M77.0482 266.829C77.0095 266.835 76.9664 266.831 76.9255 266.822C76.7641 266.777 76.6704 266.609 76.7144 266.447C76.7566 266.294 80.9959 250.834 84.5812 235.311C87.9938 220.523 90.8991 205.311 91.1914 203.763C90.8453 203.272 89.3907 201.181 88.3902 199.439C87.2508 197.447 86.6911 195.897 86.6698 195.833C86.6405 195.754 86.646 195.664 86.687 195.588C86.7249 195.512 86.7931 195.456 86.8753 195.436L90.7294 194.382L88.5357 178.258C88.5123 178.093 88.6274 177.938 88.7914 177.915C88.9584 177.892 89.1117 178.008 89.1325 178.177L91.3606 194.566C91.3819 194.716 91.2868 194.861 91.1403 194.9L87.3536 195.935C87.5711 196.484 88.093 197.702 88.91 199.135C90.0289 201.09 91.7372 203.493 91.7526 203.515C91.8015 203.582 91.8198 203.668 91.804 203.75C91.775 203.911 88.7501 219.913 85.1635 235.449C81.5769 250.985 77.3334 266.458 77.2911 266.611C77.2626 266.731 77.1616 266.813 77.0482 266.829Z" fill="#69A6FF"/>
<path d="M66.8916 196.226C66.8916 196.226 56.1769 223.737 79.4723 253.2C93.0877 270.421 116.284 268.754 116.284 268.754L125.193 261.881L134.866 254.418C134.866 254.418 131.809 254.428 128.639 253.394C125.469 252.362 122.179 250.286 122.179 250.286C122.179 250.286 100.155 248.25 87.4834 234.783C71.6522 217.959 72.5502 196.201 72.5502 196.201L66.8916 196.226Z" fill="url(#paint1_linear_1244_2518)"/>
<path fill-rule="evenodd" clip-rule="evenodd" d="M43.2387 178.038C37.8449 179.204 26.1825 183.461 22.6838 191.158C21.8495 192.994 20.681 195.402 19.3362 198.174C13.6312 209.932 4.75293 228.231 4.75293 237.079C4.75293 243.807 12.8614 261.49 19.7224 275H41.5747L46.7374 271.628C42.2182 261.278 33.2674 239.878 33.6172 237.079C33.9671 234.28 45.7169 214.629 51.5481 205.153L43.2387 178.038Z" fill="#3B85F7"/>
<path opacity="0.08" d="M42.0454 181.284L38.1046 195.605L46.4226 194.141L39.1106 205.124C39.1106 205.124 40.6488 217.814 45.071 230.97C49.4906 244.128 56.7937 257.75 56.7937 257.75L48.2939 192.139L42.0454 181.284Z" fill="#285BD4"/>
<path d="M51.28 175.182L42.4053 178.268L39.6434 194.7L45.1945 194.554C45.1945 194.554 44.2444 196.77 42.9976 198.82C41.7533 200.87 40.212 202.75 40.212 202.75C40.212 202.75 41.0392 212.197 45.1619 226.088C49.2821 239.98 56.7576 258.615 56.7576 258.615C56.7576 258.615 59.1175 236.413 56.5304 209.873C54.5065 189.143 51.28 175.182 51.28 175.182Z" fill="#A9D6FF"/>
<path d="M56.4466 257.858C56.334 257.874 56.2203 257.81 56.1767 257.701C54.9402 254.604 48.5877 238.534 44.917 226.161C40.8365 212.406 39.9656 202.867 39.9575 202.773C39.9507 202.707 39.9718 202.64 40.0154 202.587C40.0308 202.57 41.5603 200.696 42.7821 198.686C43.7081 197.165 44.4754 195.533 44.798 194.818L39.6512 194.954C39.5751 194.957 39.5014 194.924 39.4525 194.866C39.4035 194.809 39.38 194.732 39.3946 194.656L42.0946 178.58C42.1182 178.44 42.248 178.347 42.3867 178.371C42.5254 178.395 42.6179 178.526 42.5943 178.666L39.9456 194.436L45.1864 194.298C45.2729 194.296 45.3555 194.338 45.4041 194.411C45.4527 194.484 45.4605 194.575 45.4258 194.655C45.4161 194.677 44.4535 196.913 43.2131 198.954C42.1197 200.753 40.784 202.445 40.4736 202.831C40.578 203.895 41.5644 213.077 45.4043 226.015C49.0692 238.366 55.4114 254.417 56.6472 257.508C56.699 257.64 56.6357 257.788 56.5077 257.839C56.4862 257.85 56.4666 257.855 56.4466 257.858Z" fill="#69A6FF"/>
<g clip-path="url(#clip7_1244_2518)">
<path d="M74.2728 161.396C74.2728 161.396 75.0852 169.467 75.6022 172.545C76.1192 175.624 75.6022 181.537 68.1427 184.193C59.7699 185.91 55.7572 180.662 53.6668 176.289C53.1498 175.207 53.1498 171.796 53.2237 170.631C53.4453 166.971 53.8884 157.985 53.6668 150.663C53.3714 141.344 74.2728 154.823 74.2728 161.396Z" fill="#DE8E68"/>
</g>
<g clip-path="url(#clip8_1244_2518)">
<path d="M88.4593 137.978C88.4593 137.978 88.1969 144.101 89.334 151.098C90.4711 158.095 91.2583 168.592 80.8497 171.478C70.441 174.364 58.1955 170.428 54.347 156.084C50.4984 141.739 47.6994 127.219 60.9945 123.021C74.2896 118.822 90.0338 124.245 88.4593 137.978Z" fill="#DE8E68"/>
</g>
<path d="M71.5781 143.488C71.5781 144.455 72.3613 145.238 73.3274 145.238C74.2936 145.238 75.0768 144.455 75.0768 143.488C75.0768 142.522 74.2936 141.739 73.3274 141.739C72.3613 141.739 71.5781 142.522 71.5781 143.488Z" fill="#823F1F"/>
<path d="M84.6983 142.614C84.6983 143.58 85.4815 144.363 86.4477 144.363C87.4138 144.363 88.197 143.58 88.197 142.614C88.197 141.648 87.4138 140.864 86.4477 140.864C85.4815 140.864 84.6983 141.648 84.6983 142.614Z" fill="#823F1F"/>
<path fill-rule="evenodd" clip-rule="evenodd" d="M84.6984 148.611C84.1461 148.611 83.6984 149.059 83.6984 149.611C83.6984 150.367 83.366 151.279 82.6792 151.965C82.2887 152.356 82.2887 152.989 82.6792 153.38C83.0697 153.77 83.7029 153.77 84.0934 153.38C85.156 152.317 85.6984 150.896 85.6984 149.611C85.6984 149.059 85.2506 148.611 84.6984 148.611Z" fill="#B76640"/>
<g clip-path="url(#clip9_1244_2518)">
<path d="M39.04 137.541C39.04 137.541 39.04 144.626 43.151 151.623C47.262 158.62 52.2476 162.294 53.9095 165.443C55.5714 168.592 55.134 160.37 53.9095 156.434C52.6849 152.585 45.4251 131.505 39.04 137.541Z" fill="#22272E"/>
</g>
<g clip-path="url(#clip10_1244_2518)">
<path d="M52.8602 147.687C52.8602 147.687 54.1722 145.675 54.7845 141.652C55.3093 137.628 59.5952 137.89 61.607 130.456C63.6187 123.021 68.5169 132.205 76.3015 135.529C84.0862 138.853 90.2089 133.517 93.3577 127.569C96.4191 121.709 91.171 116.373 87.5849 113.924C83.9987 111.475 80.2376 115.411 73.2402 113.662C66.2428 111.913 54.9594 109.726 49.5364 117.598C44.1134 125.47 38.5155 127.394 38.8654 135.966C39.3027 144.538 49.274 154.072 49.8863 154.159C50.5861 154.334 52.8602 147.687 52.8602 147.687Z" fill="#22272E"/>
<path d="M51.4606 147.424C51.4606 148.632 52.4396 149.611 53.6473 149.611C54.855 149.611 55.834 148.632 55.834 147.424C55.834 146.217 54.855 145.238 53.6473 145.238C52.4396 145.238 51.4606 146.217 51.4606 147.424Z" fill="#DE8E68"/>
<path fill-rule="evenodd" clip-rule="evenodd" d="M72.3165 138.396C71.0678 138.534 69.9993 138.864 69.4291 139.108C68.9213 139.325 68.3336 139.09 68.1163 138.582C67.899 138.075 68.1344 137.487 68.6421 137.269C69.3919 136.949 70.6513 136.568 72.0966 136.408C73.5399 136.248 75.2464 136.3 76.8397 136.923C77.3541 137.124 77.6081 137.704 77.4071 138.218C77.206 138.733 76.626 138.987 76.1117 138.786C74.9208 138.32 73.5673 138.257 72.3165 138.396Z" fill="#22272E"/>
<path fill-rule="evenodd" clip-rule="evenodd" d="M85.9245 137.6C84.6908 137.837 83.652 138.251 83.1031 138.54C82.6143 138.797 82.0096 138.609 81.7525 138.121C81.4954 137.632 81.6832 137.027 82.172 136.77C82.8937 136.39 84.1188 135.91 85.5467 135.636C86.9726 135.361 88.6779 135.277 90.3158 135.771C90.8446 135.93 91.1441 136.488 90.9847 137.017C90.8253 137.546 90.2674 137.845 89.7387 137.686C88.5145 137.317 87.1602 137.362 85.9245 137.6Z" fill="#22272E"/>
</g>
<path d="M89.3665 155.476C89.3665 155.476 89.454 156.525 87.967 156.788C86.4801 156.963 86.3051 154.776 83.7686 154.426C82.1942 154.251 76.6837 154.688 74.4095 156.788C72.1354 158.887 68.9866 161.336 64.4382 159.936C59.8899 158.537 57.1784 152.152 56.3037 142.88C55.5165 134.396 52.3677 142.618 52.3677 144.63C52.3677 146.029 53.6797 144.017 55.2541 149.703C55.9539 152.239 55.2541 159.412 57.9656 164.66C60.0649 168.683 65.9252 172.794 73.3599 173.319C80.7947 173.844 86.9174 170.782 88.7542 165.884C90.5911 161.161 89.8913 155.825 89.3665 155.476Z" fill="#22272E"/>
<path fill-rule="evenodd" clip-rule="evenodd" d="M84.6219 160.38C84.2892 159.939 83.6622 159.851 83.2213 160.184C82.5274 160.707 80.7713 161.386 79.178 160.184C78.7371 159.851 78.1101 159.939 77.7774 160.38C77.4447 160.82 77.5324 161.447 77.9733 161.78C80.5784 163.746 83.3706 162.577 84.426 161.78C84.8669 161.447 84.9546 160.82 84.6219 160.38Z" fill="#D38C6A"/>
<g clip-path="url(#clip11_1244_2518)">
<path d="M54.9594 149.086C54.9594 149.086 52.5977 143.838 48.4867 144.45C44.2883 145.15 46.3875 156.171 53.9972 156.083" fill="#DE8E68"/>
<path d="M48.7491 148.387C49.0115 148.124 49.274 147.862 49.4489 147.774C49.7113 147.687 49.6238 147.862 49.7988 147.949C49.7988 148.037 49.9737 148.736 50.0612 149.349C50.1486 149.961 50.3236 150.661 50.6734 151.273C50.8484 151.623 51.0233 151.973 51.3732 152.235C51.723 152.498 52.1604 152.585 52.5103 152.41C52.1604 152.235 52.0729 151.973 51.9854 151.71C51.898 151.448 51.898 151.186 51.8105 150.923C51.723 150.311 51.723 149.699 51.5481 148.999C51.4606 148.649 51.3732 148.299 51.2857 147.949C51.1982 147.774 51.1108 147.599 51.0233 147.424C50.9358 147.337 50.9358 147.249 50.7609 147.162C50.6734 147.075 50.4985 146.987 50.411 146.9C50.2361 146.812 49.9737 146.725 49.6238 146.725C49.274 146.812 49.099 146.987 48.9241 147.162C48.6617 147.599 48.6617 148.037 48.7491 148.387Z" fill="#22272E"/>
</g>
<path fill-rule="evenodd" clip-rule="evenodd" d="M8.67542 273.872C8.67542 273.32 9.12313 272.872 9.67542 272.872H373.506C374.058 272.872 374.506 273.32 374.506 273.872C374.506 274.424 374.058 274.872 373.506 274.872H9.67542C9.12313 274.872 8.67542 274.424 8.67542 273.872Z" fill="#EAF0F8"/>

</svg>
