<svg width="233" height="217" viewBox="0 0 233 217" fill="none" xmlns="http://www.w3.org/2000/svg">
<path d="M116.418 6.43109C58.816 6.43109 12.1211 53.1271 12.1211 110.729C12.1211 168.33 58.816 215.026 116.418 215.026C174.02 215.026 220.715 168.332 220.715 110.729C220.715 53.1256 174.02 6.43109 116.418 6.43109Z" fill="#EAF0FF" stroke="#F1C454" stroke-width="3"/>
<path fill-rule="evenodd" clip-rule="evenodd" d="M20.4417 146.738C23.3343 144.068 33.4835 134.752 35.5841 133.803C37.6847 132.853 62.0459 160.03 59.6398 161.974C57.2336 163.919 44.4995 175.646 39.7106 178.628C30.1446 168.217 23.4933 156.26 20.4417 146.738Z" fill="#FFCFC9"/>
<path fill-rule="evenodd" clip-rule="evenodd" d="M83.5485 116.042C97.5075 137.272 63.2255 163.916 57.978 165.446C52.7306 166.977 30.1362 136.022 31.7723 131.945C33.4083 127.869 66.6918 90.4039 83.5485 116.042Z" fill="#3CADC9"/>
<path fill-rule="evenodd" clip-rule="evenodd" d="M111.596 98.0349C95.8734 97.9403 80.4027 100.966 72.7776 106.889C60.3952 116.511 52.1598 175.989 55.7111 193.688C72.7212 206.157 93.7047 213.524 116.411 213.524C134.337 213.524 151.187 208.93 165.859 200.864C168.457 178.764 162.054 115.585 151.929 107.899C143.295 101.345 127.32 98.1294 111.596 98.0349Z" fill="#47B8D3"/>
<path fill-rule="evenodd" clip-rule="evenodd" d="M177.67 194.198C175.48 192.007 160.379 171.411 158.677 169.473C156.976 167.534 189.262 140.762 191.247 143.103C193.233 145.444 201.194 156.584 204.905 162.71C201.923 168.086 185.429 188.903 177.67 194.198Z" fill="#FFCFC9"/>
<path fill-rule="evenodd" clip-rule="evenodd" d="M142.977 104.736C159.28 93.5492 198.629 131.969 198.531 143.422C198.433 154.875 163.447 175.686 157.619 172.68C151.195 169.371 117.96 121.891 142.977 104.736Z" fill="#3CADC9"/>
<path fill-rule="evenodd" clip-rule="evenodd" d="M204.78 127.838C204.881 124.884 210.636 123.686 217.635 125.161C224.633 126.636 230.225 130.226 230.125 133.178C230.024 136.131 224.268 137.329 217.269 135.854C210.27 134.379 204.676 130.79 204.78 127.838Z" fill="#FFCFC9"/>
<path fill-rule="evenodd" clip-rule="evenodd" d="M206.855 116.54C206.956 113.587 212.712 112.389 219.711 113.864C226.709 115.339 232.302 118.928 232.201 121.881C232.1 124.834 226.344 126.032 219.345 124.557C212.346 123.082 206.758 119.493 206.855 116.54Z" fill="#FFCFC9"/>
<path fill-rule="evenodd" clip-rule="evenodd" d="M206.587 104.865C206.688 101.912 212.443 100.714 219.443 102.188C226.442 103.663 232.033 107.253 231.932 110.205C231.831 113.158 226.075 114.357 219.076 112.882C212.078 111.407 206.486 107.818 206.587 104.865Z" fill="#FFCFC9"/>
<path fill-rule="evenodd" clip-rule="evenodd" d="M0.278694 109.151C0.379806 106.198 6.13586 105 13.1346 106.475C20.1333 107.95 25.7252 111.539 25.6241 114.493C25.523 117.446 19.7677 118.643 12.7682 117.168C5.76878 115.694 0.177582 112.104 0.278694 109.151Z" fill="#FFCFC9"/>
<path fill-rule="evenodd" clip-rule="evenodd" d="M2.35657 97.854C2.45769 94.9013 8.21371 93.7034 15.2124 95.1783C22.2111 96.6531 27.803 100.243 27.7018 103.197C27.6007 106.152 21.8454 107.348 14.8468 105.873C7.8481 104.398 2.25546 100.807 2.35657 97.854Z" fill="#FFCFC9"/>
<path fill-rule="evenodd" clip-rule="evenodd" d="M2.08849 86.1781C2.1896 83.2254 7.94569 82.0275 14.9444 83.5024C21.9432 84.9772 27.5351 88.5666 27.434 91.5192C27.3329 94.4719 21.5776 95.6698 14.5788 94.1949C7.58007 92.72 1.98811 89.1292 2.08849 86.1781Z" fill="#FFCFC9"/>
<path fill-rule="evenodd" clip-rule="evenodd" d="M127.325 75.4463C126.659 79.2372 123.589 94.5014 125.942 111.047C123.228 113.099 107.4 114.581 103.046 111.047C103.2 104.336 103.353 90.9156 102.739 87.4837C102.125 84.0517 127.994 71.6561 127.325 75.4463Z" fill="#FAB6AD"/>
<path fill-rule="evenodd" clip-rule="evenodd" d="M75.6367 53.4816C77.1431 35.0013 91.012 21.0308 106.613 22.2771C122.214 23.5235 133.641 39.5148 132.134 57.9951C130.627 76.4754 116.759 90.4488 101.158 89.2032C85.5565 87.9576 74.1295 71.9619 75.6367 53.4816Z" fill="#FFCFC9"/>
<path fill-rule="evenodd" clip-rule="evenodd" d="M102.065 50.7319C102.28 48.7346 103.187 47.1944 104.091 47.2919C104.995 47.3893 105.553 49.0885 105.337 51.0851C105.121 53.0817 104.213 54.6226 103.31 54.5244C102.407 54.4262 101.848 52.7285 102.065 50.7319Z" fill="#D98378"/>
<path d="M88.6326 57.4053C87.9153 60.4973 85.9274 64.0303 83.5535 65.9045L88.6326 57.4053Z" fill="#D98378"/>
<path d="M88.6326 57.4053C87.9153 60.4973 85.9274 64.0303 83.5535 65.9045" stroke="#D98378" stroke-width="2" stroke-linecap="round" stroke-linejoin="round"/>
<path d="M96.4302 72.6454C96.4302 71.9957 96.6228 71.3606 96.9837 70.8204C97.3446 70.2803 97.8575 69.8592 98.4577 69.6106C99.0578 69.362 99.7182 69.2969 100.355 69.4237C100.992 69.5504 101.578 69.8633 102.037 70.3227C102.496 70.7821 102.809 71.3674 102.936 72.0045C103.062 72.6417 102.997 73.3022 102.749 73.9024C102.5 74.5027 102.079 75.0157 101.539 75.3766C100.999 75.7376 100.364 75.9302 99.7145 75.9302C98.8435 75.93 98.0082 75.5839 97.3924 74.9679C96.7765 74.3519 96.4304 73.5165 96.4302 72.6454Z" fill="#F79A8E" stroke="#F79A8E" stroke-width="2" stroke-linecap="round" stroke-linejoin="round"/>
<path fill-rule="evenodd" clip-rule="evenodd" d="M123.898 58.5218C121.914 58.3804 116.221 50.2577 122.061 44.6738C119.196 41.8822 102.339 29.2644 82.087 37.0896C79.456 34.4138 72.2742 23.6548 78.4735 19.0161C84.6727 14.3774 87.262 19.987 88.065 22.2166C86.1923 16.3301 87.2466 0.496444 103.012 0.321329C118.777 0.146214 135.727 46.2095 135.042 54.4758C134.357 62.7421 134.322 63.8587 123.898 58.5218Z" fill="#FB5D64"/>
<path fill-rule="evenodd" clip-rule="evenodd" d="M119.394 62.4461C119.394 61.0177 119.818 59.6214 120.611 58.4337C121.405 57.246 122.533 56.3203 123.852 55.7737C125.172 55.227 126.624 55.084 128.025 55.3627C129.426 55.6414 130.713 56.3292 131.723 57.3392C132.733 58.3493 133.421 59.6362 133.699 61.0371C133.978 62.4381 133.835 63.8902 133.288 65.2099C132.742 66.5296 131.816 67.6575 130.628 68.4511C129.441 69.2447 128.044 69.6683 126.616 69.6683C124.701 69.6683 122.864 68.9074 121.509 67.553C120.155 66.1985 119.394 64.3615 119.394 62.4461Z" fill="#FFCFC9"/>
</svg>
