<svg width="201" height="189" viewBox="0 0 201 189" fill="none" xmlns="http://www.w3.org/2000/svg">
<path d="M167.135 37.4489C184.969 58.0938 198.75 79.9374 200.084 103.071C201.374 126.205 190.177 150.675 172.342 167.034C154.555 183.394 130.085 191.644 109.118 188.186C88.1956 184.684 70.6843 169.476 48.4717 153.117C26.305 136.758 -0.606952 119.246 0.222315 102.61C1.00573 85.9282 29.5311 70.0754 51.7433 49.3842C73.9551 28.7392 89.8079 3.30131 108.656 0.305916C127.504 -2.68948 149.347 16.8035 167.135 37.4489Z" fill="white"/>
<path d="M97.6536 188.646C97.4257 188.646 97.2067 188.558 97.0429 188.399C96.8791 188.241 96.7833 188.025 96.7759 187.797L101.683 127.137H107.116L98.5312 187.797C98.5238 188.025 98.428 188.241 98.2642 188.399C98.1004 188.558 97.8814 188.646 97.6536 188.646Z" fill="#EAF0F8"/>
<path d="M132.41 188.646C132.182 188.646 131.963 188.558 131.799 188.399C131.636 188.241 131.54 188.025 131.532 187.797L123.948 127.137H129.381L133.288 187.797C133.28 188.025 133.185 188.241 133.021 188.399C132.857 188.558 132.638 188.646 132.41 188.646Z" fill="#EAF0F8"/>
<path d="M148.068 188.646C147.84 188.646 147.621 188.558 147.457 188.399C147.293 188.241 147.197 188.025 147.19 187.797L139.605 127.137H145.038L148.945 187.797C148.938 188.025 148.842 188.241 148.678 188.399C148.514 188.558 148.295 188.646 148.068 188.646Z" fill="#EAF0F8"/>
<path d="M150.076 115.417L148.507 121.709H143.35L144.919 115.417H150.076Z" fill="white" stroke="#3F4D79" stroke-width="2" stroke-miterlimit="10" stroke-linecap="round"/>
<path d="M129.947 115.417L128.378 121.709H123.221L124.79 115.417H129.947Z" fill="white" stroke="#3F4D79" stroke-width="2" stroke-miterlimit="10" stroke-linecap="round"/>
<path d="M149.205 121.276H95.3024C93.5253 121.276 92.0847 122.717 92.0847 124.493C92.0847 126.27 93.5253 127.71 95.3024 127.71H149.205C150.982 127.71 152.423 126.27 152.423 124.493C152.423 122.717 150.982 121.276 149.205 121.276Z" fill="#FFB000"/>
<path d="M171.381 71.209L161.606 110.424C161.22 111.972 160.327 113.347 159.07 114.329C157.812 115.312 156.262 115.845 154.667 115.845H119.043C117.07 115.845 115.699 112.865 116.378 110.053L126.116 69.784C126.578 67.8707 127.778 66.6009 129.121 66.6009H167.824C169.396 66.6009 171.917 68.9782 171.381 71.209Z" fill="#FFB000"/>
<path d="M58.9558 179.113C58.9558 180.107 62.0312 183.151 60.9956 188.239C60.9956 188.239 53.4082 188.251 49.6864 188.274C45.2621 188.301 35.8519 188.301 35.8519 188.301C35.8519 188.301 34.9383 184.246 39.7849 183.684C44.6315 183.123 50.7752 178 50.7752 178L58.9558 179.113Z" fill="#E2631E"/>
<path d="M61.3216 188.704C56.8974 188.732 35.8519 188.732 35.8519 188.732" stroke="#3F4D79" stroke-width="2" stroke-miterlimit="10" stroke-linecap="round"/>
<path d="M50.6067 178.03C51.0865 176.693 52.0895 166.365 52.0895 166.365L59.8852 167.049C59.8852 167.049 58.2802 175.929 58.5 179C58.5747 180.036 50.0795 179.497 50.6067 178.03Z" fill="#FFC0B7"/>
<path d="M129.592 117.565C120.924 121.107 80.2913 118.87 80.2913 118.87C80.2913 118.87 78.2795 153.021 63 169.5C63 169.5 52.4608 169.147 49.5721 168.401C49.5721 168.401 58.7388 118.442 64.4487 109.084C67.4653 104.13 101.429 96.5695 108.752 95.9332C110.933 97.3862 113.248 98.6272 115.665 99.6392C122.322 102.447 129.149 103.453 134.283 103.75C135.072 108.353 135.197 115.275 129.592 117.565Z" fill="#3C4564"/>
<path d="M64.8452 179.113C64.8452 180.107 67.9206 183.151 66.885 188.239C66.885 188.239 59.2976 188.251 55.5758 188.274C51.1515 188.301 41.7413 188.301 41.7413 188.301C41.7413 188.301 40.8277 184.246 45.6743 183.684C50.5209 183.123 56.6646 178 56.6646 178L64.8452 179.113Z" fill="#FE7523"/>
<path d="M67.211 188.704C62.7868 188.732 41.7413 188.732 41.7413 188.732" stroke="#3F4D79" stroke-width="2" stroke-miterlimit="10" stroke-linecap="round"/>
<path d="M56.6067 178.03C57.0865 176.693 57.9789 166.365 57.9789 166.365L66.9237 167.336C66.9237 167.336 65.099 174.784 64.5 179C64.3535 180.027 56.0795 179.497 56.6067 178.03Z" fill="#FFCFC9"/>
<path d="M135.865 121.309C127.197 124.856 86.5643 122.615 86.5643 122.615C86.5643 122.615 87.1938 154.452 68 171.5C68 171.5 58.3959 170.809 55.5029 170.064C55.5029 170.064 68.014 120.937 70.7174 112.829C72.1969 108.39 109.932 99.8317 115.661 99.6392C125.111 103.627 134.895 103.97 139.713 103.841C140.573 106.757 143.407 118.228 135.865 121.309Z" fill="#3F4D79"/>
<path d="M111.086 83.9173C101.255 85.8781 77.6368 85.0378 67.7353 83.0483C67.1983 83.4635 66.6339 83.8421 66.0461 84.1816C64.7533 84.9243 62.2639 85.5247 61.6735 85.4917C61.0831 85.4586 57.4604 84.9027 57.4604 84.9027C57.4604 84.9027 57.3311 84.4933 57.8612 83.9532C58.3912 83.4131 62.2768 83.8426 60.8562 82.6604C60.2241 82.1318 57.0769 83.3212 55.7079 84.6399C54.339 85.9585 53.6969 84.9142 53.6969 84.9142C53.6969 84.9142 55.0069 82.4723 55.4767 82.0298C55.9464 81.5874 59.0678 79.7114 61.1822 79.4255C62.7135 79.2187 66.3966 79.5031 68.3458 79.9728C75.5697 78.2577 89.43 76.0714 99.2984 76.1504C100.61 70.6919 102.203 64.0095 102.627 62.033L109.642 66.6296L111.086 83.9173Z" fill="#FFC0B7"/>
<path d="M102.627 62.033L102.184 63.9937C102.184 63.9937 104.001 68.5976 109.866 70.1173L109.642 66.6267L102.627 62.033Z" fill="#FAB6AD"/>
<path d="M145.355 74.3017C145.355 74.3017 144.831 74.2687 143.948 74.1782C142.942 81.6032 142.057 87.8403 142.057 89.2092C142.057 92.8879 142.775 103.661 142.775 103.661C142.775 103.661 123.404 105.835 108.628 95.8485C108.628 95.8485 112.053 91.2389 110.276 76.7135C109.095 67.0505 109.642 66.6268 109.642 66.6268C109.642 66.6268 106.023 64.7393 100.889 60.6727C100.889 60.6727 103.553 47.5004 107.804 44.9163C112.054 42.3321 118.65 41.1269 123.03 39.4779C127.41 37.8288 134.068 36.1166 134.068 36.1166C135.845 37.5746 144.281 41.6986 146.374 44.1722C149.356 46.9057 153.444 57.7466 145.355 74.3017Z" fill="#CEEFF7"/>
<path d="M128.323 69.9693C128.323 69.9693 130.135 66.9945 132.32 56.1493" stroke="#84D7EC" stroke-width="2" stroke-miterlimit="10"/>
<path d="M109.481 66.3524C109.275 63.7294 109.553 58.8211 109.892 56.0933" stroke="#84D7EC" stroke-width="2" stroke-miterlimit="10"/>
<path d="M143.945 74.1782C143.945 74.1782 136.267 93.5818 132.791 93.9035C121.469 94.9507 102.548 84.1687 98.4596 84.0423L96.6669 83.9848C95.6614 84.5752 94.3829 85.078 93.3013 84.7605C91.1208 84.1227 89.374 82.5469 87.929 83.2235C86.4839 83.9001 84.8162 85.1986 83.8997 85.0909C81.9821 84.8596 80.876 83.8412 80.876 83.8412C80.876 83.8412 82.0697 82.5398 83.2749 81.303C82.4202 81.6377 81.1202 82.557 80.4551 82.873C79.4496 83.3485 78.9325 82.4981 78.9325 82.4981C78.9325 82.4981 81.1748 80.5172 81.949 80.0475C82.6974 79.595 84.7975 79.1196 85.8576 79.0966C87.1404 78.9242 94.1761 77.9632 97.8017 78.3453C101.959 78.1916 110.299 78.489 124.991 81.2513L129.201 70.452C129.201 70.452 135.595 73.2948 143.945 74.1782Z" fill="#FFCFC9"/>
<path d="M143.945 74.1796C143.945 74.1796 143.251 75.9335 142.185 78.3956C138.693 77.3642 133.032 75.1736 128.97 71.0438L129.201 70.4491C129.201 70.4491 135.596 73.2948 143.945 74.1796Z" fill="#FAB6AD"/>
<path d="M126.388 23.1756C126.388 23.1756 126.963 31.3634 134.063 36.1166C134.063 36.1166 130.321 44.3043 121.694 44.8703C113.067 45.4362 119.572 40.5911 119.572 40.5911C119.572 40.5911 117.322 33.1431 116.939 31.3677L126.388 23.1756Z" fill="#FFCFC9"/>
<path d="M126.363 27.4275C125.932 31.1723 122.628 36.5403 118.53 37.0905C117.886 34.8999 117.145 32.3186 116.941 31.3677L125.912 23.5864L126.19 24.1409C126.19 24.1409 126.455 26.6374 126.363 27.4275Z" fill="#FAB6AD"/>
<path d="M125.713 23.7617C125.713 23.7617 125.847 26.3286 125.502 27.0454C123.915 30.3492 118.938 34.1415 115.068 34.1415C112.073 34.1415 108.564 25.0157 108.248 21.653C107.932 18.2903 108.374 12.9625 116.493 12.329C124.612 11.6955 125.183 20.1303 125.183 20.1303L125.713 23.7617Z" fill="#FFCFC9"/>
<path d="M102.031 18.2285C102.031 18.2285 100.521 15.2292 103.045 13.0271C106.022 10.4257 108.752 11.6309 110.277 9.98182C111.803 8.33277 114.99 4.8106 119.729 5.41247C123.978 5.95258 125.218 8.90304 125.218 8.90304C125.218 8.90304 127.846 7.79554 130.129 10.7704C132.412 13.7453 126.898 26.1404 126.898 26.1404C126.898 26.1404 125.415 21.2019 125.183 20.139C124.665 17.7588 119.982 18.3204 120.363 13.6677C120.363 13.6677 119.094 16.8394 114.273 16.7791C112.837 16.7619 110.981 16.3683 109.138 16.0953C108.118 17.901 108.091 20.0169 108.248 21.6601C108.248 21.653 103.937 21.5869 102.031 18.2285Z" fill="#FE7523"/>
<path d="M125.087 8.90305C125.087 8.90305 127.216 6.87909 129.475 8.81399" stroke="#FE7523" stroke-width="2" stroke-miterlimit="10"/>
<path d="M120.363 13.3991C120.363 13.3991 119.479 17.6697 114.666 17.9484" stroke="#FE7523" stroke-width="2" stroke-miterlimit="10"/>
<path d="M126.459 18.7801L124.928 7.21808C124.877 6.83323 124.681 6.4823 124.38 6.23715C124.079 5.992 123.696 5.87118 123.309 5.89942" stroke="#3F4D79" stroke-width="2" stroke-miterlimit="10" stroke-linecap="round"/>
<path d="M127.733 27.166C128.144 29.1886 131.721 34.7203 125.502 45.2768C119.284 55.8333 127.37 58.9777 123.28 66.2087C119.19 73.4398 110.325 73.0434 110.783 85.144C111.085 93.1063 103.945 94.1836 104.358 85.144" stroke="#3F4D79" stroke-width="2" stroke-miterlimit="10" stroke-linecap="round"/>
<path d="M114.703 74.3031C116.838 72.5607 118.996 62.6938 115.572 57.0801C112.147 51.4665 108.801 43.8993 113.848 34.367" stroke="#3F4D79" stroke-width="2" stroke-miterlimit="10" stroke-linecap="round"/>
<path d="M127.829 18.5782L124.81 19.0344C123.891 19.1731 123.259 20.0303 123.398 20.9488L124.162 26.0095C124.301 26.9281 125.158 27.5602 126.077 27.4215L129.096 26.9653C130.015 26.8266 130.647 25.9694 130.508 25.0509L129.744 19.9902C129.605 19.0716 128.748 18.4395 127.829 18.5782Z" fill="white" stroke="#ECBE02" stroke-width="2" stroke-miterlimit="10"/>
<path d="M38.3513 88.0328H115.647C116.468 88.0328 117.135 88.9866 117.135 90.1645V90.3598C117.135 91.5363 116.468 92.4901 115.647 92.4901H57.4561" fill="white"/>
<path d="M39.2131 87.7454H115.647C116.468 87.7454 117.135 88.6992 117.135 89.8771V90.0724C117.135 91.2489 116.468 92.2027 115.647 92.2027H57.7433" fill="#E0E4F4"/>
<path d="M112.014 183.594L97.3694 92.3463H102.411L116.912 183.45L112.014 183.594Z" fill="white"/>
<path d="M103.263 96.9803L97.8247 94.9506L97.3679 92.3463H102.413L103.263 96.9803Z" fill="#CEEFF7"/>
<path d="M114 189L97.3694 92.3463H102.411L118.898 188.856" fill="#E0E4F4"/>
<path d="M93.5398 83.9891H50.0398C49.4633 83.9893 48.9007 83.8126 48.428 83.4827C47.9553 83.1529 47.5953 82.6858 47.3967 82.1447L37.3717 54.8249C37.2463 54.4861 37.2048 54.122 37.2506 53.7637C37.2965 53.4053 37.4283 53.0634 37.6349 52.7671C37.8415 52.4707 38.1167 52.2288 38.4371 52.0618C38.7574 51.8949 39.1134 51.8079 39.4747 51.8084H83.5493C84.1997 51.8089 84.8343 52.0095 85.367 52.3828C85.8996 52.7562 86.3046 53.2842 86.527 53.8955L96.1828 80.2055C96.3386 80.6309 96.3895 81.0876 96.331 81.5368C96.2726 81.986 96.1066 82.4146 95.8472 82.7859C95.5877 83.1573 95.2425 83.4606 94.8408 83.6701C94.4391 83.8795 93.9928 83.9889 93.5398 83.9891Z" fill="white" stroke="#FFB000" stroke-width="2" stroke-miterlimit="10"/>
<path d="M91.6485 83.9891H49.6108C49.0466 83.9833 48.4981 83.8029 48.0408 83.4726C47.5834 83.1423 47.2396 82.6784 47.0567 82.1447L37.3693 54.8249C36.8508 53.364 37.8965 51.8083 39.4019 51.8083H81.9941C82.6293 51.8154 83.2467 52.0192 83.7612 52.3917C84.2757 52.7642 84.662 53.2871 84.867 53.8883L94.2039 80.1997C94.8532 82.0499 93.5389 83.9891 91.6485 83.9891Z" fill="white" stroke="#FFB000" stroke-width="2" stroke-miterlimit="10"/>
<path d="M112.104 83.9891H49.5197C48.7209 83.9891 48.0732 84.6367 48.0732 85.4356V85.5103C48.0732 86.3092 48.7209 86.9568 49.5197 86.9568H112.104C112.903 86.9568 113.551 86.3092 113.551 85.5103V85.4356C113.551 84.6367 112.903 83.9891 112.104 83.9891Z" fill="white" stroke="#FFB000" stroke-width="2" stroke-miterlimit="10"/>
</svg>
