<svg width="370" height="319" viewBox="0 0 370 319" fill="none" xmlns="http://www.w3.org/2000/svg">
<g clip-path="url(#clip0_2_396)">
<path d="M288.212 63.0683C318.247 97.837 341.455 134.624 343.702 173.584C345.874 212.544 327.016 253.754 296.982 281.305C267.025 308.857 225.814 322.751 190.503 316.928C155.268 311.03 125.777 285.419 88.3685 257.868C51.0372 230.317 5.7142 200.825 7.11078 172.808C8.43015 144.713 56.4703 118.015 93.8783 83.1689C131.286 48.4003 157.984 5.55979 189.726 0.515189C221.468 -4.52941 258.255 28.2991 288.212 63.0683Z" fill="white"/>
<mask id="mask0_2_396" style="mask-type:alpha" maskUnits="userSpaceOnUse" x="7" y="0" width="337" height="319">
<path d="M288.212 63.0683C318.247 97.837 341.455 134.624 343.702 173.584C345.874 212.544 327.016 253.754 296.982 281.305C267.025 308.857 225.814 322.751 190.503 316.928C155.268 311.03 125.777 285.419 88.3685 257.868C51.0372 230.317 5.7142 200.825 7.11078 172.808C8.43015 144.713 56.4703 118.015 93.8783 83.1689C131.286 48.4003 157.984 5.55979 189.726 0.515189C221.468 -4.52941 258.255 28.2991 288.212 63.0683Z" fill="white"/>
</mask>
<g mask="url(#mask0_2_396)">
<path d="M145.125 103.399C144.149 98.0065 140 86.7882 140 77.0144C140 62.2813 149.176 51 166.504 51C178.706 51 183.538 61.8961 185.393 65.796C186.955 69.0701 186.027 72.633 187.736 76.0033C194.618 89.4845 200.28 88.0882 210.334 104.843C212.775 108.888 236.056 135.218 212.663 149.996C208.368 150.189 202.709 143.1 202.709 143.1C200.366 145.507 200.084 135.224 200.133 137.728C198.132 136.091 187.638 127.713 175.533 127.713C172.263 127.713 156.742 130.506 152.69 133.539C152.007 132.576 148.688 130.843 147.37 130.843C145.076 131.132 143.221 131.276 141.415 131.902C139.414 125.065 145.32 115.917 145.32 105.277C145.32 104.699 145.223 104.073 145.125 103.399Z" fill="#3E3517"/>
<path d="M129.211 161.181C128.652 163.138 119.708 210.375 135.081 254.259C137.596 254.818 137.317 247.83 137.317 247.83L134.522 187.735L135.919 165.095L129.211 161.181Z" fill="#DE8E68"/>
<path d="M171.138 336.994H144.025C144.025 336.994 134.801 241.681 134.801 239.724C136.478 241.401 136.199 241.96 143.187 243.917C147.379 248.389 177.008 322.739 177.008 322.739L171.138 336.994Z" fill="#56CAD8"/>
<path d="M157.668 125.684C170.73 129.421 160.416 169.318 155.58 172.661C150.745 176.004 128.076 166.596 126.248 162.364C124.42 158.132 139.176 120.392 157.668 125.684Z" fill="#FCC486"/>
<path d="M169.461 115.062C211.108 115.062 211.946 234.693 206.077 239.724C200.207 244.755 140.112 249.507 134.801 239.724C129.491 229.941 124.18 115.062 169.461 115.062Z" fill="#FED385"/>
<path d="M184.554 123.168C195.455 115.062 220.891 147.485 220.611 153.355C220.332 159.225 199.089 171.523 194.617 170.405C190.145 169.287 169.12 134.645 184.554 123.168Z" fill="#FED892"/>
<path d="M216.698 154.473C227.04 171.523 229.835 194.164 229.835 198.077C229.835 208.698 224.524 214.009 221.17 214.009C207.754 214.009 163.591 179.909 160.516 177.114C157.442 174.318 166.386 165.933 167.784 167.331C169.181 168.728 185.113 178.791 208.313 188.853C204.959 184.66 195.176 172.082 194.896 168.169C194.617 164.256 216.698 154.473 216.698 154.473Z" fill="#DE8E68"/>
<path d="M154.5 146.31L137.037 148.945L141.554 178.877L159.016 176.242L154.5 146.31Z" fill="#333333"/>
<path d="M167.218 173.69C169.302 170.08 166.928 164.808 161.914 161.913C156.901 159.019 151.148 159.599 149.064 163.208C146.98 166.818 149.354 172.09 154.368 174.985C159.381 177.879 165.134 177.299 167.218 173.69Z" fill="#DE8E68"/>
<path d="M180.018 92.5849C180.018 92.5849 179.102 98.1808 179.032 99.935C178.812 102.869 180.054 120.674 180.501 123.718C178.747 125.669 166.068 127.463 164.647 126.349C164.669 123.902 163.424 111.267 162.946 109.513C153.447 108.285 146 96.8652 146 82.9588C145.994 80.1732 146.302 77.3958 146.917 74.6789C149.776 73.758 153.933 69.2628 154.565 67.6183L153.907 66C156.595 74.6789 172.866 82.6649 178.843 83.3578L178.194 84.384C179.041 82.6869 180.549 81.5598 182.277 81.5598C184.908 81.5598 187.075 84.2262 187.075 87.5241C187.075 90.822 184.926 93.4883 182.277 93.4883C181.636 93.4745 181.005 93.3187 180.431 93.032C179.857 92.7454 179.354 92.3351 178.957 91.8306" fill="#F0B69A"/>
<g clip-path="url(#clip1_2_396)">
<path d="M160.2 104.3C159.8 103.7 159.4 103.1 159.2 102.6C158.8 101.7 159.2 100.7 160.1 100.4C161.1 100 162.4 99.3 163.9 98.1C167 95.6 168.4 97.8 168.2 100.6C165.2 100.9 162.5 102.8 160.2 104.3Z" fill="#22272E"/>
<path d="M168.2 100.5C168 102.9 166.7 105.8 164.1 106.2C162.4 106.5 161.1 105.5 160.2 104.3C162.5 102.8 165.2 100.9 168.2 100.5Z" fill="#E86484"/>
</g>
<path d="M206.077 239.724V336.994H171.138L143.153 243.852C152.97 245.594 190.145 246.991 206.077 239.724Z" fill="#74D5DE"/>
</g>
<path d="M321.655 53.7095H283.362V106.258H321.655V53.7095Z" fill="#C6CFFF"/>
<path d="M321.655 53.7095H283.362V57.3431H321.655V53.7095Z" fill="#EAF0F8"/>
<path d="M135.081 74.5331H41.7242V104.441H135.081V74.5331Z" fill="#EAF0F8"/>
<path d="M56.9575 98.9903C62.3604 98.9903 66.7404 94.6103 66.7404 89.2074C66.7404 83.8045 62.3604 79.4245 56.9575 79.4245C51.5546 79.4245 47.1746 83.8045 47.1746 89.2074C47.1746 94.6103 51.5546 98.9903 56.9575 98.9903Z" fill="#BAC4D2"/>
<path d="M128.233 79.9836H73.4487V83.3377H128.233V79.9836Z" fill="#BAC4D2"/>
<path d="M91.8964 87.8099H73.4487V91.164H91.8964V87.8099Z" fill="#BAC4D2"/>
<path d="M63.4953 85.2719L55.4202 93.347L52.0801 90.004" stroke="white" stroke-width="2" stroke-miterlimit="10"/>
<path d="M135.081 111.149H41.7242V141.057H135.081V111.149Z" fill="#EAF0F8"/>
<path d="M56.9575 135.606C62.3604 135.606 66.7404 131.226 66.7404 125.823C66.7404 120.42 62.3604 116.04 56.9575 116.04C51.5546 116.04 47.1746 120.42 47.1746 125.823C47.1746 131.226 51.5546 135.606 56.9575 135.606Z" fill="#BAC4D2"/>
<path d="M128.233 116.599H73.4487V119.954H128.233V116.599Z" fill="#BAC4D2"/>
<path d="M91.8964 124.426H73.4487V127.78H91.8964V124.426Z" fill="#BAC4D2"/>
<path d="M63.4953 121.888L55.4202 129.963L52.0801 126.62" stroke="white" stroke-width="2" stroke-miterlimit="10"/>
<path d="M135.081 147.765H41.7242V177.673H135.081V147.765Z" fill="#EAF0F8"/>
<path d="M56.9575 172.222C62.3604 172.222 66.7404 167.842 66.7404 162.439C66.7404 157.036 62.3604 152.656 56.9575 152.656C51.5546 152.656 47.1746 157.036 47.1746 162.439C47.1746 167.842 51.5546 172.222 56.9575 172.222Z" fill="#BAC4D2"/>
<path d="M128.233 153.215H73.4487V156.57H128.233V153.215Z" fill="#BAC4D2"/>
<path d="M91.8964 161.042H73.4487V164.396H91.8964V161.042Z" fill="#BAC4D2"/>
<path d="M63.4953 158.504L55.4202 166.576L52.0801 163.236" stroke="white" stroke-width="2" stroke-miterlimit="10"/>
<path d="M314.107 62.3743H275.815V114.922H314.107V62.3743Z" fill="#EAF0F8"/>
<path d="M314.107 62.3743H275.815V66.008H314.107V62.3743Z" fill="#C6CFFF"/>
<path d="M310.194 72.4367H280.007V74.9523H310.194V72.4367Z" fill="#BAC4D2"/>
<path d="M310.194 77.468H280.007V79.9836H310.194V77.468Z" fill="#BAC4D2"/>
<path d="M310.194 82.4991H280.007V85.0147H310.194V82.4991Z" fill="#BAC4D2"/>
<path d="M212.645 133.929C212.645 131.134 217.676 126.662 226.341 126.662C236.963 126.662 251.497 149.302 267.709 149.302C278.889 149.302 294.262 140.078 294.262 123.308" stroke="#DFDFDF" stroke-width="2" stroke-miterlimit="10" stroke-dasharray="5 5"/>
<path d="M88.768 51.144V49.956C88.768 49.38 88.828 48.852 88.948 48.372C89.068 47.868 89.248 47.388 89.488 46.932C89.752 46.476 90.088 46.02 90.496 45.564C90.928 45.108 91.456 44.616 92.08 44.088C92.728 43.512 93.232 42.984 93.592 42.504C93.952 42.024 94.132 41.436 94.132 40.74C94.132 40.02 93.856 39.384 93.304 38.832C92.776 38.28 92.044 38.004 91.108 38.004C90.604 38.004 90.148 38.088 89.74 38.256C89.332 38.424 88.972 38.652 88.66 38.94C88.348 39.228 88.084 39.552 87.868 39.912C87.676 40.272 87.532 40.644 87.436 41.028L83.296 39.3C83.488 38.628 83.788 37.956 84.196 37.284C84.628 36.612 85.156 36.012 85.78 35.484C86.428 34.932 87.184 34.488 88.048 34.152C88.912 33.816 89.884 33.648 90.964 33.648C92.116 33.648 93.172 33.828 94.132 34.188C95.092 34.524 95.908 35.004 96.58 35.628C97.276 36.228 97.816 36.948 98.2 37.788C98.584 38.628 98.776 39.528 98.776 40.488C98.776 41.184 98.692 41.808 98.524 42.36C98.356 42.912 98.128 43.428 97.84 43.908C97.552 44.388 97.216 44.844 96.832 45.276C96.448 45.684 96.04 46.092 95.608 46.5C95.2 46.884 94.852 47.232 94.564 47.544C94.3 47.856 94.084 48.168 93.916 48.48C93.772 48.768 93.664 49.08 93.592 49.416C93.52 49.752 93.484 50.136 93.484 50.568V51.144H88.768ZM91.072 60.216C90.208 60.216 89.476 59.916 88.876 59.316C88.276 58.692 87.976 57.948 87.976 57.084C87.976 56.22 88.276 55.488 88.876 54.888C89.476 54.288 90.208 53.988 91.072 53.988C91.936 53.988 92.668 54.288 93.268 54.888C93.892 55.488 94.204 56.22 94.204 57.084C94.204 57.948 93.892 58.692 93.268 59.316C92.668 59.916 91.936 60.216 91.072 60.216Z" fill="white"/>
<g style="mix-blend-mode:soft-light" opacity="0.4">
<path d="M290.528 32.224V30.376C290.528 29.48 290.621 28.6587 290.808 27.912C290.995 27.128 291.275 26.3813 291.648 25.672C292.059 24.9627 292.581 24.2533 293.216 23.544C293.888 22.8347 294.709 22.0693 295.68 21.248C296.688 20.352 297.472 19.5307 298.032 18.784C298.592 18.0373 298.872 17.1227 298.872 16.04C298.872 14.92 298.443 13.9307 297.584 13.072C296.763 12.2133 295.624 11.784 294.168 11.784C293.384 11.784 292.675 11.9147 292.04 12.176C291.405 12.4373 290.845 12.792 290.36 13.24C289.875 13.688 289.464 14.192 289.128 14.752C288.829 15.312 288.605 15.8907 288.456 16.488L282.016 13.8C282.315 12.7547 282.781 11.7093 283.416 10.664C284.088 9.61866 284.909 8.68533 285.88 7.864C286.888 7.00533 288.064 6.31466 289.408 5.792C290.752 5.26933 292.264 5.008 293.944 5.008C295.736 5.008 297.379 5.288 298.872 5.848C300.365 6.37067 301.635 7.11733 302.68 8.088C303.763 9.02133 304.603 10.1413 305.2 11.448C305.797 12.7547 306.096 14.1547 306.096 15.648C306.096 16.7307 305.965 17.7013 305.704 18.56C305.443 19.4187 305.088 20.2213 304.64 20.968C304.192 21.7147 303.669 22.424 303.072 23.096C302.475 23.7307 301.84 24.3653 301.168 25C300.533 25.5973 299.992 26.1387 299.544 26.624C299.133 27.1093 298.797 27.5947 298.536 28.08C298.312 28.528 298.144 29.0133 298.032 29.536C297.92 30.0587 297.864 30.656 297.864 31.328V32.224H290.528ZM294.112 46.336C292.768 46.336 291.629 45.8693 290.696 44.936C289.763 43.9653 289.296 42.808 289.296 41.464C289.296 40.12 289.763 38.9813 290.696 38.048C291.629 37.1147 292.768 36.648 294.112 36.648C295.456 36.648 296.595 37.1147 297.528 38.048C298.499 38.9813 298.984 40.12 298.984 41.464C298.984 42.808 298.499 43.9653 297.528 44.936C296.595 45.8693 295.456 46.336 294.112 46.336Z" fill="white"/>
</g>
<circle cx="154" cy="88" r="2" fill="#A55129"/>
<path d="M149 82C149.513 80.8681 151.231 79.0117 154 80.6417" stroke="#D29578" stroke-width="2" stroke-linecap="round"/>
<path d="M161.097 79.8147C161.671 78.915 163 77.5 166 78.5" stroke="#D29578" stroke-width="2" stroke-linecap="round"/>
<circle cx="165" cy="86" r="2" fill="#A55129"/>
<path d="M160.833 94.5469C160.326 93.6855 160.063 92.4493 160.146 91.0749" stroke="#A55129" stroke-width="2" stroke-linecap="round" stroke-linejoin="round"/>
</g>
<defs>
<clipPath id="clip0_2_396">
<rect width="369.26" height="318.238" fill="white"/>
</clipPath>
<clipPath id="clip1_2_396">
<rect width="9.2" height="9.2" fill="white" transform="matrix(-1 0 0 1 168.2 97)"/>
</clipPath>
</defs>
</svg>
