<svg width="220" height="189" viewBox="0 0 220 189" fill="none" xmlns="http://www.w3.org/2000/svg">
<g clip-path="url(#clip0_1246_2737)">
<path d="M171.135 37.4488C188.969 58.0938 202.75 79.9374 204.084 103.071C205.374 126.205 194.177 150.675 176.342 167.034C158.555 183.394 134.085 191.643 113.118 188.186C92.1956 184.684 74.6843 169.476 52.4717 153.117C30.305 136.758 3.39305 119.246 4.22232 102.61C5.00573 85.9282 33.5311 70.0754 55.7433 49.3842C77.9551 28.7392 93.8079 3.30125 112.656 0.305855C131.504 -2.68954 153.347 16.8034 171.135 37.4488Z" fill="#638BF0"/>
<g clip-path="url(#clip1_1246_2737)">
<path d="M98.0547 6.21753C98.0547 6.21753 94.4556 10.0387 99.5686 16.258C99.5686 16.257 106.007 7.10674 98.0547 6.21753Z" fill="#0B2233"/>
<path d="M96.0537 41.5669C92.5411 36.7767 88.3081 40.2044 88.3081 40.2044C88.3081 40.2044 78.0627 49.2471 74.0993 55.9336C71.4245 60.4462 78.1553 60.7761 78.9272 60.2454C80.6315 59.0725 95.465 49.1744 95.465 49.1744C95.465 49.1744 98.3498 44.9896 96.0537 41.5669Z" fill="#F5A987"/>
<path d="M81.067 62.0883L96.481 49.2696C99.5192 43.88 95.6947 39.3695 95.6947 39.3695C91.9321 35.4029 88.543 38.8193 88.543 38.8193L75.0237 53.7208C75.0237 53.7208 71.4977 57.9312 73.7537 59.9893C73.7537 59.9893 78.8924 64.798 81.067 62.0883Z" fill="#181C22"/>
<path d="M79.6548 56.6648C87.4858 72.6869 86.2591 73.57 90.0258 79.4461C90.0258 79.4461 90.6454 82.1343 88.8022 81.9396C86.9589 81.746 75.4187 63.0962 75.0225 61.0125C74.4317 57.9187 79.6548 56.6648 79.6548 56.6648Z" fill="#F5A987"/>
<path d="M89.4825 79.012L91.6036 79.1421L93.6517 76.8883C93.5405 78.5489 93.1649 79.8694 93.0815 80.563C94.9618 82.4459 97.5903 84.4394 97.5903 84.4394C98.318 85.0674 97.6325 85.5765 97.6325 85.5765C96.3656 85.3184 93.8338 83.4959 93.8338 83.4959C95.1368 84.7611 97.5451 86.4883 97.5451 86.4883C98.0648 87.1326 97.3423 87.4553 97.3423 87.4553C95.5773 87.6613 93.2246 84.8195 93.2246 84.8195C94.0839 85.9269 96.3944 87.7207 96.3944 87.7207C96.5519 88.3405 96.2504 88.3476 96.2504 88.3476C94.8723 88.7697 92.6143 86.0263 92.6143 86.0263L93.4819 87.0271C97.3433 87.4553 93.7299 88.571 93.7299 88.571L92.9714 88.0475C90.8935 85.7128 89.6338 84.0348 89.6338 84.0348L87.9469 81.2432L89.4825 79.012Z" fill="#F5A987"/>
<path d="M86.6184 80.5209L88.1765 82.2409L90.6641 78.9791L89.1059 77.2581L86.6184 80.5209Z" fill="white"/>
<path d="M82.1013 54.446C82.1013 54.446 88.3103 71.2877 90.1248 77.0502L86.9672 81.2206C86.9672 81.2206 75.5104 65.6953 73.2709 59.2834C73.2719 59.2823 77.9104 52.2045 82.1013 54.446Z" fill="#181C22"/>
<path d="M91.1416 177.54C91.1416 177.54 90.1485 181.387 88.9289 182.43C87.7093 183.474 83.0523 185.009 83.0523 185.009L80.4732 185.377C80.4732 185.377 78.6814 186.658 83.6019 188.003C88.5213 189.35 97.1582 185.287 97.1582 185.287L95.212 177.423L91.1416 177.54Z" fill="#321613"/>
<path d="M117.433 188.121C118.302 186.774 120.121 179.433 120.121 179.433L124.141 179.312L126.658 187.394C126.658 187.394 127.061 188.747 126.241 189.254C126.241 189.254 121.227 190.987 116.944 189.171C116.944 189.171 116.99 188.81 117.433 188.121Z" fill="#321613"/>
<path d="M92.5072 76.6514L87.3747 45.4205C87.3747 45.4205 85.6056 40.7255 89.1428 38.3785L102.625 32.071H112.135L128.344 41.6065L117.72 76.6514H92.5072Z" fill="#F5A987"/>
<path d="M117.72 76.6514C117.72 76.6514 120.632 83.2682 121.334 98.4811C121.334 98.4811 99.4195 105.323 92.5456 98.4811L92.5065 76.6514H117.72Z" fill="#0F1115"/>
<path d="M103.354 98.4143C103.317 103.52 107.31 107.688 112.275 107.724C117.241 107.76 121.296 103.651 121.334 98.5465C121.372 93.4417 117.378 89.2743 112.413 89.2374C107.447 89.2005 103.392 93.3106 103.354 98.4143Z" fill="#0F1115"/>
<path d="M121.325 99.6713L123.708 138.547C123.708 138.547 119.488 148.657 112.018 142.44L103.908 102.451C103.908 102.451 107.845 89.01 121.325 99.6713Z" fill="#0F1115"/>
<path d="M123.709 138.547C123.709 138.547 125.957 145.845 125.289 158.556L125.957 182.319L117.684 182.483L112.059 142.565C112.059 142.564 117.69 129.626 123.709 138.547Z" fill="#0F1115"/>
<path d="M92.5878 98.5057C92.0681 103.584 93.8907 107.928 98.8298 108.431C103.769 108.932 108.195 105.222 108.716 100.143C109.237 95.0636 105.654 90.5407 100.715 90.0387C95.7752 89.5378 93.1086 93.4255 92.5878 98.5057Z" fill="#0F1115"/>
<path d="M106.608 105.191L102.069 141.008C102.069 141.008 92.2305 145.35 90.484 139.273C90.484 139.273 90.7125 111.99 92.5877 98.5046C92.5877 98.5057 104.737 92.6141 106.608 105.191Z" fill="#0F1115"/>
<path d="M102.069 139.543C102.069 139.543 103.451 144.798 101.959 154.389L98.5455 181.534L89.8304 181.075L90.4839 137.834C90.4839 137.834 95.9098 132.168 102.069 139.543Z" fill="#0F1115"/>
<path d="M112.182 25.1726V35.2899H101.434C101.434 35.2899 104.077 31.2793 102.755 25.1726H112.182Z" fill="#F5A987"/>
<path d="M106.731 33.7635C105.762 34.3843 103.703 35.7048 102.529 34.9324C102.213 34.7234 102.067 34.4519 102.018 34.1477C102.71 32.5455 103.661 29.3492 102.756 25.1726H112.183V26.0895C111.007 29.0511 109.498 31.9882 106.731 33.7635Z" fill="#E28C72"/>
<path d="M112.44 25.3142C112.44 25.3142 114.268 24.5233 116.34 20.0168C116.34 20.0168 120.837 14.6888 117.649 8.63845C117.649 8.63845 115.766 3.52243 106.64 4.95357C106.64 4.95357 105.82 18.6656 112.44 25.3142Z" fill="#F5A47F"/>
<path d="M101.201 28.0501L100.592 26.4643L98.9119 20.5615C98.702 19.8198 98.6886 18.8261 98.8244 18.0629C98.9716 17.2331 99.0663 16.3654 98.8491 15.4905C97.7901 11.2453 99.9751 8.83685 99.9751 8.83685C102.383 4.83337 108.311 4.7002 108.311 4.7002C115.65 4.88972 116.432 11.9368 116.432 11.9368C117.732 16.6061 114.069 20.6045 114.061 20.6117C113.769 20.9303 113.959 22.4731 113.879 22.9146C113.536 24.7975 111.761 25.991 110.182 26.8218C108.449 27.7335 106.349 28.7098 104.39 28.9342C103.649 29.0212 101.55 28.9598 101.201 28.0501Z" fill="#F5A987"/>
<path d="M119.466 75.8022C119.443 76.843 121.03 87.7286 120.364 87.868C120.36 87.869 102.221 92.0292 92.5463 87.868L92.5072 76.6514L87.3747 45.4205C87.3747 45.4205 85.6056 40.7255 89.1428 38.3785L102.625 32.0711L101.715 34.791L103.665 40.3096L112.135 32.0701L128.344 41.6055C127.439 44.5928 126.538 47.5831 125.633 50.5703C123.962 56.0787 122.335 61.6035 120.614 67.0955C120.613 67.0965 119.189 73.0557 119.466 75.8022Z" fill="white"/>
<path d="M104.836 34.0349L104.947 39.0628L106.809 37.2516L104.836 34.0349Z" fill="#DADADA"/>
<path d="M102.466 42.1424C102.466 42.5378 102.789 42.8595 103.187 42.8595C103.585 42.8595 103.909 42.5378 103.909 42.1424C103.909 41.747 103.586 41.4253 103.187 41.4253C102.789 41.4253 102.466 41.747 102.466 42.1424Z" fill="#EDEDED"/>
<path d="M102.466 55.1712C102.466 55.5666 102.789 55.8883 103.187 55.8883C103.585 55.8883 103.909 55.5666 103.909 55.1712C103.909 54.7737 103.586 54.4541 103.187 54.4541C102.789 54.4531 102.466 54.7737 102.466 55.1712Z" fill="#EDEDED"/>
<path d="M102.466 68.1978C102.466 68.5943 102.789 68.9159 103.187 68.9159C103.585 68.9159 103.909 68.5953 103.909 68.1978C103.909 67.8024 103.586 67.4807 103.187 67.4807C102.789 67.4807 102.466 67.8014 102.466 68.1978Z" fill="#EDEDED"/>
<path d="M102.466 81.2257C102.466 81.6221 102.789 81.9428 103.187 81.9428C103.585 81.9428 103.909 81.6221 103.909 81.2257C103.909 80.8302 103.586 80.5085 103.187 80.5085C102.789 80.5085 102.466 80.8302 102.466 81.2257Z" fill="#EDEDED"/>
<path d="M104.836 39.6355V89.0787" stroke="#EDEDED" stroke-width="3.7907" stroke-miterlimit="10"/>
<path d="M92.6588 88.8973C92.6588 88.8973 101.923 93.2174 120.885 88.8021C121.197 88.7283 121.065 87.9241 121.065 87.9241L120.885 86.1068C120.802 85.5249 120.475 85.5525 120.475 85.5525C120.471 85.5536 102.333 89.7138 92.6588 85.5525C92.6588 85.5525 92.2688 85.4839 92.2513 86.0668V88.3318C92.2513 88.3318 92.2513 88.7846 92.6588 88.8973Z" fill="#4E250D"/>
<path d="M102.07 90.2681C102.07 90.556 102.298 90.7896 102.581 90.7896H106.272C106.554 90.7896 106.782 90.556 106.782 90.2681V87.622C106.782 87.3342 106.553 87.1006 106.272 87.1006H102.581C102.298 87.1006 102.07 87.3352 102.07 87.622V90.2681Z" stroke="#C6C6C6" stroke-width="1.2" stroke-miterlimit="10"/>
<path d="M106.782 88.7786H104.83" stroke="#C6C6C6" stroke-miterlimit="10"/>
<path d="M104.836 33.9212C104.836 33.9212 110.783 31.6214 112.183 29.3318L113.941 32.6663L107.67 38.6521L104.836 34.035" fill="#EDEDED"/>
<path d="M110.673 9.99954C110.872 10.3581 111.672 12.87 110.689 14.128C112.762 15.7128 111.76 18.9224 111.76 18.9224L112.262 18.95C115.169 18.2001 114.193 23.6737 114.193 23.6757C114.215 23.5497 114.699 23.2434 114.795 23.1522C115.363 22.6103 116.562 20.6629 116.938 19.9755C118.984 16.2414 118.79 16.0509 119.34 13.8483C119.715 12.3424 119.553 8.26517 117.352 6.21631C117.352 6.21733 114.787 6.21733 110.673 9.99954Z" fill="#0B2233"/>
<path d="M112.963 21.3002C113.224 21.5184 113.564 21.6537 113.997 21.668C115.167 21.7049 116.187 20.661 116.277 19.3364C116.367 18.0159 115.493 16.9126 114.324 16.8757C113.769 16.8583 113.247 17.0837 112.844 17.4668C112.256 18.0251 112.187 19.1018 112.285 19.8517C112.363 20.451 112.573 20.9714 112.963 21.3002Z" fill="#F5A987"/>
<path d="M113.793 18.0865C113.895 17.394 115.275 18.1244 115.045 18.5055C114.909 18.7268 114.654 18.8784 114.452 19.028C114.176 19.2328 114.037 19.4244 113.982 19.7676C113.976 19.8075 113.963 19.9284 114.002 19.9592C114.179 20.0944 114.809 19.4408 114.948 19.3056C115.218 19.0362 115.277 18.5557 115.17 18.2012C115.055 17.8242 114.818 17.6378 114.418 17.6439C114.101 17.647 113.776 17.6542 113.777 18.0476C113.778 18.0568 113.789 18.1224 113.793 18.0865Z" fill="#EA8F72"/>
<path d="M114.212 18.8292C114.072 18.6755 113.927 18.7903 113.77 18.8917C113.626 18.9859 113.541 19.1263 113.498 19.2902C113.4 19.6477 113.428 20.1333 113.621 20.458C113.777 20.7213 114.051 20.8893 114.36 20.8955C114.786 20.9016 114.93 20.5338 114.963 20.1763C114.972 20.081 114.99 19.8536 114.898 19.7911C114.801 19.7235 114.72 19.8762 114.649 19.9397C114.551 20.0257 114.41 20.0534 114.283 20.0585C114.039 20.0698 113.807 19.9345 113.661 19.7491C113.637 19.7153 113.615 19.6754 113.603 19.6375C113.592 19.8721 113.602 19.9253 113.634 19.7963C113.655 19.7368 113.684 19.6846 113.721 19.6354C113.826 19.4777 113.999 19.3742 114.115 19.2256C114.172 19.155 114.282 18.907 114.212 18.8292Z" fill="#EA8F72"/>
<path d="M114.828 33.6548L107.619 58.8651L108.688 104.671C108.688 104.671 119.892 103.988 124.787 99.5783L121.335 72.8231L127.633 40.9979L114.828 33.6548Z" fill="#181C22"/>
<path d="M114.828 33.6548L107.619 58.8651L107.649 60.0626L116.73 50.8099C116.73 50.8099 117.684 49.2047 116.392 48.255L114.247 46.2123L115.776 45.1192C115.776 45.1192 117.922 44.0835 117.662 42.1412L117.047 34.8411L114.828 33.6548Z" fill="#28333A"/>
<path d="M98.8594 33.832L90.6496 37.6737C90.6496 37.6737 85.9772 38.902 86.9322 43.7209L89.6328 70.4188L88.2805 98.7065C88.2805 98.7065 87.1237 103.963 96.6425 103.073L100.01 58.186L98.8594 33.832Z" fill="#181C22"/>
<path d="M99.8125 34.1764C99.8125 34.1764 100.359 32.0701 103.041 30.2927L102.69 37.5508C102.69 37.5508 101.202 33.8373 99.8125 34.1764Z" fill="#EDEDED"/>
<path d="M99.5686 37.5508L99.8126 34.1763C100.631 33.9766 101.364 35.1178 101.96 36.0531L99.5686 37.5508Z" fill="#DADADA"/>
<path d="M98.8594 33.832L96.7434 34.8227L95.2141 41.8513C95.2141 41.8513 94.4484 43.6717 95.5578 44.146L97.5534 45.3046L94.7417 47.0759C94.7417 47.0759 93.2617 47.9989 94.1725 49.3583L99.8135 60.3197L99.9905 58.4461L98.8594 33.832Z" fill="#28333A"/>
<path d="M105.42 35.8523L105.64 35.4446L107.135 37.728L105.85 38.1839L105.42 35.8523Z" fill="#007FC8"/>
<path d="M101.96 36.0531L101.539 35.4138C101.539 35.4138 99.942 36.7497 101.621 38.1839C101.621 38.1839 101.62 37.0027 101.96 36.0531Z" fill="#007FC8"/>
<path d="M105.421 35.8523C105.421 35.8523 104.153 36.973 101.96 36.0531C101.48 36.6606 101.482 37.434 101.621 38.1839L102.757 40.5166H104.343L105.85 38.1839C105.85 38.1839 106.005 37.6707 105.421 35.8523Z" fill="#007FC8"/>
<path d="M104.343 40.5166L105.624 73.8865L102.948 79.0702L100.764 73.9132L102.757 40.5166H104.343Z" fill="#006CA9"/>
<path d="M119.136 44.1431C123.383 39.3528 128.498 42.7806 128.498 42.7806C128.498 42.7806 140.881 51.8223 145.672 58.5098C148.904 63.0224 140.77 63.3523 139.836 62.8206C137.776 61.6476 119.847 51.7506 119.847 51.7506C119.847 51.7506 116.362 47.5647 119.136 44.1431Z" fill="#F5A987"/>
<path d="M137.251 64.6635L118.621 51.8448C114.948 46.4552 119.571 41.9447 119.571 41.9447C124.119 37.9781 128.215 41.3945 128.215 41.3945L144.555 56.296C144.555 56.296 148.816 60.5054 146.089 62.5635C146.088 62.5645 139.878 67.3732 137.251 64.6635Z" fill="#181C22"/>
<path d="M138.956 59.2402C129.491 75.2624 130.975 76.1454 126.422 82.0216C126.422 82.0216 125.674 84.7097 127.902 84.515C130.13 84.3214 144.077 65.6716 144.557 63.5879C145.269 60.4941 138.956 59.2402 138.956 59.2402Z" fill="#F5A987"/>
<path d="M127.079 81.5863L124.516 81.7164L122.041 79.4626C122.173 81.1233 122.629 82.4438 122.729 83.1373C120.456 85.0202 117.28 87.0138 117.28 87.0138C116.4 87.6417 117.228 88.1509 117.228 88.1509C118.761 87.8927 121.818 86.0702 121.818 86.0702C120.245 87.3354 117.333 89.0626 117.333 89.0626C116.704 89.708 117.578 90.0297 117.578 90.0297C119.712 90.2356 122.555 87.3938 122.555 87.3938C121.516 88.5012 118.725 90.295 118.725 90.295C118.534 90.9148 118.898 90.922 118.898 90.922C120.565 91.344 123.293 88.6006 123.293 88.6006L122.244 89.6015C117.578 90.0297 121.945 91.1453 121.945 91.1453L122.862 90.6218C125.374 88.2871 126.896 86.6091 126.896 86.6091L128.936 83.8175L127.079 81.5863Z" fill="#F5A987"/>
<path d="M127.529 79.8357L130.536 83.0972L128.654 84.8172L125.646 81.5557L127.529 79.8357Z" fill="white"/>
<path d="M136 57.0203C136 57.0203 128.496 73.8631 126.301 79.6245L130.118 83.795C130.118 83.795 143.965 68.2697 146.671 61.8567C146.671 61.8577 141.066 54.7799 136 57.0203Z" fill="#181C22"/>
<path d="M99.1466 1C101.541 2.21703 111.482 1.81647 111.482 1.81647C117.352 3.04067 117.353 6.21744 117.353 6.21744L112.701 8.33187L110.252 9.54274C110.251 9.54274 90.9554 10.1328 99.1466 1Z" fill="#0B2233"/>
</g>
</g>
<defs>
<clipPath id="clip0_1246_2737">
<rect width="219.26" height="188.964" fill="white"/>
</clipPath>
<clipPath id="clip1_1246_2737">
<rect width="74" height="189" fill="white" transform="matrix(-1 0 0 1 147 1)"/>
</clipPath>
</defs>
</svg>
