<svg width="220" height="189" viewBox="0 0 220 189" fill="none" xmlns="http://www.w3.org/2000/svg">
<g clip-path="url(#clip0_2_604)">
<path d="M171.135 37.4489C188.969 58.0938 202.75 79.9374 204.084 103.071C205.374 126.205 194.177 150.675 176.342 167.034C158.555 183.394 134.085 191.644 113.118 188.186C92.1956 184.684 74.6843 169.476 52.4717 153.117C30.305 136.758 3.39305 119.246 4.22232 102.61C5.00573 85.9282 33.5311 70.0754 55.7433 49.3842C77.9551 28.7392 93.8079 3.30131 112.656 0.305916C131.504 -2.68948 153.347 16.8035 171.135 37.4489Z" fill="#638BF0"/>
<path d="M101.654 188.646C101.426 188.646 101.207 188.558 101.043 188.399C100.879 188.241 100.783 188.025 100.776 187.797L105.683 127.137H111.116L102.531 187.797C102.524 188.025 102.428 188.241 102.264 188.399C102.1 188.558 101.881 188.646 101.654 188.646Z" fill="#EAF0F8"/>
<path d="M136.41 188.646C136.182 188.646 135.963 188.558 135.799 188.399C135.636 188.241 135.54 188.025 135.532 187.797L127.948 127.137H133.381L137.288 187.797C137.28 188.025 137.185 188.241 137.021 188.399C136.857 188.558 136.638 188.646 136.41 188.646Z" fill="#EAF0F8"/>
<path d="M152.068 188.646C151.84 188.646 151.621 188.558 151.457 188.399C151.293 188.241 151.197 188.025 151.19 187.797L143.605 127.137H149.038L152.945 187.797C152.938 188.025 152.842 188.241 152.678 188.399C152.514 188.558 152.295 188.646 152.068 188.646Z" fill="#EAF0F8"/>
<path d="M154.076 115.417L152.507 121.709H147.35L148.919 115.417H154.076Z" fill="white" stroke="#3F4D79" stroke-width="2" stroke-miterlimit="10" stroke-linecap="round"/>
<path d="M133.947 115.417L132.378 121.709H127.221L128.79 115.417H133.947Z" fill="white" stroke="#3F4D79" stroke-width="2" stroke-miterlimit="10" stroke-linecap="round"/>
<path d="M153.205 121.276H99.3024C97.5253 121.276 96.0847 122.717 96.0847 124.493C96.0847 126.27 97.5253 127.71 99.3024 127.71H153.205C154.982 127.71 156.423 126.27 156.423 124.493C156.423 122.717 154.982 121.276 153.205 121.276Z" fill="#FFB000"/>
<path d="M175.381 71.209L165.606 110.424C165.22 111.972 164.327 113.347 163.07 114.329C161.812 115.312 160.262 115.845 158.667 115.845H123.043C121.07 115.845 119.699 112.865 120.378 110.053L130.116 69.784C130.578 67.8707 131.778 66.6009 133.121 66.6009H171.824C173.396 66.6009 175.917 68.9782 175.381 71.209Z" fill="#FFB000"/>
<path d="M62.9558 179.113C62.9558 180.107 66.0312 183.151 64.9956 188.239C64.9956 188.239 57.4082 188.251 53.6864 188.274C49.2621 188.301 39.8519 188.301 39.8519 188.301C39.8519 188.301 38.9383 184.246 43.7849 183.684C48.6315 183.123 54.7752 178 54.7752 178L62.9558 179.113Z" fill="#E2631E"/>
<path d="M65.3216 188.704C60.8974 188.732 39.8519 188.732 39.8519 188.732" stroke="#3F4D79" stroke-width="2" stroke-miterlimit="10" stroke-linecap="round"/>
<path d="M54.6067 178.03C55.0865 176.693 56.0895 166.365 56.0895 166.365L63.8852 167.049C63.8852 167.049 62.2802 175.929 62.5 179C62.5747 180.036 54.0795 179.497 54.6067 178.03Z" fill="#FFC0B7"/>
<path d="M133.592 117.565C124.924 121.107 84.2913 118.87 84.2913 118.87C84.2913 118.87 82.2795 153.021 67 169.5C67 169.5 56.4608 169.147 53.5721 168.401C53.5721 168.401 62.7388 118.442 68.4487 109.084C71.4653 104.13 105.429 96.5695 112.752 95.9332C114.933 97.3862 117.248 98.6272 119.665 99.6392C126.322 102.447 133.149 103.453 138.283 103.75C139.072 108.353 139.197 115.275 133.592 117.565Z" fill="#3C4564"/>
<path d="M68.8452 179.113C68.8452 180.107 71.9206 183.151 70.885 188.239C70.885 188.239 63.2976 188.251 59.5758 188.274C55.1515 188.301 45.7413 188.301 45.7413 188.301C45.7413 188.301 44.8277 184.246 49.6743 183.684C54.5209 183.123 60.6646 178 60.6646 178L68.8452 179.113Z" fill="#FE7523"/>
<path d="M71.211 188.704C66.7868 188.732 45.7413 188.732 45.7413 188.732" stroke="#3F4D79" stroke-width="2" stroke-miterlimit="10" stroke-linecap="round"/>
<path d="M60.6067 178.03C61.0865 176.693 61.9789 166.365 61.9789 166.365L70.9237 167.336C70.9237 167.336 69.099 174.784 68.5 179C68.3535 180.027 60.0795 179.497 60.6067 178.03Z" fill="#FFCFC9"/>
<path d="M139.865 121.309C131.197 124.856 90.5643 122.615 90.5643 122.615C90.5643 122.615 91.1938 154.452 72 171.5C72 171.5 62.3959 170.809 59.5029 170.064C59.5029 170.064 72.014 120.937 74.7174 112.829C76.1969 108.39 113.932 99.8317 119.661 99.6392C129.111 103.627 138.895 103.97 143.713 103.841C144.573 106.757 147.407 118.228 139.865 121.309Z" fill="#3F4D79"/>
<path d="M115.086 83.9173C105.255 85.8781 81.6368 85.0378 71.7353 83.0483C71.1983 83.4635 70.6339 83.8421 70.0461 84.1816C68.7533 84.9243 66.2639 85.5247 65.6735 85.4917C65.0831 85.4586 61.4604 84.9027 61.4604 84.9027C61.4604 84.9027 61.3311 84.4933 61.8612 83.9532C62.3912 83.4131 66.2768 83.8426 64.8562 82.6604C64.2241 82.1318 61.0769 83.3212 59.7079 84.6399C58.339 85.9585 57.6969 84.9142 57.6969 84.9142C57.6969 84.9142 59.0069 82.4723 59.4767 82.0298C59.9464 81.5874 63.0678 79.7114 65.1822 79.4255C66.7135 79.2187 70.3966 79.5031 72.3458 79.9728C79.5697 78.2577 93.43 76.0714 103.298 76.1504C104.61 70.6919 106.203 64.0095 106.627 62.033L113.642 66.6296L115.086 83.9173Z" fill="#FFC0B7"/>
<path d="M106.627 62.033L106.184 63.9937C106.184 63.9937 108.001 68.5976 113.866 70.1173L113.642 66.6267L106.627 62.033Z" fill="#FAB6AD"/>
<path d="M149.355 74.3017C149.355 74.3017 148.831 74.2687 147.948 74.1782C146.942 81.6032 146.057 87.8403 146.057 89.2092C146.057 92.8879 146.775 103.661 146.775 103.661C146.775 103.661 127.404 105.835 112.628 95.8485C112.628 95.8485 116.053 91.2389 114.276 76.7135C113.095 67.0505 113.642 66.6268 113.642 66.6268C113.642 66.6268 110.023 64.7393 104.889 60.6727C104.889 60.6727 107.553 47.5004 111.804 44.9163C116.054 42.3321 122.65 41.1269 127.03 39.4779C131.41 37.8288 138.068 36.1166 138.068 36.1166C139.845 37.5746 148.281 41.6986 150.374 44.1722C153.356 46.9057 157.444 57.7466 149.355 74.3017Z" fill="#CEEFF7"/>
<path d="M132.323 69.9693C132.323 69.9693 134.135 66.9945 136.32 56.1493" stroke="#84D7EC" stroke-width="2" stroke-miterlimit="10"/>
<path d="M113.481 66.3524C113.275 63.7294 113.553 58.8211 113.892 56.0933" stroke="#84D7EC" stroke-width="2" stroke-miterlimit="10"/>
<path d="M147.945 74.1782C147.945 74.1782 140.267 93.5818 136.791 93.9035C125.469 94.9507 106.548 84.1687 102.46 84.0423L100.667 83.9848C99.6614 84.5752 98.3829 85.078 97.3013 84.7605C95.1208 84.1227 93.374 82.5469 91.929 83.2235C90.4839 83.9001 88.8162 85.1986 87.8997 85.0909C85.9821 84.8596 84.876 83.8412 84.876 83.8412C84.876 83.8412 86.0697 82.5398 87.2749 81.303C86.4202 81.6377 85.1202 82.557 84.4551 82.873C83.4496 83.3485 82.9325 82.4981 82.9325 82.4981C82.9325 82.4981 85.1748 80.5172 85.949 80.0475C86.6974 79.595 88.7975 79.1196 89.8576 79.0966C91.1404 78.9242 98.1761 77.9632 101.802 78.3453C105.959 78.1916 114.299 78.489 128.991 81.2513L133.201 70.452C133.201 70.452 139.595 73.2948 147.945 74.1782Z" fill="#FFCFC9"/>
<path d="M147.945 74.1796C147.945 74.1796 147.251 75.9335 146.185 78.3956C142.693 77.3642 137.032 75.1736 132.97 71.0438L133.201 70.4491C133.201 70.4491 139.596 73.2948 147.945 74.1796Z" fill="#FAB6AD"/>
<path d="M130.388 23.1756C130.388 23.1756 130.963 31.3634 138.063 36.1166C138.063 36.1166 134.321 44.3043 125.694 44.8703C117.067 45.4362 123.572 40.5911 123.572 40.5911C123.572 40.5911 121.322 33.1431 120.939 31.3677L130.388 23.1756Z" fill="#FFCFC9"/>
<path d="M130.363 27.4275C129.932 31.1723 126.628 36.5403 122.53 37.0905C121.886 34.8999 121.145 32.3186 120.941 31.3677L129.912 23.5864L130.19 24.1409C130.19 24.1409 130.455 26.6374 130.363 27.4275Z" fill="#FAB6AD"/>
<path d="M129.713 23.7617C129.713 23.7617 129.847 26.3286 129.502 27.0454C127.915 30.3492 122.938 34.1415 119.068 34.1415C116.073 34.1415 112.564 25.0157 112.248 21.653C111.932 18.2903 112.374 12.9625 120.493 12.329C128.612 11.6955 129.183 20.1303 129.183 20.1303L129.713 23.7617Z" fill="#FFCFC9"/>
<path d="M106.031 18.2285C106.031 18.2285 104.521 15.2292 107.045 13.0271C110.022 10.4257 112.752 11.6309 114.277 9.98182C115.803 8.33277 118.99 4.8106 123.729 5.41247C127.978 5.95258 129.218 8.90304 129.218 8.90304C129.218 8.90304 131.846 7.79554 134.129 10.7704C136.412 13.7453 130.898 26.1404 130.898 26.1404C130.898 26.1404 129.415 21.2019 129.183 20.139C128.665 17.7588 123.982 18.3204 124.363 13.6677C124.363 13.6677 123.094 16.8394 118.273 16.7791C116.837 16.7619 114.981 16.3683 113.138 16.0953C112.118 17.901 112.091 20.0169 112.248 21.6601C112.248 21.653 107.937 21.5869 106.031 18.2285Z" fill="#FE7523"/>
<path d="M129.087 8.90305C129.087 8.90305 131.216 6.87909 133.475 8.81399" stroke="#FE7523" stroke-width="2" stroke-miterlimit="10"/>
<path d="M124.363 13.3991C124.363 13.3991 123.479 17.6697 118.666 17.9484" stroke="#FE7523" stroke-width="2" stroke-miterlimit="10"/>
<path d="M130.459 18.7801L128.928 7.21808C128.877 6.83323 128.681 6.4823 128.38 6.23715C128.079 5.992 127.696 5.87118 127.309 5.89942" stroke="#3F4D79" stroke-width="2" stroke-miterlimit="10" stroke-linecap="round"/>
<path d="M131.733 27.166C132.144 29.1886 135.721 34.7203 129.502 45.2768C123.284 55.8333 131.37 58.9777 127.28 66.2087C123.19 73.4398 114.325 73.0434 114.783 85.144C115.085 93.1063 107.945 94.1836 108.358 85.144" stroke="#3F4D79" stroke-width="2" stroke-miterlimit="10" stroke-linecap="round"/>
<path d="M118.703 74.3031C120.838 72.5607 122.996 62.6938 119.572 57.0801C116.147 51.4665 112.801 43.8993 117.848 34.367" stroke="#3F4D79" stroke-width="2" stroke-miterlimit="10" stroke-linecap="round"/>
<path d="M131.829 18.5782L128.81 19.0344C127.891 19.1731 127.259 20.0303 127.398 20.9488L128.162 26.0095C128.301 26.9281 129.158 27.5602 130.077 27.4215L133.096 26.9653C134.015 26.8266 134.647 25.9694 134.508 25.0509L133.744 19.9902C133.605 19.0716 132.748 18.4395 131.829 18.5782Z" fill="white" stroke="#ECBE02" stroke-width="2" stroke-miterlimit="10"/>
<path d="M42.3513 88.0328H119.647C120.468 88.0328 121.135 88.9866 121.135 90.1645V90.3598C121.135 91.5363 120.468 92.4901 119.647 92.4901H61.4561" fill="white"/>
<path d="M43.2131 87.7454H119.647C120.468 87.7454 121.135 88.6992 121.135 89.8771V90.0724C121.135 91.2489 120.468 92.2027 119.647 92.2027H61.7433" fill="#E0E4F4"/>
<path d="M116.014 183.594L101.369 92.3463H106.411L120.912 183.45L116.014 183.594Z" fill="white"/>
<path d="M107.263 96.9803L101.825 94.9506L101.368 92.3463H106.413L107.263 96.9803Z" fill="#CEEFF7"/>
<path d="M118 189L101.369 92.3463H106.411L122.898 188.856" fill="#E0E4F4"/>
<path d="M97.5398 83.9891H54.0398C53.4633 83.9893 52.9007 83.8126 52.428 83.4827C51.9553 83.1529 51.5953 82.6858 51.3967 82.1447L41.3717 54.8249C41.2463 54.4861 41.2048 54.122 41.2506 53.7637C41.2965 53.4053 41.4283 53.0634 41.6349 52.7671C41.8415 52.4707 42.1167 52.2288 42.4371 52.0618C42.7574 51.8949 43.1134 51.8079 43.4747 51.8084H87.5493C88.1997 51.8089 88.8343 52.0095 89.367 52.3828C89.8996 52.7562 90.3046 53.2842 90.527 53.8955L100.183 80.2055C100.339 80.6309 100.389 81.0876 100.331 81.5368C100.273 81.986 100.107 82.4146 99.8472 82.7859C99.5877 83.1573 99.2425 83.4606 98.8408 83.6701C98.4391 83.8795 97.9928 83.9889 97.5398 83.9891Z" fill="white" stroke="#FFB000" stroke-width="2" stroke-miterlimit="10"/>
<path d="M95.6485 83.9891H53.6108C53.0466 83.9833 52.4981 83.8029 52.0408 83.4726C51.5834 83.1423 51.2396 82.6784 51.0567 82.1447L41.3693 54.8249C40.8508 53.364 41.8965 51.8083 43.4019 51.8083H85.9941C86.6293 51.8154 87.2467 52.0192 87.7612 52.3917C88.2757 52.7642 88.662 53.2871 88.867 53.8883L98.2039 80.1997C98.8532 82.0499 97.5389 83.9891 95.6485 83.9891Z" fill="white" stroke="#FFB000" stroke-width="2" stroke-miterlimit="10"/>
<path d="M116.104 83.9891H53.5197C52.7209 83.9891 52.0732 84.6367 52.0732 85.4356V85.5103C52.0732 86.3092 52.7209 86.9568 53.5197 86.9568H116.104C116.903 86.9568 117.551 86.3092 117.551 85.5103V85.4356C117.551 84.6367 116.903 83.9891 116.104 83.9891Z" fill="white" stroke="#FFB000" stroke-width="2" stroke-miterlimit="10"/>
</g>
<defs>
<clipPath id="clip0_2_604">
<rect width="219.26" height="188.964" fill="white"/>
</clipPath>
</defs>
</svg>
