<svg width="337" height="352" viewBox="0 0 337 352" fill="none" xmlns="http://www.w3.org/2000/svg">
<path d="M281.132 63.0682C311.167 97.8369 334.375 134.624 336.623 173.584C338.795 212.544 319.937 253.754 289.902 281.305C259.945 308.857 218.735 322.75 183.424 316.928C148.189 311.03 118.698 285.418 81.2892 257.867C43.9579 230.316 -1.36509 200.825 0.0314962 172.808C1.35086 144.713 49.391 118.015 86.799 83.1688C124.206 48.4002 150.904 5.55969 182.646 0.515097C214.388 -4.5295 251.176 28.299 281.132 63.0682Z" fill="#638AF0"/>
<g clip-path="url(#clip0_263_3)">
<path d="M101.5 179.5C101.284 175.795 73.7213 100.386 72.0363 97.8463C70.3514 95.3067 73.0829 91.0681 77.1191 91.0681C80.0843 91.0681 104.86 99.7545 104.86 115.421" fill="#E0A190"/>
<path d="M101.79 159.408C105.118 108.511 95.6988 37.7707 95.6988 35.2171C95.6988 32.6635 96.6791 27.5424 100.021 27.5424C103.363 27.5424 130.085 44.2454 130.085 65.4695" fill="#E1A996"/>
<path d="M94.2302 209.915C94.3034 201.165 95.35 177.792 96.3965 170.815C97.4431 163.838 138.259 21.0712 138.412 18.9955C138.566 16.9199 139.874 14 142.18 14C157.749 14 160.473 43.593 160.473 49.6665C160.473 55.74 141.437 158.564 138.907 164.246C136.378 169.929 142.658 210.78 94.2302 209.915Z" fill="#F1B7A0"/>
<path d="M262.1 176.048C251.984 163.141 184.307 129.302 180.469 129.302C176.632 129.302 125.002 163.141 106.862 181.281C88.7218 199.421 83.8379 282.448 83.4891 288.727C83.1402 295.006 72.3259 323.263 68.8374 333.38L65 351.52H166.515C166.167 343.845 179.772 300.588 181.516 292.913C181.516 292.913 223.029 258.377 229.657 252.446C236.285 246.516 271.519 183.374 271.519 180.932C271.519 178.49 264.193 175.699 262.1 176.048ZM193.377 234.306C187.098 234.306 150.817 207.445 150.468 206.049C150.119 204.654 153.259 189.304 154.654 187.909C156.05 186.514 186.051 165.234 187.795 165.234C189.54 165.234 229.308 185.118 243.611 181.979C228.96 188.956 199.656 234.306 193.377 234.306Z" fill="#F1C1AB"/>
<path d="M188.536 88.185C186.583 86.2324 183.417 86.2324 181.464 88.185C179.512 90.1376 179.512 93.3034 181.464 95.2561L188.536 88.185ZM212.89 119.61L209.354 123.146C211.307 125.098 214.473 125.098 216.425 123.146L212.89 119.61ZM270.036 69.5355C271.988 67.5829 271.988 64.4171 270.036 62.4645C268.083 60.5118 264.917 60.5118 262.964 62.4645L270.036 69.5355ZM181.464 95.2561L209.354 123.146L216.425 116.075L188.536 88.185L181.464 95.2561ZM216.425 123.146L270.036 69.5355L262.964 62.4645L209.354 116.075L216.425 123.146Z" fill="#6CDF77"/>
</g>
<defs>
<clipPath id="clip0_263_3">
<rect width="206.519" height="337.52" fill="white" transform="translate(65 14)"/>
</clipPath>
</defs>
</svg>
