<svg width="376" height="443" viewBox="0 0 376 443" fill="none" xmlns="http://www.w3.org/2000/svg">
<mask id="mask0_60_5" style="mask-type:alpha" maskUnits="userSpaceOnUse" x="1" y="124" width="337" height="319">
<path d="M282.133 187.068C312.167 221.837 335.375 258.624 337.623 297.584C339.795 336.544 320.937 377.754 290.902 405.305C260.945 432.857 219.735 446.75 184.424 440.928C149.189 435.03 119.698 409.419 82.2893 381.867C44.9579 354.316 -0.36509 324.825 1.0315 296.808C2.35086 268.713 50.391 242.015 87.799 207.169C125.206 172.4 151.904 129.56 183.646 124.515C215.388 119.47 252.176 152.299 282.133 187.068Z" fill="#638BF0"/>
</mask>
<g mask="url(#mask0_60_5)">
<path d="M280.132 188.068C310.167 222.837 333.375 259.624 335.623 298.584C337.795 337.544 318.937 378.754 288.902 406.305C258.945 433.857 217.735 447.75 182.424 441.928C147.189 436.03 117.698 410.418 80.2892 382.867C42.9579 355.316 -2.36509 325.825 -0.968504 297.808C0.350862 269.713 48.391 243.015 85.799 208.169C123.206 173.4 149.904 130.56 181.646 125.515C213.388 120.47 250.176 153.299 280.132 188.068Z" fill="#FFF9DE"/>
<path d="M170.499 268.618C159.124 246.325 155.192 214.094 155.01 203.326C154.828 192.557 140.969 148.274 138.863 120.779C143.314 118.626 147.068 117.655 148.492 119.289C149.917 120.924 168.497 150.166 177.061 191.012C178.742 199.019 206.185 250.173 197.28 276.912C193.214 289.121 170.499 268.618 170.499 268.618Z" fill="#D17D55"/>
<path d="M146.489 121.61C151.364 117.362 151.872 109.968 147.624 105.093C143.376 100.219 135.982 99.7106 131.107 103.958C126.233 108.206 125.725 115.601 129.972 120.475C134.22 125.35 141.615 125.858 146.489 121.61Z" fill="#DE8E68"/>
<path d="M191.307 299.107C176.115 301.322 153.841 259.704 157.574 253.342C160.08 249.056 196.737 239.38 202.014 243.265C210.462 249.501 211.482 296.101 191.307 299.107Z" fill="#FFC78E"/>
<path d="M267.739 423.7C269.02 432.1 292.596 576.118 292.596 576.118H211.2C211.2 576.118 166.225 486.595 162.2 446.261C183.9 432.436 267.739 423.7 267.739 423.7Z" fill="#74D5DE"/>
<path d="M203.381 247.447C257.512 245.641 271.981 414.67 267.739 423.693C262.699 434.508 184.649 455.893 162.172 446.254C150.944 441.445 112.836 250.464 203.381 247.447Z" fill="#FED385"/>
<path d="M203.381 247.447C257.512 245.641 274.361 413.774 267.739 423.693C261.117 433.612 171.797 453.8 162.2 446.254C152.603 438.708 112.836 250.464 203.381 247.447Z" fill="#FEC151"/>
<path d="M213.461 208.1C213.461 209.731 214.105 245.529 218.872 256.218C218.872 259.333 184.649 261.37 184.649 255.441V229.387" fill="#D37C59"/>
<path d="M185.461 232.558C200.925 232.558 213.461 213.597 213.461 190.208C213.461 166.819 200.925 147.858 185.461 147.858C169.997 147.858 157.461 166.819 157.461 190.208C157.461 213.597 169.997 232.558 185.461 232.558Z" fill="#DE8E68"/>
<path d="M209.66 210.326H208.96V190.026C206.86 187.226 186.56 180.926 181.66 178.826C176.76 176.726 168.36 173.926 162.76 165.526C161.479 167.451 158.462 177.069 157.664 185.091C155.564 182.991 152.26 179.526 152.26 168.326C152.26 148.026 172.56 136.126 190.06 136.126C218.06 136.126 234.16 164.826 234.16 177.426C234.16 195.626 221.56 210.326 209.66 210.326Z" fill="black"/>
<path d="M207.329 204.621C211.485 204.621 214.854 201.252 214.854 197.096C214.854 192.94 211.485 189.571 207.329 189.571C203.173 189.571 199.804 192.94 199.804 197.096C199.804 201.252 203.173 204.621 207.329 204.621Z" fill="#DE8E68"/>
<path d="M251.639 101.581C256.161 101.581 291.994 113.649 301.423 113.649C310.852 113.649 329.521 111.388 335.562 111.388C347.42 111.388 375.539 125.038 375.539 148.915C375.539 165.554 362.659 174.773 348.197 182.109C342.562 184.958 337.564 197.096 317.453 197.096C285.029 197.096 266.276 151.554 237.114 151.554C233.719 151.554 222.764 153.052 222.764 157.154C222.764 161.256 215.764 155.11 215.764 153.185C215.792 136.819 225.767 101.581 251.639 101.581Z" fill="black"/>
<circle cx="181.9" cy="188.463" r="3.70006" transform="rotate(28.1743 181.9 188.463)" fill="#8F5F44"/>
<circle cx="164.009" cy="193.009" r="3.70006" transform="rotate(28.1743 164.009 193.009)" fill="#8F5F44"/>
<circle cx="181.584" cy="219.128" r="6.74304" transform="rotate(28.1743 181.584 219.128)" fill="#C26464"/>
<path d="M224.164 210.827C227.487 210.827 230.18 208.133 230.18 204.81C230.18 201.487 227.487 198.793 224.164 198.793C220.841 198.793 218.147 201.487 218.147 204.81C218.147 208.133 220.841 210.827 224.164 210.827Z" fill="#E49D75"/>
<path d="M172.966 199.748C173.133 201.479 172.939 205.314 170.826 206.808" stroke="#8F5F43" stroke-width="3" stroke-linecap="round"/>
</g>
<path d="M251.639 101.581C256.161 101.581 291.994 113.649 301.423 113.649C310.852 113.649 329.521 111.388 335.562 111.388C347.42 111.388 375.539 125.038 375.539 148.915C375.539 165.554 362.659 174.773 348.197 182.109C342.562 184.958 337.564 197.096 317.453 197.096C285.029 197.096 266.276 151.554 237.114 151.554C233.719 151.554 222.764 153.052 222.764 157.154C222.764 161.256 215.764 155.11 215.764 153.185C215.792 136.819 225.767 101.581 251.639 101.581Z" fill="black"/>
<path fill-rule="evenodd" clip-rule="evenodd" d="M163.163 250.064C157.356 231.225 155.146 211.337 155.01 203.326C154.933 198.776 152.414 188.241 149.372 175.518C145.214 158.131 140.079 136.656 138.863 120.779C143.314 118.626 147.068 117.655 148.492 119.289C149.307 120.224 155.729 130.182 162.68 146.173C156.458 151.601 152.26 159.095 152.26 168.326C152.26 179.525 155.563 182.99 157.664 185.09C157.53 186.768 157.461 188.476 157.461 190.208C157.461 213.186 169.561 231.89 184.649 232.54V243.932C176.98 245.458 168.572 247.862 163.163 250.064ZM162.446 166.082C162.277 166.417 162.091 166.839 161.893 167.334C162.072 166.911 162.257 166.494 162.446 166.082Z" fill="#D17D55"/>
<path d="M146.489 121.61C151.364 117.362 151.872 109.968 147.624 105.093C143.376 100.219 135.982 99.7106 131.107 103.958C126.233 108.206 125.725 115.601 129.972 120.475C134.22 125.35 141.615 125.858 146.489 121.61Z" fill="#DE8E68"/>
<path d="M216.711 261.526C203.872 236.364 199.435 199.987 199.229 187.833C199.024 175.679 183.381 125.698 181.005 94.6652C186.027 92.2355 190.265 91.1393 191.873 92.984C193.48 94.8287 214.451 127.833 224.117 173.935C226.014 182.972 256.989 240.708 246.937 270.887C242.349 284.667 216.711 261.526 216.711 261.526Z" fill="#D17D55"/>
<path d="M189.611 95.6033C195.113 90.8092 195.686 82.4629 190.892 76.9613C186.098 71.4598 177.752 70.8863 172.25 75.6805C166.748 80.4746 166.175 88.8209 170.969 94.3225C175.763 99.824 184.11 100.397 189.611 95.6033Z" fill="#DE8E68"/>
<path d="M245.706 303.217C228.735 306.717 200.889 261.297 204.669 253.891C207.21 248.895 247.879 235.563 254.075 239.601C264.058 246.091 268.292 298.52 245.706 303.217Z" fill="#FFE4AD"/>
<path d="M64.6157 159.057C63.6645 156.794 62.7885 149.862 68.3719 151.719C75.6096 154.125 74.733 149.491 74.098 145.993C73.4629 142.495 72.835 139.54 79.6452 140.445C86.4553 141.351 84.6555 135.435 84.745 135.346" stroke="#FE7523" stroke-opacity="0.6" stroke-width="3" stroke-linecap="round"/>
<path d="M151.435 28.9607C149.705 28.8042 144.58 26.619 146.402 22.7244C148.764 17.6758 145.313 16.4583 142.71 15.517C140.107 14.5757 137.901 13.8575 139.134 8.53488C140.366 3.21223 135.903 2.22843 135.845 2.11581" stroke="#FE7523" stroke-opacity="0.6" stroke-width="3" stroke-linecap="round"/>
<path d="M31.6985 57.4169C32.959 56.2223 37.9861 53.8199 39.7047 57.7614C41.9325 62.8707 45.1271 61.0851 47.5538 59.7537C49.9804 58.4223 51.9772 57.2414 55.1575 61.6838C58.3379 66.1261 62.0255 63.427 62.1481 63.4582" stroke="#FE7523" stroke-opacity="0.6" stroke-width="3" stroke-linecap="round"/>
<path d="M314.929 104.495C313.203 104.69 307.743 103.583 308.743 99.4007C310.039 93.9796 306.413 93.4827 303.674 93.0853C300.935 92.6879 298.63 92.429 298.764 86.9672C298.898 81.5054 294.329 81.4412 294.249 81.3425" stroke="#FE7523" stroke-opacity="0.6" stroke-width="3" stroke-linecap="round"/>
<path d="M229.741 50.2381C228.835 47.9563 228.096 41.0092 233.642 42.9755C240.831 45.5243 240.046 40.8736 239.48 37.3636C238.914 33.8536 238.345 30.8876 245.136 31.9271C251.927 32.9665 250.244 27.0166 250.335 26.929" stroke="#FE7523" stroke-opacity="0.6" stroke-width="3" stroke-linecap="round"/>
<circle cx="258.5" cy="10.5" r="5.5" fill="#EAF0F8"/>
<circle cx="183.5" cy="63.5" r="5.5" fill="#EAF0F8"/>
<circle cx="86.5" cy="39.5" r="5.5" fill="#EAF0F8"/>
<circle cx="62.5" cy="106.5" r="5.5" fill="#EAF0F8"/>
<circle cx="83.5" cy="167.5" r="5.5" fill="#EAF0F8"/>
<circle cx="201.5" cy="97.5" r="5.5" fill="#EAF0F8"/>
<circle cx="338.5" cy="59.5" r="5.5" fill="#EAF0F8"/>
<rect x="101.545" y="63" width="6.66667" height="14" transform="rotate(32.6103 101.545 63)" fill="#FFCFC9"/>
<rect x="138" y="77.9763" width="6.66667" height="14" transform="rotate(-48.2827 138 77.9763)" fill="#FFCFC9"/>
<rect x="0.0556641" y="86.4901" width="6.66667" height="14" transform="rotate(-13.4493 0.0556641 86.4901)" fill="#FFCFC9"/>
<rect x="337.763" y="203" width="6.66667" height="14" transform="rotate(28.8872 337.763 203)" fill="#FFCFC9"/>
<rect x="210.109" y="58" width="6.66667" height="14" transform="rotate(12.8293 210.109 58)" fill="#FFCFC9"/>
<rect x="309.635" y="10.5778" width="6.66667" height="14" transform="rotate(-35.757 309.635 10.5778)" fill="#FFCFC9"/>
<rect x="47.9385" y="164.075" width="6.66667" height="14" transform="rotate(57.7656 47.9385 164.075)" fill="#FFCFC9"/>
</svg>
