<svg width="370" height="319" viewBox="0 0 370 319" fill="none" xmlns="http://www.w3.org/2000/svg">
<g clip-path="url(#clip0_2_532)">
<path d="M288.212 63.0683C318.247 97.837 341.455 134.624 343.702 173.584C345.874 212.544 327.016 253.754 296.982 281.305C267.025 308.857 225.814 322.751 190.503 316.928C155.268 311.03 125.777 285.419 88.3686 257.868C51.0372 230.317 5.71426 200.825 7.11084 172.808C8.43021 144.713 56.4703 118.015 93.8783 83.1689C131.286 48.4003 157.984 5.55979 189.726 0.515189C221.468 -4.52941 258.255 28.2991 288.212 63.0683Z" fill="white"/>
<path d="M261.384 55.1286V74.3883H261.505V94.9486L247.14 79.5891H205.834V55.1286H261.384Z" fill="#EAF0F8"/>
<path d="M135.644 88.0453V107.305H135.523V127.865L149.889 112.506H191.196V88.0453H135.644Z" fill="#EAF0F8"/>
<path d="M287.971 137.133C287.971 150.907 293.958 153.405 293.958 155.903C293.958 158.401 291.243 172.102 290.469 173.902C292.489 176.73 306.741 178.2 309.459 177.465C309.68 174.784 313.096 157.335 313.868 156.16C314.639 154.985 323.271 148.076 323.271 142.349C323.271 129.529 322.426 112.486 313.904 112.486C303.546 112.485 287.971 117.518 287.971 137.133Z" fill="#FFCFC9"/>
<path d="M302 133C302 133.833 301.5 136 299.5 138" stroke="#D98378" stroke-width="2" stroke-linecap="round" stroke-linejoin="round"/>
<path d="M330.971 178.117C324.307 178.283 309.909 180.864 309.909 180.864C309.826 187.898 311.744 262.455 312.034 273.671H353.154L367.722 189.076C367.722 187.637 367.438 186.212 366.888 184.882C366.337 183.552 365.53 182.344 364.512 181.327C363.494 180.309 362.286 179.502 360.957 178.951C359.627 178.401 358.202 178.117 356.763 178.117C356.763 178.117 339.065 178.374 332.193 178.117C331.824 178.105 331.415 178.106 330.971 178.117Z" fill="#DFE8F4"/>
<path d="M114.804 241.457C117.149 240.165 139.811 223.394 141.05 221.825C142.289 220.256 146.737 211.295 147.111 210.71C148.5 208 149.864 209.032 150.162 209.285C151.987 210.834 149.061 216.111 148.714 216.917C150.413 215.366 158.5 206.123 162.482 207.373C171.954 210.346 168.41 222.986 162.457 226.066C160.828 226.911 151.91 230.314 151.055 231.06C150.2 231.806 112.687 263.038 111.846 263.637C111.378 261.484 112.454 242.748 114.804 241.457Z" fill="#DE8E68"/>
<path d="M250.608 197.638C248.994 200.028 244.911 205.99 243.296 208.316C225.927 185.464 207.944 172.23 203.223 149.678C198.652 146.769 198.915 157.149 202.348 164.919C196.988 168.348 191.911 171.787 193.471 174.33C199.443 184.053 201.241 180.994 203.471 181.194C205.702 181.395 223.574 218.03 228.723 223.793C232.518 228.041 235.466 233.007 247.196 238.053C248.457 227.318 256.361 201.901 257.975 199.971C256.525 198.934 252.222 195.249 250.608 197.638Z" fill="#FFCFC9"/>
<path d="M256.373 202.556C250.995 198.454 247.359 195.225 247.263 193.709C247.036 190.124 268.525 159.571 283.147 169.26C289.35 173.768 267.011 210.491 256.373 202.556Z" fill="#46DBC9"/>
<path d="M296.765 166.851C253.764 167.243 245.185 241.089 243.194 273.671H324.601C334.873 241.709 342.467 173.518 303.52 167.364C301.286 167.007 299.027 166.836 296.765 166.851Z" fill="#46DBC9"/>
<path d="M13.266 175.941C11.8269 175.941 10.4018 176.224 9.07224 176.775C7.74265 177.326 6.53456 178.133 5.51696 179.151C4.49936 180.168 3.69217 181.377 3.14149 182.706C2.59081 184.036 2.30742 185.461 2.3075 186.9C2.3075 186.9 10.1905 250.727 13.0645 273.993H72.3178C72.3124 270.239 72.1972 191.071 71.5903 175.941H13.266Z" fill="#DFE8F4"/>
<path d="M86.5908 173.322C47.166 173.322 39.3753 242.085 40.5227 273.992H112.783C119.215 242.397 120.283 173.322 86.5908 173.322Z" fill="white"/>
<path d="M313.881 155.94C313.097 158.178 309.564 174.736 309.303 177.347C305.985 178.541 292.335 176.559 290.619 173.947C292.297 169.023 294.082 159.252 293.932 155.148" fill="#FAB6AD"/>
<path d="M99.5 176C86.3 167.2 57 178 47 186L70 182C78.4 171.6 93.1667 176 99.5 179.5V176Z" fill="#222B39"/>
<path d="M300.082 142.132C301.348 142.387 304.106 142.567 306.898 142.039C307.474 144.085 306.898 148.544 301.696 149.29" stroke="#1B3C87" stroke-width="2" stroke-linecap="round" stroke-linejoin="round"/>
<path d="M139.801 93.0092H180.239" stroke="#BAC4D2" stroke-width="2" stroke-linecap="round" stroke-linejoin="round"/>
<path d="M139.801 102.566H153.918" stroke="#BAC4D2" stroke-width="2" stroke-linecap="round" stroke-linejoin="round"/>
<path d="M252.488 60.2927H212.052" stroke="#BAC4D2" stroke-width="2" stroke-linecap="round" stroke-linejoin="round"/>
<path d="M226.424 69.8492H212.308" stroke="#BAC4D2" stroke-width="2" stroke-linecap="round" stroke-linejoin="round"/>
<path d="M30.2518 216.221L30.2935 216.328C28.8571 219.548 15.9843 255.992 16.5502 259.012C17.1191 262.051 20.1361 267.41 22.3549 268.649C23.3691 269.217 33.5264 271.391 45.6414 273.993H118.706C117.214 270.192 110.976 267.058 105.205 267.047C103.248 266.982 100.185 267.116 97.9606 269.658C75.9488 259.499 51.2917 253.692 44.1236 251.826L43.3393 249.795C45.7229 245.236 52.9085 232.044 53.9117 229.989C50.093 228.048 30.5149 216.378 30.3447 216.275L30.3321 216.238C30.3321 216.243 30.3242 216.255 30.3224 216.26L30.2518 216.221Z" fill="#DE8E68"/>
<path d="M63.9323 183.546C80.3637 193.153 63.1432 229.703 58.697 230.865C49.9598 231.469 29.8393 218.854 27.9028 213.748C25.9663 208.642 47.7192 174.064 63.9323 183.546Z" fill="#FED892"/>
<path d="M99 219.5L70.5 178L37 236L30 274H97.5L99 219.5Z" fill="#222B39"/>
<path fill-rule="evenodd" clip-rule="evenodd" d="M67 176L51 183.5C46.3333 185.833 35.3 194.4 28.5 210C23.09 222.411 16.6884 244.085 12.6187 259.057C11.1407 264.495 14.5438 270.013 20.0437 271.239L27.9428 273H94.0385L96.5 267L45.5 250L76 191L67 176Z" fill="#283141"/>
<path d="M67.5 196.5L99 219.5L69 175.5L60.5 190.5L68.5 191.5L67.5 196.5Z" fill="#3C4961"/>
<path d="M73.6083 180.824C76.0009 174.32 75.6311 152.457 75.394 150.294C75.108 147.684 73.1425 128.86 77.862 124.883C82.5814 120.906 89.8352 116.449 94.1173 116.755C98.3993 117.061 111.143 129.885 111.143 145.411C111.143 160.938 97.0263 168.354 93.7149 168.456C93.2624 171.904 93.2974 181.132 93.2974 184.475C91.9395 185.778 77.0789 185.34 73.6083 180.824Z" fill="#DE8E68"/>
<path d="M75.9646 136.683C73.7524 136.548 72.0343 138.544 70.187 140.448C68.5322 128.196 74.305 106.652 82.5886 105.178C84.0123 105.234 84.1915 107.121 83.7759 108.782C88.9719 104.042 98.7317 101.409 102.874 101.374C108.244 101.374 110.141 105.608 110.141 107.062C110.141 110.742 107.728 116.24 106.841 117.664C108.261 116.908 109.399 116.633 110.496 116.633C113.258 116.633 113.935 120.916 113.935 122.193C113.935 126.647 109.218 131.181 106.877 131.181C105.779 131.181 102.746 129.472 101.827 128.197C102.15 129.144 102.51 129.41 102.523 130.865C102.534 132.066 100.788 132.726 99.7482 132.726C96.9961 132.726 91.54 127.357 86.5485 127.357C84.8877 127.357 82.7919 129.737 82.7919 131.078C82.7919 132.42 83.4935 138.754 83.0712 138.974C81.7826 139.989 81.1848 136.969 76.069 136.641" fill="#FFB000"/>
<path d="M77.2453 149.242C76.0257 149.438 74.7753 149.295 73.6319 148.827C72.4885 148.359 71.4963 147.585 70.7645 146.59C70.0328 145.594 69.5898 144.416 69.4843 143.185C69.3787 141.954 69.6148 140.718 70.1666 139.613C70.7183 138.507 71.5642 137.576 72.6113 136.92C73.6584 136.264 74.8661 135.91 76.1015 135.897C77.3369 135.883 78.5521 136.21 79.6133 136.843C80.6746 137.475 81.5409 138.388 82.1168 139.481" fill="#DE8E68"/>
<path d="M344.863 218.98C339.947 221.504 330.505 222.978 318.561 223.395C318.892 230.408 320.497 252.52 321.351 264.655C319.491 267.367 316.775 270.909 314.613 273.671H334.956C338.142 268.543 342.544 261.189 343.197 259.437C344.2 256.743 344.483 230.669 344.863 218.98Z" fill="#FFCFC9"/>
<path d="M148.5 238.5L139 221L110 239.5L112 266.5L148.5 238.5Z" fill="#283141"/>
<path d="M323.527 176.041C340.045 172.285 351.385 214.094 348.968 217.609C346.551 221.125 316.779 226.225 314.122 223.706C311.464 221.187 309.694 179.187 323.527 176.041Z" fill="#56E7D5"/>
<path d="M326.742 140.128C330.983 135.926 333.277 126.79 333.277 121.795C333.277 111.525 327.237 107.31 326.107 107.31C324.977 107.31 323.79 109.687 323.971 111.349C322.951 109.933 313.999 101.177 297.864 101.177C293.394 101.177 290.184 103.343 290.184 106.903C290.184 108.522 290.934 111.049 292.235 111.918C290.912 112.016 289.038 112.962 289.038 115.59C289.038 118.592 293.066 120.012 294.665 120.012C296.263 120.012 298.633 118.354 299.778 116.794C300.134 118.512 299.059 121.311 302.799 121.335C304.379 121.346 311.032 117.979 312.276 116.854C311.012 119.025 309.275 120.023 309.275 122.48C309.275 124.779 310.4 126.39 312.137 126.39C313.875 126.39 318.889 124.02 319.818 122.951C320.015 124.511 318.276 135.396 318.799 138.363C320.545 138.494 322.688 136.271 322.716 138.094" fill="#FE7523"/>
<path d="M323.5 149C327.09 149 330 146.09 330 142.5C330 138.91 327.09 136 323.5 136C319.91 136 317 138.91 317 142.5C317 146.09 319.91 149 323.5 149Z" fill="#FFCFC9"/>
<ellipse cx="304.185" cy="149.201" rx="12.7226" ry="10.4094" fill="#FFCFC9"/>
<path d="M4.67542 273.872H368.506" stroke="#EAF0F8" stroke-width="2" stroke-linecap="round" stroke-linejoin="round"/>
<ellipse cx="311.5" cy="131" rx="1.5" ry="2" fill="#D98378"/>
<path d="M298 144C299 145.667 302.5 148.4 308.5 146" stroke="#F69A8E" stroke-width="2" stroke-linecap="round" stroke-linejoin="round"/>
<path d="M98.5171 219.056L96.9999 176C103.473 176 107.948 184.945 109 186.5C120.5 203.5 116.197 250.565 113.5 273H96.811L98.5171 219.056Z" fill="#222B39"/>
<path d="M106.5 191L98.5 219L97 174.5L108 186L101.5 189.5L106.5 191Z" fill="#3C4961"/>
<ellipse cx="92" cy="137.5" rx="2" ry="2.5" fill="#A55129"/>
<ellipse cx="98.5" cy="155" rx="4.5" ry="4" fill="#BD6A43"/>
<path d="M105 139.5C105.333 141.167 105 144 102 146.5" stroke="#A55129" stroke-width="2" stroke-linecap="round" stroke-linejoin="round"/>
</g>
<defs>
<clipPath id="clip0_2_532">
<rect width="369.26" height="318.238" fill="white"/>
</clipPath>
</defs>
</svg>
