<svg width="428" height="379" viewBox="0 0 428 379" fill="none" xmlns="http://www.w3.org/2000/svg">
<path d="M323.133 63.0682C353.167 97.8369 376.375 134.624 378.623 173.584C380.795 212.544 361.937 253.754 331.902 281.305C301.945 308.857 260.735 322.751 225.424 316.928C190.189 311.03 160.698 285.419 123.289 257.867C85.9579 230.316 40.6349 200.825 42.0315 172.808C43.3509 144.713 91.391 118.015 128.799 83.1688C166.206 48.4002 192.904 5.5597 224.646 0.515097C256.388 -4.5295 293.176 28.299 323.133 63.0682Z" fill="#638BF0"/>
<ellipse cx="357.5" cy="290.5" rx="28.5" ry="3.5" fill="#3A68E2"/>
<path d="M323.133 63.0682C353.167 97.8369 376.375 134.624 378.623 173.584C380.795 212.544 361.937 253.754 331.902 281.305C301.945 308.857 260.735 322.751 225.424 316.928C190.189 311.03 160.698 285.419 123.289 257.867C85.9579 230.316 40.6349 200.825 42.0315 172.808C43.3509 144.713 91.391 118.015 128.799 83.1688C166.206 48.4002 192.904 5.5597 224.646 0.515097C256.388 -4.5295 293.176 28.299 323.133 63.0682Z" fill="#638BF0"/>
<path fill-rule="evenodd" clip-rule="evenodd" d="M247.752 318.075C240.16 318.487 232.668 318.123 225.424 316.928C223.171 316.551 220.942 316.094 218.733 315.56L218.5 313L246.5 311.5L247.752 318.075Z" fill="#3C3744"/>
<path d="M213 180C213 180 210.368 203.431 210.368 206.158C210.368 208.884 200.826 247.709 200.826 247.709L188 253L197.9 205.237L197.359 185.152L213 180Z" fill="#F0B69A"/>
<g clip-path="url(#clip0_308_575)">
<path d="M197.908 268.68C197.908 268.68 196.721 268.784 195.926 266.234C195.137 263.683 195.137 263.683 195.137 263.683C195.137 263.683 193.95 265.421 193.155 266.338C192.359 267.255 191.672 277.971 188.894 278.993C187.708 279.299 188.497 275.011 188.497 275.011C188.497 275.011 186.811 275.213 184.735 268.479C183.548 272.766 181.566 273.274 181.074 272.871C180.582 272.461 182.658 267.77 182.955 264.809C183.252 261.849 183.845 260.521 185.429 257.769C187.013 255.004 189.69 250 189.69 250L199 250.716L197.908 268.68Z" fill="#F0B69A"/>
<path d="M187.047 258.548C187.047 258.548 186.744 259.111 186.387 260.007C186.205 260.452 186.022 260.98 185.82 261.55C185.733 261.842 185.645 262.141 185.557 262.439C185.476 262.745 185.375 263.051 185.315 263.364C185.247 263.676 185.18 263.996 185.112 264.302C185.038 264.608 184.991 264.92 184.951 265.219C184.876 265.817 184.789 266.38 184.769 266.859C184.728 267.825 184.735 268.472 184.735 268.472C184.735 268.472 184.849 267.832 184.971 266.887C185.018 266.415 185.173 265.873 185.267 265.282C185.315 264.99 185.382 264.684 185.456 264.385C185.524 264.08 185.598 263.767 185.665 263.461C185.726 263.148 185.82 262.843 185.894 262.537C185.975 262.231 186.049 261.932 186.124 261.647C186.299 261.077 186.42 260.528 186.575 260.077C186.717 259.618 186.818 259.236 186.912 258.972C187 258.701 187.047 258.548 187.047 258.548Z" fill="#E4A485"/>
<path d="M188.888 260.883C188.888 260.883 188.47 261.696 187.964 262.968C187.829 263.28 187.715 263.635 187.573 264.003C187.438 264.371 187.317 264.774 187.189 265.185C187.142 265.393 187.088 265.608 187.034 265.831L186.96 266.157L186.919 266.505C186.832 266.971 186.892 267.457 187 267.916C187.223 268.826 187.56 269.674 187.809 270.487C187.937 270.897 188.058 271.286 188.16 271.661C188.261 272.037 188.335 272.398 188.402 272.732C188.449 273.065 188.497 273.378 188.517 273.649C188.551 273.927 188.53 274.163 188.537 274.365C188.51 274.761 188.497 274.99 188.497 274.99C188.497 274.99 188.544 274.768 188.605 274.372C188.611 274.17 188.658 273.927 188.645 273.642C188.652 273.357 188.632 273.044 188.598 272.697C188.517 272.009 188.355 271.21 188.106 270.383C187.863 269.556 187.546 268.694 187.351 267.825C187.243 267.401 187.175 266.964 187.256 266.533L187.283 266.213L187.351 265.893C187.398 265.678 187.445 265.469 187.485 265.268C187.607 264.858 187.701 264.462 187.816 264.087C187.93 263.711 188.032 263.357 188.146 263.037C188.362 262.391 188.537 261.849 188.672 261.474C188.807 261.098 188.888 260.883 188.888 260.883Z" fill="#E4A485"/>
<path d="M191.766 261.515C191.766 261.515 191.632 261.675 191.423 261.981C191.315 262.134 191.2 262.328 191.065 262.544C190.937 262.766 190.789 263.016 190.661 263.308C190.519 263.593 190.384 263.913 190.263 264.26C190.128 264.601 190.034 264.983 189.939 265.379C189.805 266.157 189.656 266.991 189.508 267.825C189.38 268.659 189.245 269.5 189.124 270.278C189.002 271.064 188.915 271.8 188.82 272.426C188.658 273.684 188.578 274.532 188.578 274.532C188.578 274.532 188.773 273.711 189.023 272.468C189.144 271.842 189.299 271.119 189.434 270.341C189.569 269.563 189.717 268.729 189.865 267.895C189.993 267.061 190.128 266.22 190.249 265.442C190.276 265.254 190.337 265.066 190.371 264.886C190.411 264.705 190.452 264.524 190.512 264.358C190.614 264.01 190.728 263.697 190.849 263.405C191.085 262.829 191.308 262.349 191.49 262.029C191.658 261.696 191.766 261.515 191.766 261.515Z" fill="#E4A485"/>
<path d="M197.53 260.758C197.53 260.758 197.321 260.883 197.052 261.119C196.782 261.348 196.452 261.689 196.148 262.05C195.852 262.419 195.582 262.808 195.407 263.121C195.225 263.433 195.144 263.67 195.144 263.67C195.144 263.67 195.36 263.544 195.623 263.308C195.892 263.079 196.223 262.738 196.526 262.377C196.823 262.009 197.092 261.619 197.267 261.307C197.443 260.994 197.53 260.758 197.53 260.758Z" fill="#F0B69A"/>
</g>
<g clip-path="url(#clip1_308_575)">
<path d="M205.977 213.182C200.917 213.875 195.653 212.205 191.079 210.023C190.196 209.602 189.336 209.148 188.475 208.682C188.623 208.125 188.758 207.568 188.906 207.011C189.992 202.739 193.57 190.125 194.6 185.841C204.223 145.739 214.457 134 217.887 133.523C227.34 132.193 226.309 144.068 225.121 150.955C223.434 160.693 217.762 177.602 214.151 186.795C212.679 190.557 205.513 212.864 205.513 212.864C205.513 212.864 205.694 212.989 205.977 213.182Z" fill="#352C38"/>
<path d="M204.008 207.614C201.608 225.92 196.332 243.852 188.057 260.17C187.479 261.33 191.532 261.011 192.279 261.057C194.362 261.159 196.445 261.261 198.517 261.364C202.581 261.557 206.645 261.761 210.721 261.955C213.087 262.068 215.657 262.114 217.547 260.625C219.755 258.875 220.241 255.648 220.547 252.761C221.328 245.455 222.54 238.068 222.925 230.727C223.072 227.784 222.743 224.886 222.958 221.875C223.208 218.364 223.853 214.739 223.853 211.216C224.396 203.67 224.974 196.136 225.551 188.591C225.709 186.568 225.868 184.534 226.026 182.511C226.762 173.114 227.487 163.705 228.223 154.307C228.596 149.5 228.97 144.705 229.343 139.898C229.513 137.693 229.966 135.511 230.011 133.295C230.079 129.83 228.098 125.193 224.057 127.75C223.332 128.205 222.721 128.841 222.109 129.466C218.181 133.511 214.309 137.636 210.574 141.875C207.177 145.727 203.577 149.409 203.566 155.011C203.555 159.659 204.358 164.193 204.789 168.795C205.241 173.648 205.479 178.523 205.513 183.398C205.558 191.477 205.06 199.58 204.008 207.614Z" fill="#201923"/>
</g>
<path d="M198.974 86.0946C199.087 82.9238 200.411 79.8763 202.571 77.5321C203.533 76.4957 204.632 75.6197 205.856 74.9288C206.506 74.571 207.168 74.2502 207.867 74.0035C208.479 73.7937 209.291 73.7444 209.503 73.0411C209.553 72.8684 209.503 72.634 209.366 72.5106C208.754 71.9801 207.955 72.4366 207.318 72.708C206.581 73.0164 205.881 73.3866 205.207 73.8061C203.883 74.6574 202.671 75.7061 201.697 76.9522C199.649 79.5555 198.724 82.8251 198.849 86.0823C198.849 86.181 198.962 86.181 198.974 86.0946Z" fill="#6D2B29"/>
<path d="M200.273 87.5258C199.911 91.8687 200.66 96.2734 202.284 100.37C202.709 101.443 203.246 102.553 204.32 103.195C207.73 105.218 210.128 100.962 211.826 99.1234C214.512 96.224 216.198 92.6707 216.548 89.0434C216.86 85.8725 217.959 82.6647 218.059 79.5062C218.134 77.1867 215.836 74.9412 213.762 73.621C212.101 72.5599 209.778 72.0418 207.805 72.8067C206.144 73.4359 205.032 74.8054 204.145 76.1749C201.822 79.7529 200.598 83.6147 200.273 87.5258Z" fill="#6D2B29"/>
<path d="M239.89 107.229C239.89 107.229 238.973 112.825 238.903 114.579C238.684 117.513 239.925 135.318 240.372 138.362C238.618 140.313 225.94 142.107 224.519 140.993C224.541 138.546 223.295 125.911 222.817 124.157C213.318 122.929 205.872 111.509 205.872 97.603C205.866 94.8174 205 92.5 205.5 88C206 84.5 206 81 209 78.5L215.5 79C218.188 87.6789 232.737 97.3092 238.715 98.0021L238.066 99.0283C238.912 97.3311 240.421 96.204 242.149 96.204C244.78 96.204 246.946 98.8704 246.946 102.168C246.946 105.466 244.797 108.133 242.149 108.133C241.507 108.119 240.877 107.963 240.303 107.676C239.729 107.39 239.225 106.979 238.829 106.475" fill="#F0B69A"/>
<g clip-path="url(#clip2_308_575)">
<path d="M214.191 113.244C213.969 115.553 215.969 117.702 217.957 118.107C220.458 118.629 223.387 117.134 224.369 114.597C225.234 112.343 222.898 109.732 220.729 111.229C219.967 111.758 219.133 112.743 218.176 112.85C217.183 112.956 216.123 112.457 215.12 112.426C214.703 112.442 214.24 112.815 214.191 113.244Z" fill="#212F47"/>
<path d="M224.354 114.603C224.417 114.433 224.465 114.27 224.492 114.098C221.187 113.366 219.014 116.153 217.936 118.099C217.942 118.114 217.942 118.114 217.957 118.107C220.444 118.635 223.387 117.134 224.354 114.603Z" fill="#F15E6B"/>
</g>
<path d="M239.5 314.5L218.5 313C218.5 313 212 236.957 212 235C213.677 236.677 213.398 237.236 220.385 239.193C224.578 243.665 252 312.5 252 312.5L239.5 314.5Z" fill="#3C3744"/>
<path d="M275.275 235L278 311.5L237 316.5L216.352 239.128C226.168 240.87 259.343 242.267 275.275 235Z" fill="#474151"/>
<path d="M265.997 236.278C263.936 227.749 260.47 215.985 257.94 206.395C255.652 197.657 246.27 192.384 248.692 183.868C251.409 174.344 250.052 163.145 252.769 153.621C253.786 150.07 261.019 143.097 260.858 139.442C255.153 133.771 253.651 135.644 246.5 129.5C240.076 128.465 234.198 123.402 228.939 127.228C224.696 130.306 210.496 144.285 209.038 148.398C207.351 153.154 207.726 155.525 208.235 158.316C210.429 170.106 212.745 200.827 212.477 202.229C212.236 203.435 210.898 227.88 207.084 235.295C206.08 237.234 214.11 240.392 231.093 241.649C257.111 243.562 266.185 237.064 265.997 236.278Z" fill="white"/>
<path fill-rule="evenodd" clip-rule="evenodd" d="M278.097 312.467C264.532 316.716 250.662 318.707 237.329 318.145L237 316.5L250 309L268 307.5L278 311.5L278.097 312.467Z" fill="#474151"/>
<g clip-path="url(#clip3_308_575)">
<g clip-path="url(#clip4_308_575)">
<path d="M241.46 103.18C240.36 102.72 237.89 103.24 236.78 103.38C233.51 103.8 230.3 104.77 227.41 106.31C225.39 107.44 225.07 108.43 225.19 109.77C225.55 113.64 226.39 117.15 226.15 120.99C225.95 124.19 225.56 127.82 224.07 130.72C222.76 133.26 220.84 135.4 218.99 137.55C217.32 139.49 215.25 141.56 214.32 143.98C213.33 146.54 214.67 148.81 217.31 149.41C220.51 150.14 223.78 148.35 226.14 146.06C230.88 141.46 235.88 129.77 243.6 128.9C242.4 128.91 238.93 121.58 238.99 119.26C239.11 113.93 240.83 108.48 241.46 103.18Z" fill="#F0B69A"/>
</g>
<path d="M238.874 181.576C238.939 182.623 239.005 183.67 239.059 184.717C240.027 202.615 242.005 242.113 242.973 260.011C252.496 260.032 266.335 256.632 275 252.67C275.054 252.638 266.259 217.112 266.031 215.666C265.042 209.61 264.379 203.511 264.031 197.401C263.715 191.702 263.868 187.405 265.27 181.9C266.749 176.114 268.477 170.403 269.64 164.531C270.999 157.698 271.51 150.606 270.097 143.676C269.01 138.332 263.879 134.91 259.78 132.201C254.518 128.736 251.779 125.53 246.082 129.804C242.092 132.784 240.831 134.727 239.918 139.671C237.32 153.812 237.961 167.176 238.874 181.576Z" fill="#352C38"/>
<path d="M264.585 147.519C261.595 145.284 258.954 142.413 255.801 140.426C254.072 139.336 251.909 138.505 249.822 138.527C247.321 138.559 246.636 140.524 246.539 142.639C246.31 147.713 248.093 153.294 249.169 158.238C251.974 171.137 255.323 184.426 263.172 195.329C263.4 195.642 263.628 195.955 263.857 196.257C263.628 191.119 263.846 187.027 265.15 181.889C266.629 176.103 268.357 170.393 269.521 164.52C270.303 160.602 270.782 156.608 270.804 152.603C268.879 150.768 266.738 149.138 264.585 147.519Z" fill="#201923"/>
</g>
<path d="M254.303 141.765C249.713 144.355 248.278 150.336 251.252 154.68C251.264 154.706 251.29 154.731 251.303 154.757C255.997 161.576 262.656 166.719 268.72 172.235C276.905 179.698 283.793 186.053 292.547 195.32C292.922 197.872 289.146 201.804 287.414 204.833C280.987 216.072 268.332 242.289 264.363 243.733L274 252C275.345 250.389 299.898 214.504 309.582 202.001C311.755 199.192 310.898 195.05 310.239 192.923C309.928 191.917 309.657 191.943 306.993 188.179C301.524 180.472 272.871 147.062 263.173 141.636C260.445 140.102 257.083 140.192 254.355 141.739L254.303 141.765Z" fill="#F0B69A"/>
<path d="M264.673 256.893C265.694 256.88 266.729 256.803 267.711 256.558C269.586 256.094 270.918 254.792 272.366 253.619C273.53 252.678 275.405 251.596 274.383 249.791C274.073 249.237 273.504 248.811 273.375 248.193C273.233 247.548 273.595 246.865 273.401 246.246C273.077 245.215 271.603 245.112 270.918 244.287C270.259 243.501 270.491 242.302 270.129 241.348C269.78 240.446 268.862 239.802 267.905 239.789C266.651 239.763 265.992 240.781 265.048 241.4C263.755 242.251 262.423 242.921 260.91 243.295C259.695 243.591 258.428 243.462 257.523 244.468C256.579 245.525 257.316 247.213 258.777 247.265C258.208 247.69 257.626 248.115 257.148 248.644C256.915 248.902 256.682 249.211 256.682 249.559C256.682 250.075 258.428 251.08 258.945 250.9C258.221 251.144 257.717 252.33 258.234 252.975C258.816 253.697 260.729 254.173 261.583 254.47C261.052 254.521 260.716 255.14 260.833 255.656C260.949 256.171 261.402 256.558 261.906 256.738C262.41 256.919 262.953 256.919 263.483 256.919C263.884 256.893 264.272 256.893 264.673 256.893Z" fill="#F0B69A"/>
<path d="M266.263 245.873C265.552 246.066 264.815 246.13 264.091 246.311C263.419 246.478 262.772 246.659 262.1 246.788C261.44 246.917 260.781 247.007 260.109 247.02C259.747 247.02 259.385 247.007 259.023 246.955C258.686 246.904 258.35 246.775 258.001 246.788C257.561 246.801 257.406 247.368 257.781 247.613C258.35 247.974 259.294 247.974 259.953 247.974C260.678 247.974 261.415 247.883 262.126 247.742C262.863 247.587 263.6 247.342 264.298 247.046C264.996 246.749 265.604 246.259 266.276 245.911C266.302 245.898 266.289 245.86 266.263 245.873Z" fill="#E4A485"/>
<path d="M267.181 249.314C267.078 249.636 266.199 249.585 265.914 249.636C265.552 249.701 265.19 249.778 264.828 249.868C264.13 250.049 263.432 250.165 262.72 250.281C262.009 250.384 261.285 250.435 260.561 250.448C260.186 250.448 259.824 250.435 259.449 250.423C259.087 250.397 258.725 250.307 258.376 250.435C258.014 250.564 257.923 251.041 258.273 251.26C258.622 251.48 259.048 251.467 259.449 251.48C259.824 251.492 260.186 251.492 260.561 251.492C261.35 251.467 262.126 251.389 262.902 251.26C263.677 251.132 264.453 250.912 265.19 250.642C265.513 250.526 265.824 250.371 266.134 250.191C266.406 250.023 266.936 249.366 267.272 249.482C267.569 249.572 267.298 248.979 267.181 249.314Z" fill="#E4A485"/>
<path d="M268.358 252.652C268.177 252.678 268.009 252.64 267.841 252.665C267.699 252.691 267.556 252.73 267.414 252.768C267.104 252.859 266.806 252.949 266.496 253.052C265.927 253.245 265.345 253.413 264.763 253.555C264.182 253.697 263.587 253.813 263.005 253.89C262.358 253.98 261.699 253.954 261.065 254.07C260.432 254.186 260.652 255.076 261.208 255.127C261.828 255.179 262.527 255.024 263.147 254.921C263.807 254.805 264.453 254.663 265.087 254.47C265.694 254.289 266.302 254.057 266.884 253.813C267.181 253.684 267.453 253.542 267.724 253.361C267.854 253.284 267.983 253.194 268.086 253.091C268.203 252.975 268.267 252.82 268.384 252.704C268.384 252.665 268.371 252.652 268.358 252.652Z" fill="#E4A485"/>
<path d="M288.186 198.195C288.186 198.195 286.337 202.307 285.69 202.114C289.738 206.715 299.406 210.917 306.014 212.58C308.251 208.378 312.737 200.089 314.134 195.539C314.664 193.812 314.158 191.247 313.693 189.494C313.188 187.599 310.756 183.745 309.476 182.353C307.937 180.69 306.308 179.105 304.704 177.494C301.162 173.949 297.58 170.443 294.076 166.847C261.415 133.257 252.816 132.755 249.157 134.263C239.097 138.439 246.545 155.608 251.704 161.653C258.997 170.199 262.946 177.559 271.829 184.455C275.45 187.278 288.186 198.195 288.186 198.195Z" fill="#352C38"/>
<circle cx="223" cy="98" r="2" fill="#823F1F"/>
<circle cx="209" cy="99" r="2" fill="#823F1F"/>
<path d="M216 104C216 105.167 216.5 106.5 217.5 107.5" stroke="#D38C6A" stroke-width="2" stroke-linecap="round" stroke-linejoin="round"/>
<g clip-path="url(#clip5_308_575)">
<path d="M237 98.4048C237 98.4048 242.347 91.0238 247.337 95.3095C252.327 99.5952 245.436 110.429 238.545 110.071" fill="#F0B69A"/>
<path d="M244.723 110.905C244.723 109.238 243.297 106.143 241.634 106.143C239.97 106.143 238.545 109.238 238.545 110.905C238.545 112.571 239.97 114 241.634 114C243.297 114 244.723 112.69 244.723 110.905Z" fill="#FFE779"/>
<path d="M245.554 100.31C245.079 100.071 244.723 99.7143 244.366 99.5952C244.01 99.3571 243.653 99.4762 243.535 99.5952C243.416 99.5952 243.416 99.7143 243.297 99.8333C243.178 99.9524 243.059 100.071 243.059 100.19C242.941 100.429 242.941 100.667 242.822 101.024C242.703 101.738 242.822 102.69 242.584 103.762C242.465 104.357 242.109 104.952 241.515 105.31C240.921 105.667 240.327 105.429 239.852 105.31C240.327 105.071 240.683 104.833 240.802 104.476C240.921 104.238 240.921 103.881 240.921 103.524C240.921 102.81 240.683 101.857 240.802 100.786C240.802 100.19 241.04 99.5952 241.515 99C241.752 98.7619 241.99 98.5238 242.228 98.2857C242.584 98.1667 242.941 97.9286 243.297 97.9286C244.129 97.9286 244.723 98.4048 244.96 98.881C245.436 99.3571 245.554 99.8333 245.554 100.31Z" fill="#22272E"/>
</g>
<path d="M207 92C207.606 91.2454 209.455 90.1889 212 92" stroke="#893530" stroke-width="2" stroke-linecap="round"/>
<path d="M220 92C220.606 91.2454 222.455 90.1889 225 92" stroke="#893530" stroke-width="2" stroke-linecap="round"/>
<g clip-path="url(#clip6_308_575)">
<path d="M218.534 88.6719C220.232 92.001 221.869 95.367 224.429 98.217C226.877 100.932 230.287 103.192 233.847 104.224C236.282 104.937 240.042 106.497 241.453 108.732C241.903 109.445 243.027 116.656 242.078 117C248.31 114.826 253.419 110.145 258.227 105.87C257.39 101.349 256.566 96.8411 255.729 92.3204C254.693 86.731 253.643 81.0801 251.233 75.9206C248.098 69.2133 242.477 63.4519 235.37 61.0932C229.113 59.0049 221.656 59.8771 216.385 63.931C212.051 67.2601 206.768 73.8814 209.166 79.606C212.251 77.1491 216.086 84.0407 217.447 86.5835C217.822 87.2715 218.171 87.9717 218.534 88.6719Z" fill="#893530"/>
<path d="M243.389 105.133C236.869 107.762 229 106.521 223.83 101.755C221.369 99.4823 219.708 96.6078 218.821 93.4138C217.859 89.9127 217.647 86.2642 216.598 82.7877C215.624 79.5323 213.925 76.3998 210.94 74.5448C210.278 74.1272 209.653 75.1713 210.315 75.589C216.748 79.5692 215.936 88.3894 217.972 94.6422C219.983 100.846 225.328 105.821 231.898 107.025C235.832 107.75 239.879 107.037 243.389 105.17C243.414 105.158 243.401 105.133 243.389 105.133Z" fill="#893530"/>
<path d="M216.76 61.5356C213.937 63.3905 211.652 65.8474 210.265 68.9185C208.916 71.8914 208.279 75.3925 209.304 78.5496C209.353 78.7216 209.628 78.697 209.628 78.5004C209.553 75.3556 209.803 72.2722 210.952 69.3117C212.114 66.3142 214.125 63.4765 216.81 61.6216C216.885 61.5847 216.823 61.4864 216.76 61.5356Z" fill="#893530"/>
<path d="M260.188 104.335C258.952 99.7526 257.465 95.2565 255.917 90.7726C254.393 86.3748 253.006 81.8418 250.958 77.6528C250.858 77.444 250.558 77.6037 250.596 77.8002C251.62 82.4069 253.419 86.8784 255.005 91.3254C256.566 95.7233 258.215 100.084 260.076 104.372C260.113 104.445 260.201 104.396 260.188 104.335Z" fill="#893530"/>
</g>
<g clip-path="url(#clip7_308_575)">
<path d="M379.389 232.544C385.622 226.631 383.4 217.362 383.076 216.148C383.07 216.148 383.065 216.148 383.065 216.148C382.903 216.184 382.804 216.328 382.819 216.487C383.17 219.302 383.342 226.157 377.407 228.977C375.503 229.883 374.034 230.609 372.47 231.694C369.009 234.098 366.195 237.366 364.328 241.143C362.561 244.725 361.667 248.368 361.667 251.981C361.667 252.079 361.75 252.161 361.85 252.161H362.623C365.787 238.59 375.592 236.141 379.389 232.544Z" fill="#32714E"/>
<path d="M383.442 216.353C383.389 216.199 383.238 216.117 383.076 216.148C383.4 217.362 385.622 226.631 379.389 232.544C375.592 236.141 365.787 238.59 362.623 252.161H363.722C363.805 252.161 363.879 252.105 363.899 252.022C363.915 251.955 365.447 245.466 372.219 242.157C383.693 236.547 387.468 227.866 383.442 216.353Z" fill="#539671"/>
<path d="M330.871 225.092C322.551 227.243 319.131 220.548 319.131 220.548C319.058 220.594 319.026 220.676 319.058 220.759C322.807 231.422 326.896 230.712 331.634 229.883C334.113 229.451 336.67 229.003 339.457 230.156C352.494 235.554 351.009 251.801 350.993 251.966C350.988 252.017 351.004 252.063 351.04 252.105C351.077 252.141 351.124 252.161 351.176 252.161H352.358C352.447 252.161 352.526 252.099 352.536 252.012C352.897 249.712 353.158 247.535 353.331 245.486C353.995 221.438 338.861 223.033 330.871 225.092Z" fill="#334C59"/>
<path d="M348.295 223.965C342.778 219.251 334.348 221.752 329.814 223.095C329.501 223.188 329.203 223.275 328.931 223.358C323.78 224.845 319.397 220.62 319.356 220.573C319.293 220.517 319.204 220.506 319.131 220.548C319.131 220.548 322.551 227.243 330.871 225.092C338.861 223.028 353.995 221.433 353.326 245.481C354.209 234.808 352.526 227.583 348.295 223.965Z" fill="#3D616F"/>
<path d="M353.132 227.181C351.684 223.903 350.575 220.491 349.942 216.976C347.27 202.098 352.395 196.36 352.63 196.103C352.583 196.051 352.536 196.031 352.468 196.067C352.39 196.108 344.734 200.41 345.11 214.002C345.225 218.108 346.078 222.272 347.647 226.384C348.975 229.857 350.533 233.233 352.28 236.419C356.521 244.159 353.969 251.847 353.943 251.924C353.922 251.981 353.932 252.038 353.969 252.084C354.005 252.13 354.058 252.161 354.115 252.161H355.946C359.057 243.325 355.423 232.358 353.132 227.181Z" fill="#32714E"/>
<path d="M356.102 219.05C349.283 200.848 352.62 196.329 352.651 196.283C352.703 196.206 352.703 196.18 352.651 196.113C352.646 196.108 352.641 196.108 352.635 196.103C352.4 196.36 347.275 202.098 349.947 216.976C350.58 220.491 351.694 223.908 353.137 227.181C355.423 232.358 359.062 243.325 355.951 252.161H357.823C357.901 252.161 357.969 252.115 357.995 252.043C358.043 251.899 363.01 237.484 356.102 219.05Z" fill="#539671"/>
<path d="M372.674 220.702C372.674 220.687 372.68 220.671 372.674 220.656C372.653 220.584 372.591 220.527 372.512 220.522C372.423 220.517 363.727 219.946 360.589 229.79C360.579 229.832 359.313 233.738 359.313 237.793C359.313 238.158 359.313 238.544 359.319 238.951C359.345 243.119 359.376 248.821 357.185 251.878C357.148 251.935 357.143 252.007 357.174 252.063C357.206 252.125 357.269 252.161 357.337 252.161H358.973C363.962 244.354 362.984 237.005 363.565 232.209C364.485 221.397 372.497 220.712 372.674 220.702Z" fill="#334C59"/>
<path d="M363.56 232.209C362.979 237.005 363.957 244.354 358.968 252.161H360.375C360.432 252.161 360.49 252.135 360.521 252.089C360.584 252.007 366.619 243.716 367.016 236.347C367.089 235.014 367.131 233.83 367.173 232.765C367.419 226.239 367.497 224.268 372.601 220.851C372.653 220.815 372.674 220.764 372.674 220.702C372.497 220.712 364.485 221.397 363.56 232.209Z" fill="#3D616F"/>
<path d="M351.433 249.068C350.863 245.157 349.111 242.09 346.198 239.928C337.93 233.784 322.912 237.026 322.76 237.057C322.681 237.072 322.629 237.139 322.619 237.211C322.619 237.216 322.619 237.216 322.619 237.222C324.622 237.011 345.973 235.055 351.433 249.068Z" fill="#539671"/>
<path d="M351.433 249.068C345.973 235.055 324.622 237.011 322.619 237.227C322.619 237.299 322.655 237.366 322.723 237.397C325.448 238.606 326.745 240.314 327.89 241.827C329.72 244.241 331.3 246.325 337.695 245.425C341.643 244.869 344.781 245.43 347.024 247.097C349.691 249.084 350.115 251.981 350.12 252.007C350.131 252.094 350.209 252.161 350.298 252.161H351.422C351.522 252.161 351.605 252.079 351.605 251.981V250.751C351.569 250.175 351.511 249.614 351.433 249.068Z" fill="#32714E"/>
<path d="M346.109 276.822H350.057L343.547 290.897C343.521 290.959 343.453 291 343.385 291H342.543C342.485 291 342.433 290.974 342.396 290.933C342.36 290.887 342.349 290.83 342.365 290.774L346.109 276.822Z" fill="#DB9D55"/>
<path d="M354.664 276.822H358.639L357.357 290.84C357.347 290.928 357.269 291 357.174 291H356.129C356.034 291 355.956 290.928 355.946 290.84L354.664 276.822Z" fill="#DB9D55"/>
<path d="M370.907 290.933C370.87 290.974 370.818 291 370.76 291H369.918C369.845 291 369.783 290.959 369.751 290.897L363.246 276.822H367.194L370.938 290.774C370.954 290.83 370.938 290.887 370.907 290.933Z" fill="#DB9D55"/>
<path d="M370.53 252.902V250.509C370.53 250.411 370.447 250.329 370.347 250.329H356.652H342.951C342.851 250.329 342.768 250.411 342.768 250.509V252.902H356.652H370.53Z" fill="#344B59"/>
<path d="M377.695 263.565C377.695 263.56 377.695 263.55 377.695 263.545C377.695 263.54 377.689 263.54 377.689 263.534C377.491 257.915 371.294 253.437 370.53 252.907H356.652H342.768C342.004 253.437 335.818 257.915 335.609 263.524C335.603 263.534 335.603 263.54 335.598 263.55C335.598 263.555 335.598 263.56 335.598 263.565C349.571 265.377 363.722 265.377 377.695 263.565Z" fill="#FFC7B5"/>
<path d="M335.603 263.56C335.603 263.581 335.603 263.596 335.609 263.612C335.603 263.843 335.603 264.075 335.619 264.311C335.88 268.3 339.201 271.902 345.487 275.021H356.652H367.821C374.107 271.902 377.428 268.3 377.689 264.311C377.705 264.064 377.705 263.817 377.7 263.576C377.7 263.57 377.7 263.57 377.7 263.565C363.722 265.377 349.571 265.377 335.603 263.56Z" fill="#F0A0A4"/>
<path d="M345.482 275.026H345.487V276.889H356.652H367.816V275.026H367.821H356.652H345.482Z" fill="#344B59"/>
</g>
<defs>
<clipPath id="clip0_308_575">
<rect width="18" height="29" fill="white" transform="translate(181 250)"/>
</clipPath>
<clipPath id="clip1_308_575">
<rect width="42" height="135" fill="white" transform="translate(188 127)"/>
</clipPath>
<clipPath id="clip2_308_575">
<rect width="10.0497" height="7.45311" fill="white" transform="translate(213.536 113.087) rotate(-24.8025)"/>
</clipPath>
<clipPath id="clip3_308_575">
<rect width="63" height="160" fill="white" transform="translate(212 100)"/>
</clipPath>
<clipPath id="clip4_308_575">
<rect width="29.6" height="46.58" fill="white" transform="translate(214 103)"/>
</clipPath>
<clipPath id="clip5_308_575">
<rect width="12" height="20" fill="white" transform="translate(237 94)"/>
</clipPath>
<clipPath id="clip6_308_575">
<rect width="63" height="57" fill="white" transform="translate(198 60)"/>
</clipPath>
<clipPath id="clip7_308_575">
<rect width="66" height="95" fill="white" transform="translate(319 196)"/>
</clipPath>
</defs>
</svg>
