<svg width="200" height="191" viewBox="0 0 200 191" fill="none" xmlns="http://www.w3.org/2000/svg">
<path d="M166.931 37.4489C184.766 58.0938 198.546 79.9374 199.881 103.071C201.17 126.205 189.973 150.675 172.139 167.034C154.351 183.394 129.881 191.644 108.914 188.186C87.992 184.684 70.4807 169.476 48.2681 153.117C26.1014 136.758 -0.810566 119.246 0.0187019 102.61C0.802118 85.9282 29.3275 70.0754 51.5397 49.3842C73.7515 28.7392 89.6043 3.30131 108.452 0.305916C127.3 -2.68948 149.144 16.8035 166.931 37.4489Z" fill="#638BF0"/>
<path d="M112.553 123.176H74.4487C71.5786 123.176 69.252 125.503 69.252 128.373C69.252 131.243 71.5786 133.569 74.4487 133.569H112.553C115.423 133.569 117.75 131.243 117.75 128.373C117.75 125.503 115.423 123.176 112.553 123.176Z" fill="white" stroke="#D8BAA3" stroke-width="2" stroke-miterlimit="10"/>
<path d="M72.3881 189.496C72.3427 189.497 72.2976 189.489 72.2559 189.47C72.2142 189.452 72.1769 189.426 72.1464 189.392C72.1159 189.358 72.0931 189.318 72.0793 189.275C72.0656 189.232 72.0613 189.186 72.0667 189.141L79.8868 133.569H105.369L72.6714 189.338C72.6421 189.387 72.6006 189.427 72.5509 189.455C72.5012 189.483 72.4451 189.497 72.3881 189.496V189.496Z" stroke="#D8BAA3" stroke-width="2" stroke-miterlimit="10"/>
<path d="M114.304 189.496C114.35 189.498 114.395 189.489 114.437 189.47C114.479 189.452 114.516 189.425 114.547 189.391C114.577 189.356 114.599 189.316 114.613 189.272C114.626 189.228 114.629 189.182 114.623 189.137L105.5 133.569H80.0176L114.026 189.343C114.055 189.39 114.096 189.429 114.145 189.456C114.194 189.483 114.248 189.497 114.304 189.496V189.496Z" stroke="#D8BAA3" stroke-width="2" stroke-miterlimit="10"/>
<path d="M122.756 168.584C124.524 168.759 127.386 169.108 130.801 168.784C129.924 172.166 129.522 175.399 128.884 178.271C128.472 180.121 130.983 182.625 131.744 184.436C131.725 184.426 131.705 184.417 131.685 184.409C128.204 183.854 123.542 187.146 124.022 182.007C124.482 176.863 123.324 173.089 122.756 168.584Z" fill="#B65A18"/>
<path d="M124.127 178.224C122.929 178.224 120.724 180.387 120.917 183.85C121.025 185.893 121.362 187.917 121.924 189.883H135.894C136.549 184.935 131.684 184.401 131.684 184.401C128.202 183.846 123.716 187.138 124.196 182L124.127 178.224Z" fill="#642648"/>
<path d="M113.05 168.715C114.818 168.891 118.598 169.108 122.012 168.784C121.136 172.166 120.621 178.271 120.621 178.271C120.209 180.121 122.719 182.625 123.48 184.436C123.461 184.426 123.441 184.417 123.421 184.409C119.94 183.854 115.278 187.146 115.758 182.007C116.219 176.863 113.05 168.715 113.05 168.715Z" fill="#C36F0B"/>
<path d="M115.601 178.224C114.403 178.224 112.461 180.387 112.653 183.85C112.761 185.892 113.099 187.916 113.661 189.883H127.63C128.286 184.935 123.421 184.401 123.421 184.401C119.938 183.846 115.453 187.138 115.933 182L115.601 178.224Z" fill="#722D54"/>
<path d="M84.9805 94.1648C84.9805 94.1648 72.9777 108.691 73.8316 118.379C74.6855 128.067 84.6356 130.932 102.95 130.718C102.95 130.718 103.487 145.249 112.997 168.755C112.997 168.755 117.411 169.608 122.835 168.755C122.835 168.755 127.425 169.218 130.836 168.733C130.836 168.733 138.107 121.206 137.223 116.385C136.052 109.998 112.905 104.236 106.914 102.852L101.905 94.1648C101.905 94.1648 91.847 95.4424 84.9805 94.1648Z" fill="#3F4D90"/>
<path d="M98.4341 108.471C98.4341 108.471 117.631 113.508 119.975 119.682C122.319 125.855 122.439 169.28 122.439 169.28" stroke="white" stroke-width="2" stroke-miterlimit="10"/>
<path d="M108.139 75.9868C108.139 75.9868 107.394 86.3658 101.856 94.1898C101.856 94.1898 92.8054 95.7336 84.9355 94.1898C84.9355 94.1898 77.1378 85.9894 74.9028 77.1017C74.9028 77.1017 67.4776 62.0414 70.8367 59.4863C74.1958 56.9312 82.5536 52.5346 82.5536 52.5346L99.5538 53.3688C101.652 54.6437 106.126 56.7279 110.598 59.0692L108.139 75.9868Z" fill="#F0E1D4"/>
<path d="M94.3626 72.5411C95.0399 72.5411 95.589 71.992 95.589 71.3147C95.589 70.6374 95.0399 70.0883 94.3626 70.0883C93.6853 70.0883 93.1362 70.6374 93.1362 71.3147C93.1362 71.992 93.6853 72.5411 94.3626 72.5411Z" fill="#F0E1D4" stroke="white" stroke-width="2" stroke-linejoin="round"/>
<path d="M94.3626 77.5044C95.0399 77.5044 95.589 76.9553 95.589 76.278C95.589 75.6006 95.0399 75.0516 94.3626 75.0516C93.6853 75.0516 93.1362 75.6006 93.1362 76.278C93.1362 76.9553 93.6853 77.5044 94.3626 77.5044Z" fill="#F0E1D4" stroke="white" stroke-width="2" stroke-linejoin="round"/>
<path d="M94.3626 82.4663C95.0399 82.4663 95.589 81.9172 95.589 81.2399C95.589 80.5626 95.0399 80.0135 94.3626 80.0135C93.6853 80.0135 93.1362 80.5626 93.1362 81.2399C93.1362 81.9172 93.6853 82.4663 94.3626 82.4663Z" fill="#F0E1D4" stroke="white" stroke-width="2" stroke-linejoin="round"/>
<path d="M110.588 59.0679C115.058 61.4105 128.211 91.5573 122.737 94.7446C111.371 101.372 108.139 75.9881 108.139 75.9881L110.588 59.0679Z" fill="#F0E1D4"/>
<path d="M117.955 95.6851C119.489 96.3409 123.449 95.1329 127.85 92.2499C132.25 89.3669 127.258 87.4637 127.258 87.4637C127.258 87.4637 121.408 85.1159 117.839 86.8079C114.27 88.4999 115.015 94.4194 117.955 95.6851Z" fill="#B65A18"/>
<path d="M141.71 80.9776H117.683L91.3193 98.2349H115.345L141.71 80.9776Z" fill="white" stroke="#3F4D79" stroke-width="2" stroke-linejoin="round"/>
<path d="M132.826 88.0972C132.826 87.4702 128.842 83.7819 127.317 85.1749C126.679 85.7572 126.642 90.7585 126.701 91.6609C126.887 94.5334 132.794 91.3133 132.826 88.0972Z" fill="#C36F0B"/>
<path d="M70.8261 59.4863C69.4607 60.5698 54.9644 82.6395 60.0942 92.8021C65.8812 104.274 89.3911 94.7486 89.3911 94.7486C89.3911 94.7486 86.4085 93.8304 88.3248 89.9978C88.3248 89.9978 78.5976 84.822 70.7737 86.3659C70.7737 86.3659 76.8413 76.3055 77.4801 72.3667C78.1189 68.4278 75.7238 55.6012 70.8261 59.4863Z" fill="#F0E1D4"/>
<path d="M94.4722 83.2822L98.756 92.8506" stroke="#722D54" stroke-width="2" stroke-miterlimit="10"/>
<path d="M88.331 89.6908C88.331 89.6908 92.6424 87.2328 94.3646 88.1536C96.252 89.1609 98.5159 92.3509 98.7232 92.8873C98.9304 93.4238 98.8714 93.9812 98.8386 94.5557C98.8058 95.1302 94.9037 95.0974 94.1534 95.0542C93.4031 95.0109 89.3764 95.4883 88.6734 94.7997C86.0933 92.2735 88.331 89.6908 88.331 89.6908Z" fill="#C36F0B"/>
<path d="M94.1519 95.0541C94.9074 95.0974 98.357 95.1407 98.7964 94.7315C99.6686 93.9222 99.1689 92.7128 98.7321 92.2393C98.3321 91.8039 96.2033 89.1609 94.363 88.1575C94.363 88.1575 96.4971 91.8708 94.1519 95.0581" fill="#B65A18"/>
<path d="M87.0606 24.8891C87.0606 24.8891 85.1443 21.8015 87.0606 20.2052C88.9769 18.6089 89.7652 16.0171 93.2345 16.0001C96.818 15.983 98.2476 18.7768 99.8885 18.5014C102.118 18.1276 103.682 17.4088 106.514 18.9027C108.78 20.099 108.875 24.5835 111.173 24.3566C113.001 24.1769 115.031 24.2923 116.069 26.324C116.856 27.8626 116.016 32.0192 117.186 33.1367C118.356 34.2542 121.121 34.6189 121.339 37.5006C121.628 41.3948 117.562 41.968 118.624 45.0596C120.022 49.1257 118.05 51.6781 114.579 52.1424C112.138 52.4664 107.849 48.8371 106.276 51.3436C104.934 53.4803 102.124 54.4313 98.6687 53.0488C95.2138 51.6663 93.0798 52.09 90.951 52.995C88.8222 53.9 86.2133 55.1763 84.457 53.6325C82.7007 52.0887 80.5811 52.0454 78.2424 53.0121C74.9974 54.3539 71.515 52.1477 71.9466 49.2162C72.3046 46.7936 68.9796 46.4879 68.594 43.7335C68.0903 40.1356 73.3841 39.2096 71.8403 37.6658C70.2965 36.122 70.3516 31.6086 74.9253 31.0105C79.2642 30.4465 78.3356 27.7432 79.5593 25.8951C80.5916 24.35 83.8143 22.3878 87.0606 24.8891Z" fill="#722D54"/>
<path d="M69.9815 36.8185C68.5387 35.1842 68.9991 30.1553 73.6003 29.8418C77.9655 29.5454 77.2021 26.7896 78.5387 25.0255C79.6641 23.542 83.4364 21.7713 87.0067 24.8694" stroke="#722D54" stroke-width="2" stroke-miterlimit="10"/>
<path d="M87.6794 38.1577C87.6466 40.9121 87.8184 48.5079 82.543 52.5333C82.543 52.5333 92.0157 57.2906 94.1537 67.8297C94.1537 67.8297 95.6581 56.7214 99.5432 53.3675C99.5432 53.3675 94.9393 50.7573 95.9506 38.1524L87.6794 38.1577Z" fill="#C36F0B"/>
<path d="M96.8175 49.0732C96.1617 49.666 95.4219 50.0044 94.6192 50.0044C91.2955 50.0044 87.9862 44.9415 87.6675 39.5283C87.678 38.9958 87.678 38.5315 87.6832 38.1577H95.9544C95.5386 43.2822 96.0567 46.7568 96.8175 49.0732Z" fill="#B65A18"/>
<path d="M87.3804 35.6656C87.4172 34.2805 87.9051 27.0428 93.7668 27.3091C99.6286 27.5753 100.58 33.483 100.055 38.2206C99.5302 42.9583 96.6446 46.1509 94.626 45.9384C92.6074 45.7259 87.2204 41.5207 87.3804 35.6656Z" fill="#C36F0B"/>
</svg>
