<svg width="151" height="151" viewBox="0 0 151 151" fill="none" xmlns="http://www.w3.org/2000/svg">
<circle cx="75.5" cy="75.5" r="75.5" fill="#F5F5F5"/>
<mask id="path-2-inside-1_1301_1850" fill="white">
<path fill-rule="evenodd" clip-rule="evenodd" d="M78 131.891C108.044 130.583 132 105.812 132 75.4457C132 45.0793 108.044 20.3081 78 19L78 131.891Z"/>
</mask>
<path fill-rule="evenodd" clip-rule="evenodd" d="M78 131.891C108.044 130.583 132 105.812 132 75.4457C132 45.0793 108.044 20.3081 78 19L78 131.891Z" fill="#4ACFFF"/>
<path d="M78 131.891L76 131.891L76 133.98L78.087 133.889L78 131.891ZM78 19L78.087 17.0019L76 16.911L76 19L78 19ZM130 75.4457C130 104.737 106.892 128.631 77.913 129.893L78.087 133.889C109.196 132.535 134 106.887 134 75.4457L130 75.4457ZM77.913 20.9981C106.892 22.2599 130 46.1547 130 75.4457L134 75.4457C134 44.0039 109.196 18.3564 78.087 17.0019L77.913 20.9981ZM76 19L76 131.891L80 131.891L80 19L76 19Z" fill="#45413C" mask="url(#path-2-inside-1_1301_1850)"/>
<path d="M108 57.9458C105.833 61.6124 99.7 66.7458 92.5 57.9458" stroke="#45413C" stroke-width="2" stroke-linecap="round"/>
<path d="M102.5 100.805C102 94.4712 96.8 81.7046 80 81.3046" stroke="#45413C" stroke-width="3" stroke-linecap="round"/>
<mask id="path-6-inside-2_1301_1850" fill="white">
<path fill-rule="evenodd" clip-rule="evenodd" d="M73 19C42.9559 20.3081 19 45.0793 19 75.4457C19 105.812 42.9559 130.583 73 131.891V19Z"/>
</mask>
<path fill-rule="evenodd" clip-rule="evenodd" d="M73 19C42.9559 20.3081 19 45.0793 19 75.4457C19 105.812 42.9559 130.583 73 131.891V19Z" fill="#FFE500"/>
<path d="M73 19H75V16.911L72.913 17.0019L73 19ZM73 131.891L72.913 133.889L75 133.98V131.891H73ZM21 75.4457C21 46.1547 44.108 22.2599 73.087 20.9981L72.913 17.0019C41.8039 18.3564 17 44.0039 17 75.4457H21ZM73.087 129.893C44.108 128.631 21 104.737 21 75.4457H17C17 106.887 41.8039 132.535 72.913 133.889L73.087 129.893ZM75 131.891V19H71V131.891H75Z" fill="#45413C" mask="url(#path-6-inside-2_1301_1850)"/>
<path d="M43.5 62.8046C45.6667 59.1379 51.8 54.0046 59 62.8046" stroke="#45413C" stroke-width="2" stroke-linecap="round"/>
<path d="M49 81.3046C49.5 87.6379 54.7 100.405 71.5 100.805" stroke="#45413C" stroke-width="3" stroke-linecap="round"/>
<circle cx="33.5" cy="77.3046" r="5.5" fill="#FF866E"/>
</svg>
