<svg width="228" height="86" viewBox="0 0 228 86" fill="none" xmlns="http://www.w3.org/2000/svg">
<g clip-path="url(#clip0_332_345)">
<path d="M45.7145 38.906V67.3212H33.4175V41.546C33.4175 35.0154 29.6658 30.569 23.9689 30.569C16.9519 30.569 12.3665 35.2238 12.3665 46.6872V67.3907H0V0H12.3665V23.8994C15.9792 20.2867 20.912 18.3414 27.0258 18.2719C36.8912 18.2719 45.7145 27.3037 45.7145 38.906Z" fill="white"/>
<path d="M45.7145 38.906V67.3212H33.4175V41.546C33.4175 35.0154 29.6658 30.569 23.9689 30.569C16.9519 30.569 12.3665 35.2238 12.3665 46.6872V67.3907H0V0H12.3665V23.8994C15.9792 20.2867 20.912 18.3414 27.0258 18.2719C36.8912 18.2719 45.7145 27.3037 45.7145 38.906Z" fill="white"/>
<path d="M159.445 38.906V67.3212H147.078V41.546C147.078 35.0154 143.327 30.569 137.63 30.569C130.613 30.569 126.028 35.2238 126.028 46.6872V67.3907H113.661V18.8972H126.028V23.8994C129.64 20.2867 134.573 18.3414 140.687 18.2719C150.622 18.2719 159.445 27.3037 159.445 38.906Z" fill="white"/>
<path d="M178.273 52.4536C178.898 57.2474 183.067 58.8453 187.93 58.8453C192.515 58.8453 195.225 56.761 195.225 54.1905C195.225 52.5231 194.113 50.8557 190.084 49.9525L180.565 48.0072C172.159 46.2008 167.365 41.4765 167.365 34.7375C167.365 25.7752 174.66 19.314 186.471 19.314C197.517 19.314 205.16 25.011 206.758 33.1396L194.947 35.5017C194.46 31.7501 191.195 29.0405 186.054 29.0405C181.121 29.0405 179.662 31.4722 179.662 33.6259C179.662 35.1543 180.218 36.6828 183.9 37.586L195.016 40.0176C203.214 41.8239 207.244 46.9651 207.244 53.2178C207.244 63.5001 198.907 68.8497 186.749 68.8497C176.466 68.8497 167.018 64.8201 165.767 55.0936L178.273 52.4536Z" fill="white"/>
<path d="M79.9656 83.3005C79.3404 83.6478 78.9235 83.7173 78.3677 83.7173C76.9087 83.7173 76.0056 82.9531 76.0056 81.2857V78.7846H74.6855V77.4646H76.0056V75.7277H77.6035V77.5341H79.5488V78.8541H77.6035V81.2162C77.6035 81.911 77.9509 82.2583 78.5067 82.2583C78.7846 82.2583 79.2014 82.1194 79.4793 81.9804L79.9656 83.3005Z" fill="white"/>
<path d="M86.7743 79.8962V83.5784H85.1764V80.2436C85.1764 79.4099 84.69 78.8541 83.9258 78.8541C83.0226 78.8541 82.3974 79.4793 82.3974 80.9383V83.5784H80.7994V74.894H82.3974V78.0898C82.8837 77.6035 83.509 77.3951 84.2732 77.3951C85.8016 77.3256 86.7743 78.3677 86.7743 79.8962Z" fill="white"/>
<path d="M93.9997 80.9383H89.4143C89.5533 81.8415 90.1785 82.3278 90.9428 82.3278C91.4291 82.3278 91.9849 82.2583 92.4712 81.5636L93.9302 81.8415C93.3744 83.092 92.3323 83.7173 91.0122 83.7173C89.2754 83.7173 87.8859 82.3973 87.8859 80.5215C87.8859 78.6457 89.2754 77.3256 91.0122 77.3256C92.6102 77.3256 93.9997 78.5762 94.0691 80.3825V80.9383H93.9997ZM89.4143 79.8267H92.3323C92.1238 79.0625 91.568 78.7151 90.8733 78.7151C90.3175 78.7151 89.6227 79.0625 89.4143 79.8267Z" fill="white"/>
<path d="M105.255 83.5784H103.657V80.2436H99.766V83.5784H98.1681V75.4498H99.766V78.7151H103.657V75.4498H105.255V83.5784Z" fill="white"/>
<path d="M113.036 83.5784H111.438V83.092C110.952 83.5089 110.257 83.7173 109.423 83.7173C107.895 83.7173 106.436 82.3973 106.436 80.5215C106.436 78.6457 107.895 77.3256 109.423 77.3256C110.257 77.3256 110.882 77.5341 111.438 78.0204V77.5341H113.036V83.5784ZM111.438 80.5215C111.438 79.4099 110.604 78.7151 109.701 78.7151C108.728 78.7151 108.034 79.4099 108.034 80.5215C108.034 81.6331 108.728 82.3278 109.701 82.3278C110.604 82.3278 111.438 81.6331 111.438 80.5215Z" fill="white"/>
<path d="M121.303 80.5215C121.303 82.3973 119.844 83.7173 118.316 83.7173C117.482 83.7173 116.857 83.5089 116.301 83.092V85.5931H114.703V77.5341H116.301V78.0204C116.787 77.6035 117.482 77.3256 118.316 77.3256C119.844 77.3256 121.303 78.6457 121.303 80.5215ZM119.775 80.5215C119.775 79.4099 119.08 78.7151 118.107 78.7151C117.274 78.7151 116.371 79.4099 116.371 80.5215C116.371 81.6331 117.204 82.3278 118.107 82.3278C119.011 82.3278 119.775 81.6331 119.775 80.5215Z" fill="white"/>
<path d="M129.015 80.5215C129.015 82.3973 127.556 83.7173 126.028 83.7173C125.194 83.7173 124.569 83.5089 124.013 83.092V85.5931H122.415V77.5341H124.013V78.0204C124.499 77.6035 125.194 77.3256 126.028 77.3256C127.626 77.3256 129.015 78.6457 129.015 80.5215ZM127.487 80.5215C127.487 79.4099 126.792 78.7151 125.819 78.7151C124.985 78.7151 124.082 79.4099 124.082 80.5215C124.082 81.6331 124.916 82.3278 125.819 82.3278C126.792 82.3278 127.487 81.6331 127.487 80.5215Z" fill="white"/>
<path d="M132.628 85.5931H130.891L131.864 83.3699L129.362 77.534H131.099L132.697 81.3552L134.365 77.534H136.171L132.628 85.5931Z" fill="white"/>
<path d="M142.424 83.5784L141.729 81.8415H138.186L137.491 83.5784H135.685L139.158 75.4498H140.687L144.161 83.5784H142.424ZM139.992 77.4646L138.811 80.3825H141.173L139.992 77.4646Z" fill="white"/>
<path d="M151.594 80.5215C151.594 82.3973 150.135 83.7173 148.607 83.7173C147.773 83.7173 147.148 83.5089 146.592 83.092V85.5931H144.994V77.5341H146.592V78.0204C147.079 77.6035 147.773 77.3256 148.607 77.3256C150.205 77.3256 151.594 78.6457 151.594 80.5215ZM150.066 80.5215C150.066 79.4099 149.371 78.7151 148.399 78.7151C147.565 78.7151 146.662 79.4099 146.662 80.5215C146.662 81.6331 147.495 82.3278 148.399 82.3278C149.371 82.3278 150.066 81.6331 150.066 80.5215Z" fill="white"/>
<path d="M159.376 80.5215C159.376 82.3973 157.917 83.7173 156.388 83.7173C155.554 83.7173 154.929 83.5089 154.373 83.092V85.5931H152.845V77.5341H154.443V78.0204C154.929 77.6035 155.624 77.3256 156.458 77.3256C157.986 77.3256 159.376 78.6457 159.376 80.5215ZM157.847 80.5215C157.847 79.4099 157.152 78.7151 156.18 78.7151C155.346 78.7151 154.443 79.4099 154.443 80.5215C154.443 81.6331 155.277 82.3278 156.18 82.3278C157.083 82.3278 157.847 81.6331 157.847 80.5215Z" fill="white"/>
<path d="M227.6 16.6045C227.6 21.3288 224.126 24.7331 219.958 24.7331C215.72 24.7331 212.315 21.3288 212.315 16.6045C212.315 11.8802 215.789 8.47594 219.958 8.47594C224.126 8.40647 227.6 11.8107 227.6 16.6045ZM226.072 16.6045C226.072 12.7834 223.293 10.0044 219.958 10.0044C216.623 10.0044 213.844 12.7834 213.844 16.6045C213.844 20.3562 216.623 23.1352 219.958 23.1352C223.293 23.0657 226.072 20.2867 226.072 16.6045ZM221.486 17.5077L223.64 20.0783H221.834L219.819 17.7161H218.638V20.0783H217.109V12.575H220.375C222.111 12.575 223.223 13.5476 223.223 15.0761C223.293 16.2571 222.598 17.1603 221.486 17.5077ZM220.375 16.1877C221.208 16.1877 221.695 15.7708 221.695 15.0761C221.695 14.4508 221.139 14.0339 220.375 14.0339H218.638V16.1877H220.375Z" fill="white"/>
<path d="M83.6479 19.2446C77.2562 19.2446 72.115 21.1204 68.2245 24.3857V19.0361H55.8579V83.1615H68.2245V63.7085C72.1845 66.9044 77.3257 68.7802 83.6479 68.7802C95.5281 68.7802 106.575 58.7758 106.575 44.1166C106.505 29.3879 95.4586 19.2446 83.6479 19.2446ZM97.6124 51.5504C94.347 56.4137 88.8585 59.3316 82.9531 59.3316C77.3257 59.3316 72.0456 56.6221 68.7108 52.1062C68.3634 51.6199 68.4329 50.9251 68.9192 50.5778C69.4055 50.2304 70.1003 50.2999 70.4477 50.7862C73.3656 54.7463 78.0204 57.1084 82.9531 57.1084C88.0943 57.1084 92.8881 54.5378 95.806 50.2304C96.1534 49.7441 96.8481 49.6051 97.3345 49.9525C97.8208 50.3693 97.9597 50.9946 97.6124 51.5504Z" fill="#E98133"/>
</g>
<defs>
<clipPath id="clip0_332_345">
<rect width="227.6" height="85.5931" fill="white"/>
</clipPath>
</defs>
</svg>
