<svg width="32" height="32" viewBox="0 0 32 32" fill="none" xmlns="http://www.w3.org/2000/svg">
<path d="M32 16C32 24.8364 24.8364 32 16 32C7.16444 32 0 24.8364 0 16C0 7.16444 7.16444 0 16 0C24.8364 0 32 7.16444 32 16Z" fill="#FFCC4D"/>
<path d="M22.6534 26.5591C22.6134 26.4 21.6152 22.6667 16.0001 22.6667C10.3841 22.6667 9.38673 26.4 9.34673 26.5591C9.32337 26.6529 9.33131 26.7518 9.36934 26.8407C9.40737 26.9296 9.47341 27.0037 9.5574 27.0516C9.64185 27.099 9.73933 27.1179 9.83539 27.1056C9.93145 27.0933 10.021 27.0503 10.0907 26.9831C10.1076 26.9662 11.8276 25.3333 16.0001 25.3333C20.1725 25.3333 21.8934 26.9662 21.9094 26.9822C21.9782 27.0502 22.0673 27.094 22.1631 27.107C22.259 27.12 22.3565 27.1015 22.441 27.0542C22.5257 27.0063 22.5924 26.932 22.6307 26.8425C22.6691 26.7531 22.6771 26.6535 22.6534 26.5591ZM13.9618 15.3716C11.0685 12.4782 6.41873 12.4444 6.22229 12.4444C5.99341 12.4546 5.77726 12.5526 5.61884 12.7181C5.46042 12.8836 5.37194 13.1038 5.37183 13.3329C5.37171 13.562 5.45997 13.7823 5.61822 13.948C5.77648 14.1136 5.99253 14.2119 6.2214 14.2222C6.24718 14.2222 7.93251 14.2418 9.76184 14.8773C9.23473 15.4462 8.88895 16.3298 8.88895 17.3333C8.88895 19.0524 9.88362 20.4444 11.1112 20.4444C12.3387 20.4444 13.3334 19.0524 13.3334 17.3333C13.3334 17.1787 13.3165 17.0311 13.3005 16.8827C13.3121 16.8827 13.3227 16.8889 13.3334 16.8889C13.5094 16.8893 13.6815 16.8374 13.8279 16.7398C13.9743 16.6422 14.0884 16.5033 14.1558 16.3407C14.2231 16.1781 14.2406 15.9992 14.2061 15.8266C14.1716 15.6541 14.0866 15.4957 13.9618 15.3716ZM25.7778 12.4444C25.5814 12.4444 20.9325 12.4782 18.0383 15.3716C17.9136 15.4957 17.8286 15.6541 17.794 15.8266C17.7595 15.9992 17.777 16.1781 17.8444 16.3407C17.9117 16.5033 18.0258 16.6422 18.1722 16.7398C18.3186 16.8374 18.4908 16.8893 18.6667 16.8889C18.6783 16.8889 18.6881 16.8827 18.6987 16.8827C18.6845 17.0311 18.6667 17.1787 18.6667 17.3333C18.6667 19.0524 19.6614 20.4444 20.889 20.4444C22.1165 20.4444 23.1112 19.0524 23.1112 17.3333C23.1112 16.3298 22.7654 15.4462 22.2383 14.8773C23.3805 14.4875 24.5736 14.2668 25.7796 14.2222C25.8963 14.2221 26.0119 14.199 26.1197 14.1542C26.2275 14.1094 26.3254 14.0439 26.4079 13.9612C26.4904 13.8786 26.5557 13.7806 26.6003 13.6727C26.6449 13.5648 26.6677 13.4492 26.6676 13.3324C26.6675 13.2157 26.6444 13.1001 26.5996 12.9923C26.5548 12.8845 26.4893 12.7866 26.4066 12.7042C26.324 12.6217 26.226 12.5563 26.1181 12.5118C26.0102 12.4672 25.8946 12.4443 25.7778 12.4444Z" fill="#664500"/>
</svg>
