<svg width="42" height="42" viewBox="0 0 42 42" fill="none" xmlns="http://www.w3.org/2000/svg">
<circle cx="21" cy="21" r="21" fill="white"/>
<path d="M17.6098 31C17.1218 30.9971 16.648 30.8357 16.2598 30.54L14.1898 29C13.7121 28.6276 13.3951 28.0863 13.304 27.4875C13.2129 26.8887 13.3545 26.2777 13.6998 25.78C13.8825 25.5102 13.9986 25.201 14.0386 24.8777C14.0785 24.5543 14.0413 24.2261 13.9298 23.92L13.8698 23.76C13.7922 23.4829 13.6503 23.228 13.4557 23.0161C13.2611 22.8041 13.0192 22.641 12.7498 22.54H12.5898C12.0057 22.3436 11.5226 21.9247 11.2455 21.3742C10.9684 20.8237 10.9196 20.1862 11.1098 19.6L11.9298 17C12.0053 16.6988 12.1442 16.4171 12.3374 16.174C12.5306 15.9308 12.7734 15.7317 13.0498 15.59C13.3071 15.4574 13.5887 15.3784 13.8775 15.3578C14.1663 15.3371 14.4562 15.3753 14.7298 15.47C15.0277 15.5703 15.3455 15.5962 15.6557 15.5457C15.966 15.4952 16.2591 15.3696 16.5098 15.18L16.6398 15.08C16.8667 14.899 17.0501 14.6693 17.1764 14.408C17.3027 14.1466 17.3688 13.8603 17.3698 13.57V13.33C17.3671 12.7181 17.6062 12.13 18.0351 11.6936C18.464 11.2572 19.048 11.0079 19.6598 11H22.2098C22.5075 11.0008 22.8021 11.0604 23.0766 11.1754C23.3512 11.2904 23.6004 11.4585 23.8098 11.67C24.2501 12.1178 24.4947 12.722 24.4898 13.35V13.63C24.4847 13.9058 24.5445 14.1788 24.6644 14.4272C24.7842 14.6756 24.9608 14.8924 25.1798 15.06L25.2898 15.14C25.5142 15.3083 25.776 15.4198 26.0529 15.4651C26.3297 15.5104 26.6134 15.488 26.8798 15.4L27.2198 15.29C27.5079 15.1945 27.8122 15.158 28.1147 15.1827C28.4171 15.2074 28.7116 15.2927 28.9803 15.4336C29.2491 15.5746 29.4867 15.7682 29.6791 16.0029C29.8714 16.2377 30.0145 16.5088 30.0998 16.8L30.8898 19.32C31.0726 19.9024 31.0226 20.533 30.7504 21.0793C30.4782 21.6256 30.0048 22.0452 29.4298 22.25L29.2298 22.32C28.9356 22.4163 28.6696 22.5834 28.4552 22.8066C28.2407 23.0298 28.0843 23.3022 27.9998 23.6C27.9202 23.8768 27.9013 24.1675 27.9445 24.4523C27.9876 24.7371 28.0918 25.0092 28.2498 25.25L28.5098 25.63C28.8546 26.1304 28.9949 26.7438 28.9019 27.3444C28.809 27.945 28.4898 28.4872 28.0098 28.86L25.9998 30.41C25.757 30.5957 25.4787 30.7297 25.1821 30.8039C24.8855 30.878 24.5769 30.8906 24.2752 30.8409C23.9736 30.7913 23.6853 30.6804 23.4281 30.5152C23.1709 30.3499 22.9503 30.1337 22.7798 29.88L22.6598 29.71C22.496 29.4639 22.2725 29.2632 22.0102 29.1268C21.7479 28.9904 21.4553 28.9227 21.1598 28.93C20.8778 28.9373 20.6014 29.0108 20.353 29.1445C20.1046 29.2783 19.8911 29.4686 19.7298 29.7L19.4998 30.03C19.3292 30.2855 19.1082 30.5034 18.8502 30.6702C18.5922 30.8371 18.3028 30.9493 17.9998 31C17.8701 31.0127 17.7395 31.0127 17.6098 31ZM13.3998 20.62C13.9645 20.8214 14.474 21.1525 14.8874 21.5867C15.3008 22.0209 15.6064 22.5461 15.7798 23.12V23.24C15.9957 23.8366 16.0666 24.4761 15.9866 25.1055C15.9067 25.735 15.6781 26.3363 15.3198 26.86C15.2565 26.9299 15.2215 27.0208 15.2215 27.115C15.2215 27.2092 15.2565 27.3001 15.3198 27.37L17.4698 29C17.4978 29.022 17.5303 29.0378 17.5649 29.0463C17.5996 29.0547 17.6356 29.0557 17.6707 29.049C17.7057 29.0424 17.739 29.0284 17.7681 29.0078C17.7973 28.9873 17.8217 28.9608 17.8398 28.93L18.0698 28.6C18.4167 28.0988 18.8799 27.6891 19.4198 27.4062C19.9598 27.1232 20.5602 26.9754 21.1698 26.9754C21.7794 26.9754 22.3798 27.1232 22.9197 27.4062C23.4596 27.6891 23.9229 28.0988 24.2698 28.6L24.3898 28.78C24.4328 28.841 24.497 28.8838 24.5698 28.9C24.6032 28.9049 24.6373 28.903 24.6699 28.8944C24.7026 28.8859 24.7331 28.8707 24.7598 28.85L26.8198 27.29C26.8919 27.2328 26.9393 27.1501 26.9524 27.0589C26.9654 26.9678 26.943 26.8751 26.8898 26.8L26.6298 26.42C26.291 25.926 26.0675 25.3622 25.9758 24.7703C25.884 24.1783 25.9264 23.5734 26.0998 23C26.2755 22.3974 26.5934 21.8458 27.0267 21.3916C27.46 20.9374 27.9961 20.5939 28.5898 20.39L28.7898 20.32C28.8731 20.2866 28.9399 20.2216 28.9755 20.1392C29.0111 20.0567 29.0126 19.9636 28.9798 19.88L28.1998 17.39C28.1811 17.3464 28.1537 17.3071 28.1193 17.2745C28.0849 17.2418 28.0443 17.2165 27.9998 17.2C27.9703 17.1851 27.9378 17.1773 27.9048 17.1773C27.8718 17.1773 27.8392 17.1851 27.8098 17.2L27.4698 17.31C26.8946 17.4998 26.282 17.5471 25.6845 17.4478C25.0871 17.3485 24.5226 17.1056 24.0398 16.74L23.9998 16.65C23.5365 16.2991 23.1608 15.8456 22.9023 15.3251C22.6437 14.8046 22.5094 14.2312 22.5098 13.65V13.34C22.5116 13.2436 22.4757 13.1503 22.4098 13.08C22.3523 13.028 22.2773 12.9995 22.1998 13H19.6598C19.6191 13.0025 19.5792 13.0131 19.5426 13.0311C19.5059 13.0491 19.4732 13.0741 19.4462 13.1048C19.4193 13.1354 19.3987 13.1711 19.3856 13.2098C19.3724 13.2484 19.3671 13.2893 19.3698 13.33V13.58C19.3699 14.177 19.2328 14.7661 18.9693 15.3019C18.7058 15.8376 18.3228 16.3057 17.8498 16.67L17.7198 16.77C17.2095 17.1585 16.6115 17.4155 15.9785 17.5184C15.3455 17.6213 14.6968 17.5669 14.0898 17.36C14.0444 17.3448 13.9952 17.3448 13.9498 17.36C13.8934 17.3943 13.8509 17.4474 13.8298 17.51L12.9998 20.12C12.9709 20.2089 12.9776 20.3056 13.0187 20.3895C13.0598 20.4735 13.1319 20.5382 13.2198 20.57L13.3998 20.62Z" fill="#CAD2DC"/>
<path d="M21 24.5C20.3078 24.5 19.6311 24.2947 19.0555 23.9101C18.4799 23.5256 18.0313 22.9789 17.7664 22.3394C17.5015 21.6999 17.4322 20.9961 17.5673 20.3172C17.7023 19.6383 18.0356 19.0146 18.5251 18.5251C19.0146 18.0356 19.6383 17.7023 20.3172 17.5673C20.9961 17.4322 21.6999 17.5015 22.3394 17.7664C22.9789 18.0313 23.5256 18.4799 23.9101 19.0555C24.2947 19.6311 24.5 20.3078 24.5 21C24.5 21.9283 24.1313 22.8185 23.4749 23.4749C22.8185 24.1313 21.9283 24.5 21 24.5V24.5ZM21 19.5C20.7033 19.5 20.4133 19.588 20.1666 19.7528C19.92 19.9176 19.7277 20.1519 19.6142 20.426C19.5007 20.7001 19.4709 21.0017 19.5288 21.2926C19.5867 21.5836 19.7296 21.8509 19.9393 22.0607C20.1491 22.2704 20.4164 22.4133 20.7074 22.4712C20.9983 22.5291 21.2999 22.4994 21.574 22.3858C21.8481 22.2723 22.0824 22.08 22.2472 21.8334C22.412 21.5867 22.5 21.2967 22.5 21C22.5 20.6022 22.342 20.2206 22.0607 19.9393C21.7794 19.658 21.3978 19.5 21 19.5Z" fill="#CAD2DC"/>
</svg>
