<svg width="42" height="42" viewBox="0 0 42 42" fill="none" xmlns="http://www.w3.org/2000/svg">
<circle cx="21" cy="21" r="21" fill="white"/>
<path d="M14 20H22V22H14V25L9 21L14 17V20ZM13 27H15.708C16.8627 28.0183 18.2867 28.6819 19.8091 28.9109C21.3316 29.14 22.8878 28.9249 24.291 28.2915C25.6942 27.6581 26.8849 26.6332 27.7201 25.3398C28.5553 24.0465 28.9995 22.5396 28.9995 21C28.9995 19.4604 28.5553 17.9535 27.7201 16.6602C26.8849 15.3668 25.6942 14.3419 24.291 13.7085C22.8878 13.0751 21.3316 12.86 19.8091 13.0891C18.2867 13.3181 16.8627 13.9817 15.708 15H13C13.9307 13.7572 15.1383 12.7485 16.5271 12.0541C17.9158 11.3598 19.4473 10.9988 21 11C26.523 11 31 15.477 31 21C31 26.523 26.523 31 21 31C19.4473 31.0012 17.9158 30.6402 16.5271 29.9459C15.1383 29.2515 13.9307 28.2428 13 27V27Z" fill="#CAD2DC"/>
</svg>
