<svg width="19" height="19" viewBox="0 0 19 19" fill="none" xmlns="http://www.w3.org/2000/svg">
<path d="M7.91667 1.58337V3.37254L9.5 4.42546V3.16671H17.4167V15.0417H13.4583V16.625H19V1.58337H7.91667ZM5.9375 3.95837L0 7.91671V16.625H11.875V7.91671L5.9375 3.95837ZM11.0833 4.75004V5.48629L12.3579 6.33337H12.6667V4.75004H11.0833ZM14.25 4.75004V6.33337H15.8333V4.75004H14.25ZM5.9375 5.93754L10.2917 8.70837V15.0417H7.91667V10.2917H3.95833V15.0417H1.58333V8.70837L5.9375 5.93754ZM14.25 7.91671V9.50004H15.8333V7.91671H14.25ZM14.25 11.0834V12.6667H15.8333V11.0834H14.25Z" fill="#CAD2DC"/>
</svg>
