<svg width="48" height="48" viewBox="0 0 48 48" fill="none" xmlns="http://www.w3.org/2000/svg">
<circle cx="24" cy="24" r="24" fill="#DA6464"/>
<path fill-rule="evenodd" clip-rule="evenodd" d="M31.0607 18.5607C31.6464 17.9749 31.6464 17.0251 31.0607 16.4393C30.4749 15.8536 29.5251 15.8536 28.9393 16.4393L23.75 21.6287L18.5607 16.4393C17.9749 15.8536 17.0251 15.8536 16.4393 16.4393C15.8536 17.0251 15.8536 17.9749 16.4393 18.5607L21.6287 23.75L16.4393 28.9393C15.8536 29.5251 15.8536 30.4749 16.4393 31.0607C17.0251 31.6464 17.9749 31.6464 18.5607 31.0607L23.75 25.8713L28.9393 31.0607C29.5251 31.6464 30.4749 31.6464 31.0607 31.0607C31.6464 30.4749 31.6464 29.5251 31.0607 28.9393L25.8713 23.75L31.0607 18.5607Z" fill="white"/>
</svg>
