<svg width="20" height="21" viewBox="0 0 20 21" fill="none" xmlns="http://www.w3.org/2000/svg">
<g clip-path="url(#clip0_25_203)">
<path d="M9.04609 10.159C9.06546 10.8361 8.89486 11.5068 8.55173 12.1025C8.20861 12.6982 7.70527 13.1976 7.09316 13.5496C6.47921 13.9012 5.77892 14.093 5.06328 14.1057C4.34764 14.1183 3.64209 13.9513 3.01815 13.6216C2.39255 13.2924 1.8701 12.8125 1.50329 12.23C1.13648 11.6475 0.938241 10.9831 0.928482 10.3033C0.925343 9.2955 1.34178 8.32533 2.08729 7.60369C2.83279 6.88205 3.84712 6.46725 4.90982 6.44944C7.12385 6.41029 8.96379 8.06055 9.04494 10.159L9.04609 10.159V10.159Z" stroke="#CAD2DC" stroke-width="2" stroke-linejoin="round"/>
<path d="M9.16959 10.1159L19.0003 9.91653" stroke="#CAD2DC" stroke-width="2" stroke-linecap="round" stroke-linejoin="round"/>
<path d="M13.3366 10.0882L13.3972 13.0571L17.05 12.992L16.9897 10.0235L13.3366 10.0882V10.0882Z" stroke="#CAD2DC" stroke-width="2" stroke-linejoin="round"/>
</g>
<defs>
<clipPath id="clip0_25_203">
<rect width="19" height="19" fill="white" transform="translate(18.9988 0.854294) rotate(89.5362)"/>
</clipPath>
</defs>
</svg>
