<svg width="36" height="36" viewBox="0 0 36 36" fill="none" xmlns="http://www.w3.org/2000/svg">
<circle cx="18" cy="18" r="18" fill="white"/>
<path d="M12.6877 33.0344V25.7031L7.21582 29.7406C8.75645 31.175 10.6158 32.2906 12.6877 33.0344ZM23.3127 33.0344C25.3846 32.2906 27.2439 31.175 28.7846 29.7406L23.3127 25.65V33.0344ZM2.96582 23.3125C3.1252 23.8438 3.3377 24.3219 3.60332 24.8531L5.6752 23.3125H2.96582ZM30.3252 23.3125L32.3971 24.8531C32.6096 24.375 32.8221 23.8438 33.0346 23.3125H30.3252Z" fill="#2A5F9E"/>
<path d="M13.4845 21.1875H2.38135C2.54072 21.9313 2.75322 22.6219 2.96572 23.3125H5.6751L3.60322 24.8531C4.02822 25.7563 4.50635 26.5531 5.09072 27.35L10.5626 23.3125H12.6876V24.375L6.47197 28.9437L7.21572 29.6875L12.6876 25.7031V33.0344C13.3782 33.3 14.0688 33.4594 14.8126 33.6188V21.1875H13.4845ZM33.6188 21.1875H21.1876V33.6188C21.9313 33.4594 22.622 33.2469 23.3126 33.0344V25.7031L28.7845 29.6875C29.5282 28.9969 30.1657 28.2531 30.8032 27.4563L25.1188 23.3125H28.7313L31.972 25.7031C32.1313 25.4375 32.2907 25.1188 32.397 24.8531L30.3251 23.3125H33.0345C33.247 22.6219 33.4595 21.9313 33.6188 21.1875Z" fill="white"/>
<path d="M5.09082 27.35C5.51582 27.9344 5.94082 28.4656 6.41895 28.9969L12.6877 24.4281V23.3656H10.5627L5.09082 27.35ZM25.1721 23.3125L30.8564 27.4563C31.0689 27.1906 31.2283 26.925 31.4408 26.6594C31.4939 26.6063 31.4939 26.5531 31.5471 26.5531C31.7064 26.2875 31.9189 25.9688 32.0783 25.7031L28.7314 23.3125H25.1721Z" fill="#ED4C5C"/>
<path d="M23.3127 2.96558V10.2968L28.7846 6.25933C27.2439 4.82495 25.3846 3.70933 23.3127 2.96558ZM12.6877 2.96558C10.6158 3.70933 8.75645 4.82495 7.21582 6.25933L12.6877 10.35V2.96558ZM33.0346 12.6875C32.8752 12.1562 32.6627 11.6781 32.3971 11.1468L30.3252 12.6875H33.0346ZM5.6752 12.6875L3.60332 11.1468C3.39082 11.6781 3.17832 12.1562 2.96582 12.6875H5.6752Z" fill="#2A5F9E"/>
<path d="M22.5157 14.8125H33.5657C33.4063 14.0687 33.1938 13.3781 32.9813 12.6875H30.272L32.3438 11.1469C31.9188 10.2437 31.4407 9.44685 30.8563 8.64998L25.4376 12.6875H23.3126V11.625L29.5282 7.05623L28.7845 6.31248L23.3126 10.2969V2.9656C22.622 2.69998 21.9313 2.5406 21.1876 2.38123V14.8125H22.5157ZM2.38135 14.8125H14.8126V2.38123C14.0688 2.5406 13.3782 2.7531 12.6876 2.9656V10.2969L7.21572 6.31248C6.47197 7.0031 5.83447 7.74685 5.19697 8.54373L10.8813 12.6875H7.26885L4.02822 10.2969C3.86885 10.5625 3.70947 10.8812 3.60322 11.1469L5.6751 12.6875H2.96572C2.75322 13.3781 2.54072 14.0687 2.38135 14.8125Z" fill="white"/>
<path d="M30.9095 8.65005C30.4845 8.06567 30.0595 7.53442 29.5813 7.00317L23.3126 11.5719V12.6344H25.4376L30.9095 8.65005ZM10.8282 12.6875L5.19697 8.5438C4.98447 8.80942 4.8251 9.07505 4.6126 9.34067C4.55947 9.3938 4.55947 9.44692 4.50635 9.44692C4.34697 9.71255 4.13447 10.0313 3.9751 10.2969L7.21572 12.6875H10.8282Z" fill="#ED4C5C"/>
<path d="M33.6188 14.8125H21.1875V2.38125C20.1781 2.16875 19.1156 2.0625 18 2.0625C16.8844 2.0625 15.8219 2.16875 14.8125 2.38125V14.8125H2.38125C2.16875 15.8219 2.0625 16.8844 2.0625 18C2.0625 19.1156 2.16875 20.1781 2.38125 21.1875H14.8125V33.6188C15.8219 33.8313 16.8844 33.9375 18 33.9375C19.1156 33.9375 20.1781 33.8313 21.1875 33.6188V21.1875H33.6188C33.8313 20.1781 33.9375 19.1156 33.9375 18C33.9375 16.8844 33.8313 15.8219 33.6188 14.8125Z" fill="#ED4C5C"/>
</svg>
