<svg width="164" height="148" viewBox="0 0 164 148" fill="none" xmlns="http://www.w3.org/2000/svg">
<path d="M19.0886 16.1591L158.69 1.71752C159.295 1.65678 159.905 1.72959 160.478 1.93082C161.051 2.13204 161.573 2.45676 162.007 2.88199C162.441 3.30721 162.776 3.82256 162.988 4.39157C163.201 4.96058 163.286 5.56934 163.237 6.17479L151.291 142.032C151.155 143.64 150.401 145.133 149.187 146.196C147.974 147.26 146.396 147.813 144.784 147.738L9.19347 140.428C8.09605 140.363 7.06843 139.868 6.33395 139.05C5.59947 138.232 5.21751 137.158 5.27107 136.06L13.4725 22.0427C13.5766 20.5613 14.1947 19.1628 15.2201 18.0886C16.2454 17.0144 17.6137 16.332 19.0886 16.1591Z" fill="#D2D1E2"/>
<path d="M14.0087 14.6437L155.215 0.0238223C155.828 -0.0423486 156.449 0.0297562 157.03 0.234838C157.612 0.439919 158.14 0.772752 158.576 1.20889C159.013 1.64502 159.345 2.17336 159.55 2.75505C159.756 3.33675 159.828 3.957 159.761 4.57023L147.727 141.943C147.606 143.573 146.844 145.089 145.607 146.159C144.371 147.228 142.761 147.764 141.13 147.648L3.93527 140.249C3.38221 140.222 2.84018 140.085 2.34133 139.845C1.84247 139.604 1.39693 139.266 1.03113 138.851C0.665337 138.435 0.386743 137.95 0.211828 137.425C0.036912 136.899 -0.0307649 136.344 0.0128501 135.792L8.30339 20.4381C8.45971 18.9697 9.1088 17.5975 10.1449 16.5453C11.1809 15.493 12.5429 14.8227 14.0087 14.6437Z" fill="#678AE9"/>
<path d="M47.2457 47.7072L17.0955 49.6606C16.8023 49.6722 16.5099 49.6222 16.2372 49.5138C15.9645 49.4055 15.7176 49.2412 15.5122 49.0315C15.3069 48.8218 15.1478 48.5715 15.0452 48.2965C14.9426 48.0216 14.8988 47.7282 14.9165 47.4353L15.9642 31.5891C16.0066 30.9295 16.2826 30.3065 16.7428 29.832C17.2031 29.3575 17.8172 29.0625 18.4753 28.9999L48.8045 26.4399C49.1018 26.4111 49.4018 26.4493 49.6824 26.5516C49.9631 26.6539 50.2172 26.8178 50.4262 27.0313C50.6352 27.2447 50.7938 27.5023 50.8902 27.785C50.9866 28.0678 51.0185 28.3685 50.9834 28.6652L49.7569 45.118C49.7312 45.7833 49.4606 46.4156 48.9971 46.8935C48.5336 47.3714 47.9099 47.6612 47.2457 47.7072Z" fill="white"/>
<path d="M93.8589 45.2616L60.814 47.4162C60.5208 47.4277 60.2284 47.3777 59.9557 47.2694C59.683 47.161 59.436 46.9967 59.2307 46.787C59.0254 46.5773 58.8663 46.327 58.7637 46.0521C58.6611 45.7771 58.6173 45.4838 58.635 45.1909L59.8511 28.4382C59.8935 27.7785 60.1696 27.1556 60.6298 26.6811C61.09 26.2066 61.7042 25.9116 62.3623 25.849L95.6861 23.0843C95.9834 23.0555 96.2834 23.0937 96.5641 23.196C96.8447 23.2984 97.0989 23.4623 97.3079 23.6757C97.5169 23.8892 97.6754 24.1467 97.7718 24.4295C97.8682 24.7122 97.9001 25.013 97.8651 25.3096L96.4701 42.6689C96.4057 43.3378 96.1094 43.9631 95.6326 44.4366C95.1557 44.9101 94.5283 45.2019 93.8589 45.2616Z" fill="#F4C2C9"/>
<path d="M144.574 41.7054L108.134 44.0785C107.839 44.0983 107.543 44.0539 107.266 43.9484C106.99 43.8429 106.74 43.6788 106.533 43.4674C106.325 43.2559 106.167 43.0022 106.067 42.7236C105.967 42.4449 105.929 42.148 105.955 41.8532L107.44 24.1907C107.499 23.537 107.781 22.9234 108.238 22.4523C108.695 21.9811 109.299 21.6808 109.951 21.6014L146.566 18.5217C146.863 18.4929 147.163 18.5311 147.444 18.6335C147.724 18.7358 147.978 18.8997 148.187 19.1131C148.396 19.3266 148.555 19.5841 148.651 19.8669C148.748 20.1496 148.78 20.4504 148.745 20.747L147.085 39.1162C147.042 39.7758 146.766 40.3988 146.306 40.8733C145.846 41.3478 145.232 41.6428 144.574 41.7054Z" fill="#DEECFF"/>
<path d="M106.68 87.5061L105.179 99.2947L90.4614 99.009L91.8189 87.4347L106.68 87.5061Z" fill="#F4C2C9"/>
<path d="M77.1014 87.3632L75.744 98.7232L60.7402 98.5089L61.9548 87.3632H77.1014Z" fill="#DEECFF"/>
<path d="M90.4616 99.009L89.0327 110.512L74.3862 110.012L75.7437 98.7232L90.4616 99.009Z" fill="white" fill-opacity="0.3"/>
<path d="M44.5933 120.371L98.7496 122.801C99.6929 122.827 100.613 122.507 101.337 121.902C102.061 121.296 102.538 120.447 102.679 119.514L108.681 72.2166C108.752 71.6826 108.707 71.1394 108.548 70.6246C108.389 70.1098 108.12 69.6356 107.76 69.2348C107.4 68.834 106.958 68.5162 106.463 68.3032C105.968 68.0902 105.433 67.9872 104.894 68.0013L49.5231 69.073C48.6048 69.0964 47.7252 69.4479 47.0436 70.0639C46.3621 70.6799 45.9237 71.5196 45.8079 72.4309L41.021 116.228C40.9668 116.737 41.0178 117.253 41.1707 117.742C41.3236 118.232 41.5752 118.685 41.91 119.073C42.2447 119.461 42.6556 119.777 43.1171 120C43.5786 120.223 44.081 120.35 44.5933 120.371V120.371Z" stroke="white" stroke-width="1.8" stroke-linecap="round" stroke-linejoin="round"/>
<path d="M45.3076 76.289L108.18 75.646" stroke="white" stroke-width="1.8" stroke-linecap="round" stroke-linejoin="round"/>
<path d="M63.2407 76.5748L58.168 120.943" stroke="white" stroke-width="1.8" stroke-linecap="round" stroke-linejoin="round"/>
<path d="M78.3873 76.4319L73.0288 121.657" stroke="white" stroke-width="1.8" stroke-linecap="round" stroke-linejoin="round"/>
<path d="M93.1763 76.3605L87.6035 122.3" stroke="white" stroke-width="1.8" stroke-linecap="round" stroke-linejoin="round"/>
<path d="M62.0259 87.3632L106.68 87.5061" stroke="white" stroke-width="1.8" stroke-linecap="round" stroke-linejoin="round"/>
<path d="M60.7402 98.5088L105.18 99.2948" stroke="white" stroke-width="1.8" stroke-linecap="round" stroke-linejoin="round"/>
<path d="M59.4541 109.583L103.679 110.941" stroke="white" stroke-width="1.8" stroke-linecap="round" stroke-linejoin="round"/>
</svg>
