<svg width="36" height="36" viewBox="0 0 36 36" fill="none" xmlns="http://www.w3.org/2000/svg">
<circle cx="18" cy="18" r="18" fill="white"/>
<path d="M2.00928 18C2.00928 24.9593 6.47178 30.8562 12.6343 33.0343V2.96558C6.47178 5.1437 2.00928 11.0406 2.00928 18Z" fill="#428BC1"/>
<path d="M33.8843 18C33.8843 11.0406 29.4749 5.1437 23.2593 2.96558V33.0343C29.4749 30.8562 33.8843 24.9593 33.8843 18Z" fill="#ED4C5C"/>
<path d="M12.6343 33.0344C14.2812 33.6187 16.0874 33.9375 17.9468 33.9375C19.8062 33.9375 21.6124 33.6187 23.2593 33.0344V2.96563C21.6124 2.38125 19.8593 2.0625 17.9468 2.0625C16.0343 2.0625 14.2812 2.38125 12.6343 2.96563V33.0344Z" fill="white"/>
</svg>
