<svg width="20" height="20" viewBox="0 0 20 20" fill="none" xmlns="http://www.w3.org/2000/svg">
<path fill-rule="evenodd" clip-rule="evenodd" d="M6.97321 0.1875C6.34332 0.1875 5.73923 0.437722 5.29384 0.883121C4.84844 1.32852 4.59821 1.93261 4.59821 2.5625V4.25893H2.90179C2.18191 4.25893 1.49152 4.5449 0.982496 5.05392C0.473469 5.56295 0.1875 6.25334 0.1875 6.97321V16.4732C0.1875 17.1931 0.473469 17.8835 0.982496 18.3925C1.49152 18.9015 2.18191 19.1875 2.90179 19.1875H16.4732C17.1931 19.1875 17.8835 18.9015 18.3925 18.3925C18.9015 17.8835 19.1875 17.1931 19.1875 16.4732V6.97321C19.1875 6.25334 18.9015 5.56295 18.3925 5.05392C17.8835 4.5449 17.1931 4.25893 16.4732 4.25893H14.7768V2.5625C14.7768 1.93261 14.5266 1.32852 14.0812 0.883121C13.6358 0.437722 13.0317 0.1875 12.4018 0.1875H6.97321ZM12.7411 4.25893V2.5625C12.7411 2.47252 12.7053 2.38622 12.6417 2.32259C12.5781 2.25896 12.4918 2.22321 12.4018 2.22321H6.97321C6.88323 2.22321 6.79693 2.25896 6.7333 2.32259C6.66967 2.38622 6.63393 2.47252 6.63393 2.5625V4.25893H12.7411ZM2.90179 6.29464H16.4732C16.6532 6.29464 16.8258 6.36613 16.953 6.49339C17.0803 6.62065 17.1518 6.79325 17.1518 6.97321V8.33036H2.22321V6.97321C2.22321 6.79325 2.29471 6.62065 2.42196 6.49339C2.54922 6.36613 2.72182 6.29464 2.90179 6.29464ZM2.22321 10.3661V16.4732C2.22321 16.6532 2.29471 16.8258 2.42196 16.953C2.54922 17.0803 2.72182 17.1518 2.90179 17.1518H16.4732C16.6532 17.1518 16.8258 17.0803 16.953 16.953C17.0803 16.8258 17.1518 16.6532 17.1518 16.4732V10.3661H11.0446V12.4018H8.33036V10.3661H2.22321Z" fill="#CAD2DC"/>
</svg>
