<svg width="20" height="22" viewBox="0 0 20 22" fill="none" xmlns="http://www.w3.org/2000/svg">
<path d="M18.1708 0.125H14.1951C13.8436 0.125 13.5065 0.243526 13.258 0.454505C13.0094 0.665483 12.8698 0.951631 12.8698 1.25C12.8698 1.54837 13.0094 1.83452 13.258 2.0455C13.5065 2.25647 13.8436 2.375 14.1951 2.375H14.9681L13.3116 3.79062C11.9242 2.87021 10.2131 2.37171 8.45228 2.375C6.4577 2.37402 4.53554 3.0094 3.06698 4.15514C1.59843 5.30089 0.69075 6.8733 0.523959 8.56055C0.357169 10.2478 0.943448 11.9266 2.16653 13.2641C3.3896 14.6016 5.16015 15.5 7.12702 15.7812V17H4.91825C4.56677 17 4.22969 17.1185 3.98116 17.3295C3.73262 17.5405 3.593 17.8266 3.593 18.125C3.593 18.4234 3.73262 18.7095 3.98116 18.9205C4.22969 19.1315 4.56677 19.25 4.91825 19.25H7.12702V20.75C7.12702 21.0484 7.26664 21.3345 7.51518 21.5455C7.76371 21.7565 8.1008 21.875 8.45228 21.875C8.80376 21.875 9.14084 21.7565 9.38937 21.5455C9.63791 21.3345 9.77753 21.0484 9.77753 20.75V19.25H11.9863C12.3378 19.25 12.6749 19.1315 12.9234 18.9205C13.1719 18.7095 13.3116 18.4234 13.3116 18.125C13.3116 17.8266 13.1719 17.5405 12.9234 17.3295C12.6749 17.1185 12.3378 17 11.9863 17H9.77753V15.7812C11.0782 15.5943 12.3036 15.1356 13.3433 14.4464C14.3831 13.7573 15.2046 12.8594 15.7337 11.8336C16.2629 10.8078 16.4831 9.68639 16.3745 8.57037C16.2659 7.45436 15.8319 6.3788 15.1117 5.44062L16.8456 3.96875V4.625C16.8456 4.92337 16.9852 5.20952 17.2337 5.4205C17.4823 5.63147 17.8194 5.75 18.1708 5.75C18.5223 5.75 18.8594 5.63147 19.1079 5.4205C19.3565 5.20952 19.4961 4.92337 19.4961 4.625V1.25C19.4961 0.951631 19.3565 0.665483 19.1079 0.454505C18.8594 0.243526 18.5223 0.125 18.1708 0.125ZM8.45228 13.625C7.40383 13.625 6.37893 13.3611 5.50718 12.8666C4.63543 12.3721 3.95598 11.6693 3.55476 10.8471C3.15354 10.0248 3.04856 9.12001 3.2531 8.24709C3.45764 7.37418 3.96252 6.57236 4.70388 5.94302C5.44524 5.31368 6.3898 4.8851 7.4181 4.71147C8.4464 4.53783 9.51226 4.62695 10.4809 4.96754C11.4495 5.30814 12.2774 5.88491 12.8599 6.62493C13.4424 7.36495 13.7533 8.23498 13.7533 9.125C13.7533 10.3185 13.1948 11.4631 12.2007 12.307C11.2065 13.1509 9.8582 13.625 8.45228 13.625Z" fill="#CAD2DC"/>
</svg>
