<svg width="22" height="22" viewBox="0 0 22 22" fill="none" xmlns="http://www.w3.org/2000/svg">
<path d="M22 11C22 17.0751 17.0751 22 11 22C4.92556 22 0 17.0751 0 11C0 4.92556 4.92556 0 11 0C17.0751 0 22 4.92556 22 11Z" fill="#FFCC4D"/>
<path d="M7.02778 11C7.87155 11 8.55556 9.49518 8.55556 7.63889C8.55556 5.7826 7.87155 4.27778 7.02778 4.27778C6.18401 4.27778 5.5 5.7826 5.5 7.63889C5.5 9.49518 6.18401 11 7.02778 11Z" fill="#664500"/>
<path d="M14.9721 11C15.8159 11 16.4999 9.49518 16.4999 7.63889C16.4999 5.7826 15.8159 4.27778 14.9721 4.27778C14.1283 4.27778 13.4443 5.7826 13.4443 7.63889C13.4443 9.49518 14.1283 11 14.9721 11Z" fill="#664500"/>
<path d="M11.0001 13.4444C8.786 13.4444 7.31689 13.1866 5.50005 12.8333C5.08511 12.7533 4.27783 12.8333 4.27783 14.0556C4.27783 16.5 7.08589 19.5556 11.0001 19.5556C14.9136 19.5556 17.7223 16.5 17.7223 14.0556C17.7223 12.8333 16.915 12.7527 16.5001 12.8333C14.6832 13.1866 13.2141 13.4444 11.0001 13.4444Z" fill="#664500"/>
<path d="M5.5 14.0556C5.5 14.0556 7.33333 14.6667 11 14.6667C14.6667 14.6667 16.5 14.0556 16.5 14.0556C16.5 14.0556 15.2778 16.5 11 16.5C6.72222 16.5 5.5 14.0556 5.5 14.0556Z" fill="white"/>
</svg>
