<svg width="64" height="32" viewBox="0 0 64 32" fill="none" xmlns="http://www.w3.org/2000/svg">
<path d="M47 6C46.4477 6 46 6.44772 46 7C46 7.55228 46.4477 8 47 8L47 6ZM57 8C57.5523 8 58 7.55228 58 7C58 6.44771 57.5523 6 57 6L57 8ZM47 8L57 8L57 6L47 6L47 8Z" fill="#E2E8EF"/>
<path d="M58 12L63 7L58 2" stroke="#E2E8EF" stroke-width="2" stroke-linecap="round" stroke-linejoin="round"/>
<path d="M17 8C17.5523 8 18 7.55228 18 7C18 6.44772 17.5523 6 17 6L17 8ZM7 6C6.44771 6 6 6.44772 6 7C6 7.55228 6.44771 8 7 8L7 6ZM17 6L7 6L7 8L17 8L17 6Z" fill="#E2E8EF"/>
<path d="M6 2L1 7L6 12" stroke="#E2E8EF" stroke-width="2" stroke-linecap="round" stroke-linejoin="round"/>
<path fill-rule="evenodd" clip-rule="evenodd" d="M34.0001 6C34.0001 7.01443 33.6225 7.9407 33.0001 8.64581V7C33.0001 5.35501 31.6451 4 30.0001 4C28.3551 4 27.0001 5.35501 27.0001 7V8.64581C26.3778 7.9407 26.0001 7.01443 26.0001 6C26.0001 3.79086 27.791 2 30.0001 2C32.2093 2 34.0001 3.79086 34.0001 6ZM27.0001 11.1973C25.2067 10.1599 24.0001 8.22086 24.0001 6C24.0001 2.68628 26.6864 0 30.0001 0C33.3138 0 36.0001 2.68628 36.0001 6C36.0001 8.20312 34.8127 10.1289 33.0429 11.1723C33.3502 11.0623 33.6736 11.0041 34.0001 11C34.7406 11.0032 35.4534 11.2815 36.0001 11.781C36.5311 11.3 37.2341 11 38.0001 11C39.3951 11 40.5781 11.981 40.9061 13.281C41.2741 13.117 41.6681 13 42.0941 13C43.7381 13 45.0941 14.355 45.0941 16V23.812C45.0965 24.8878 44.8864 25.9536 44.4758 26.948C44.0652 27.9424 43.4622 28.8459 42.7016 29.6067C41.9409 30.3675 41.0374 30.9706 40.043 31.3813C39.0487 31.792 37.983 32.0022 36.9071 32H35.1871C33.3814 31.9961 31.6261 31.4038 30.1871 30.313L30.1561 30.25L30.0941 30.219L21.9061 22.125V22.094C21.3524 21.5378 21.0415 20.7849 21.0415 20C21.0415 19.2151 21.3524 18.4622 21.9061 17.906C22.4623 17.3523 23.2153 17.0414 24.0001 17.0414C24.785 17.0414 25.5379 17.3523 26.0941 17.906L26.3441 18.125L27.0001 18.813V11.1973ZM31.0001 7C31.0001 6.44501 30.5551 6 30.0001 6C29.4451 6 29.0001 6.44501 29.0001 7V23.625L24.6871 19.312C24.2421 18.867 23.7581 18.867 23.3121 19.312C22.8671 19.757 22.8671 20.242 23.3121 20.687L31.4061 28.687C32.4571 29.477 33.7231 30 35.1881 30H36.9061C40.3711 30 43.0941 27.277 43.0941 23.813V16C43.0941 15.445 42.6481 15 42.0941 15C41.5391 15 41.0941 15.445 41.0941 16V18H39.0001V14C39.0001 13.445 38.5551 13 38.0001 13C37.4451 13 37.0001 13.445 37.0001 14V18H35.0001V14C35.0001 13.445 34.5551 13 34.0001 13C33.4451 13 33.0001 13.445 33.0001 14V18H31.0001V7Z" fill="#E2E8EF"/>
</svg>
