<svg width="40" height="40" viewBox="0 0 40 40" fill="none" xmlns="http://www.w3.org/2000/svg">
<path d="M20 38.5C30.2173 38.5 38.5 30.2173 38.5 20C38.5 9.78273 30.2173 1.5 20 1.5C9.78273 1.5 1.5 9.78273 1.5 20C1.5 30.2173 9.78273 38.5 20 38.5Z" fill="white" stroke="#F5F5F5" stroke-width="3"/>
<path d="M19.9992 22.8334C16.5775 22.8334 14.3071 22.4349 11.4992 21.889C10.858 21.7653 9.61035 21.889 9.61035 23.7779C9.61035 27.5556 13.9501 32.2779 19.9992 32.2779C26.0475 32.2779 30.3881 27.5556 30.3881 23.7779C30.3881 21.889 29.1405 21.7643 28.4992 21.889C25.6914 22.4349 23.421 22.8334 19.9992 22.8334Z" fill="#D1D1D0"/>
<path d="M11.5 23.7777C11.5 23.7777 14.3333 24.7222 20 24.7222C25.6667 24.7222 28.5 23.7777 28.5 23.7777C28.5 23.7777 26.6111 27.5555 20 27.5555C13.3889 27.5555 11.5 23.7777 11.5 23.7777Z" fill="white"/>
<path d="M14.3328 19.0555C15.6368 19.0555 16.6939 17.5756 16.6939 15.75C16.6939 13.9243 15.6368 12.4444 14.3328 12.4444C13.0288 12.4444 11.9717 13.9243 11.9717 15.75C11.9717 17.5756 13.0288 19.0555 14.3328 19.0555Z" fill="#D1D1D0"/>
<path d="M25.6678 19.0555C26.9718 19.0555 28.0289 17.5756 28.0289 15.75C28.0289 13.9243 26.9718 12.4444 25.6678 12.4444C24.3637 12.4444 23.3066 13.9243 23.3066 15.75C23.3066 17.5756 24.3637 19.0555 25.6678 19.0555Z" fill="#D1D1D0"/>
</svg>
