<svg width="21" height="21" viewBox="0 0 21 21" fill="none" xmlns="http://www.w3.org/2000/svg">
<path d="M10.0048 10.6304C10.5508 11.1651 10.945 11.8352 11.1472 12.5722C11.3493 13.3092 11.3522 14.0867 11.1554 14.8251C10.9569 15.5646 10.5664 16.2384 10.0235 16.7783C9.48057 17.3182 8.80457 17.705 8.06401 17.8994C7.32259 18.0955 6.54261 18.093 5.80245 17.8922C5.06229 17.6914 4.38802 17.2993 3.84739 16.7554C3.05454 15.9405 2.61534 14.8456 2.62526 13.7087C2.63517 12.5718 3.09339 11.4847 3.90032 10.6837C5.57989 9.01337 8.29545 8.98975 10.0039 10.6312L10.0048 10.6304V10.6304Z" stroke="#CAD2DC" stroke-width="2" stroke-linejoin="round"/>
<path d="M10.0625 10.5L17.5 3.0625" stroke="#CAD2DC" stroke-width="2" stroke-linecap="round" stroke-linejoin="round"/>
<path d="M13.2585 7.39375L15.6336 9.75624L18.4043 7L16.0296 4.6375L13.2585 7.39375V7.39375Z" stroke="#CAD2DC" stroke-width="2" stroke-linejoin="round"/>
</svg>
