<svg width="40" height="40" viewBox="0 0 40 40" fill="none" xmlns="http://www.w3.org/2000/svg">
<path d="M20 38.5C30.2171 38.5 38.5 30.2171 38.5 20C38.5 9.78385 30.2172 1.5 20 1.5C9.7838 1.5 1.5 9.7838 1.5 20C1.5 30.2172 9.78385 38.5 20 38.5Z" fill="white" stroke="#F5F5F5" stroke-width="3"/>
<path d="M13.8611 21.889C15.1651 21.889 16.2222 20.4091 16.2222 18.5835C16.2222 16.7578 15.1651 15.2779 13.8611 15.2779C12.5571 15.2779 11.5 16.7578 11.5 18.5835C11.5 20.4091 12.5571 21.889 13.8611 21.889Z" fill="#D1D1D0"/>
<path d="M26.1365 21.889C27.4405 21.889 28.4976 20.4091 28.4976 18.5835C28.4976 16.7578 27.4405 15.2779 26.1365 15.2779C24.8325 15.2779 23.7754 16.7578 23.7754 18.5835C23.7754 20.4091 24.8325 21.889 26.1365 21.889Z" fill="#D1D1D0"/>
<path d="M26.613 27.5556H13.3907C13.1403 27.5556 12.9 27.4561 12.7229 27.279C12.5458 27.1019 12.4463 26.8617 12.4463 26.6112C12.4463 26.3607 12.5458 26.1205 12.7229 25.9434C12.9 25.7663 13.1403 25.6667 13.3907 25.6667H26.613C26.8634 25.6667 27.1037 25.7663 27.2808 25.9434C27.4579 26.1205 27.5574 26.3607 27.5574 26.6112C27.5574 26.8617 27.4579 27.1019 27.2808 27.279C27.1037 27.4561 26.8634 27.5556 26.613 27.5556Z" fill="#D1D1D0"/>
</svg>
