<svg width="32" height="32" viewBox="0 0 32 32" fill="none" xmlns="http://www.w3.org/2000/svg">
<path d="M32 16C32 24.8364 24.8364 32 16 32C7.16444 32 0 24.8364 0 16C0 7.16444 7.16444 0 16 0C24.8364 0 32 7.16444 32 16Z" fill="#FFCC4D"/>
<path d="M10.2222 17.7778C11.4495 17.7778 12.4444 16.3849 12.4444 14.6667C12.4444 12.9484 11.4495 11.5556 10.2222 11.5556C8.99492 11.5556 8 12.9484 8 14.6667C8 16.3849 8.99492 17.7778 10.2222 17.7778Z" fill="#664500"/>
<path d="M21.7779 17.7778C23.0052 17.7778 24.0001 16.3849 24.0001 14.6667C24.0001 12.9484 23.0052 11.5556 21.7779 11.5556C20.5506 11.5556 19.5557 12.9484 19.5557 14.6667C19.5557 16.3849 20.5506 17.7778 21.7779 17.7778Z" fill="#664500"/>
<path d="M22.2222 23.1111H9.7778C9.54206 23.1111 9.31596 23.0175 9.14927 22.8508C8.98257 22.6841 8.88892 22.458 8.88892 22.2222C8.88892 21.9865 8.98257 21.7604 9.14927 21.5937C9.31596 21.427 9.54206 21.3333 9.7778 21.3333H22.2222C22.458 21.3333 22.6841 21.427 22.8508 21.5937C23.0175 21.7604 23.1111 21.9865 23.1111 22.2222C23.1111 22.458 23.0175 22.6841 22.8508 22.8508C22.6841 23.0175 22.458 23.1111 22.2222 23.1111Z" fill="#664500"/>
</svg>
