<svg width="19" height="19" viewBox="0 0 19 19" fill="none" xmlns="http://www.w3.org/2000/svg">
<path d="M9.05197 9.61796C9.54597 10.1017 9.90265 10.708 10.0856 11.3748C10.2685 12.0417 10.271 12.7451 10.093 13.4132C9.91339 14.0823 9.56008 14.6919 9.06889 15.1804C8.5777 15.6689 7.96608 16.0188 7.29605 16.1947C6.62524 16.3721 5.91954 16.3699 5.24988 16.1882C4.58021 16.0065 3.97015 15.6518 3.48101 15.1596C2.76367 14.4223 2.3663 13.4317 2.37527 12.4031C2.38424 11.3744 2.79882 10.3909 3.5289 9.66625C5.04851 8.15496 7.50545 8.13358 9.05118 9.61875L9.05197 9.61796V9.61796Z" stroke="#CAD2DC" stroke-width="2" stroke-linejoin="round"/>
<path d="M9.10425 9.5L15.8334 2.77084" stroke="#CAD2DC" stroke-width="2" stroke-linecap="round" stroke-linejoin="round"/>
<path d="M11.9957 6.68959L14.1447 8.82709L16.6515 6.33334L14.5029 4.19584L11.9957 6.68959V6.68959Z" stroke="#CAD2DC" stroke-width="2" stroke-linejoin="round"/>
</svg>
