<svg width="19" height="19" viewBox="0 0 19 19" fill="none" xmlns="http://www.w3.org/2000/svg">
<path d="M6.49134 2.23529C6.8387 2.23529 7.15947 2.42384 7.32846 2.72817L8.49886 4.83662C8.6522 5.11279 8.65924 5.44685 8.51763 5.7285L7.71181 7.71177C7.71181 7.71177 7.90896 9.47363 9.27652 10.8412C10.6441 12.2087 12.4059 12.4059 12.4059 12.4059L14.3829 11.5938C14.6646 11.453 14.9994 11.4608 15.2756 11.6134L17.3903 12.7892C17.6939 12.9582 17.8824 13.2782 17.8824 13.6264V16.054C17.8824 17.2901 16.7339 18.1828 15.5627 17.7877C13.1562 16.9756 9.42125 15.4305 7.05463 13.0623C4.68723 10.6957 3.14208 6.96149 2.33 4.55497C1.93491 3.38379 2.82757 2.23529 4.06369 2.23529H6.49134V2.23529Z" stroke="#CAD2DC" stroke-width="2" stroke-linejoin="round"/>
</svg>
