<svg width="18" height="17" viewBox="0 0 18 17" fill="none" xmlns="http://www.w3.org/2000/svg">
<path d="M6.05823 1C6.38945 1 6.69531 1.17979 6.85645 1.46998L7.97246 3.48045C8.11868 3.74379 8.1254 4.06233 7.99037 4.33089L7.22199 6.22201C7.22199 6.22201 7.40998 7.902 8.71399 9.20601C10.018 10.51 11.698 10.698 11.698 10.698L13.5831 9.92366C13.8517 9.78938 14.171 9.79684 14.4343 9.94231L16.4508 11.0636C16.7402 11.2247 16.92 11.5298 16.92 11.8618V14.1766C16.92 15.3553 15.8249 16.2065 14.7081 15.8298C12.4134 15.0554 8.852 13.582 6.59535 11.3239C4.33795 9.06725 2.8646 5.50659 2.09025 3.21189C1.71352 2.09513 2.5647 1 3.74338 1H6.05823V1Z" stroke="#CAD2DC" stroke-width="2" stroke-linejoin="round"/>
</svg>
