<svg width="42" height="42" viewBox="0 0 42 42" fill="none" xmlns="http://www.w3.org/2000/svg">
<circle cx="21" cy="21" r="21" fill="white"/>
<path d="M21 31C18.6833 30.4167 16.771 29.0873 15.263 27.012C13.7543 24.9373 13 22.6333 13 20.1V14L21 11L29 14V20.1C29 22.6333 28.246 24.9373 26.738 27.012C25.2293 29.0873 23.3167 30.4167 21 31ZM21 28.9C22.6167 28.4 23.9667 27.4127 25.05 25.938C26.1333 24.4627 26.7667 22.8167 26.95 21H21V13.125L15 15.375V20.55C15 20.6667 15.0167 20.8167 15.05 21H21V28.9Z" fill="#CAD2DC"/>
</svg>
