<svg width="164" height="148" viewBox="0 0 164 148" fill="none" xmlns="http://www.w3.org/2000/svg">
<path d="M19.0886 16.1591L158.69 1.71752C159.295 1.65678 159.905 1.72959 160.478 1.93082C161.051 2.13204 161.573 2.45676 162.007 2.88199C162.441 3.30721 162.776 3.82256 162.988 4.39157C163.201 4.96058 163.286 5.56934 163.237 6.17479L151.291 142.032C151.155 143.64 150.401 145.133 149.187 146.196C147.974 147.26 146.396 147.813 144.784 147.738L9.19347 140.428C8.09605 140.363 7.06843 139.868 6.33395 139.05C5.59947 138.232 5.21751 137.158 5.27107 136.06L13.4725 22.0427C13.5766 20.5613 14.1947 19.1628 15.2201 18.0886C16.2454 17.0144 17.6137 16.332 19.0886 16.1591Z" fill="#D2D1E2"/>
<path d="M14.0087 14.6437L155.215 0.0238223C155.828 -0.0423486 156.449 0.0297562 157.03 0.234838C157.612 0.439919 158.14 0.772752 158.576 1.20889C159.013 1.64502 159.345 2.17336 159.55 2.75505C159.756 3.33675 159.828 3.957 159.761 4.57023L147.727 141.943C147.606 143.573 146.844 145.089 145.607 146.159C144.371 147.228 142.761 147.764 141.13 147.648L3.93527 140.249C3.38221 140.222 2.84018 140.085 2.34133 139.845C1.84247 139.604 1.39693 139.266 1.03113 138.851C0.665337 138.435 0.386743 137.95 0.211828 137.425C0.036912 136.899 -0.0307649 136.344 0.0128501 135.792L8.30339 20.4381C8.45971 18.9697 9.1088 17.5975 10.1449 16.5453C11.1809 15.493 12.5429 14.8227 14.0087 14.6437Z" fill="#678AE9"/>
<path d="M15.4995 100.001L133.001 100.501L132.001 123.501L13.9995 118.001L15.4995 100.001Z" fill="#C5D5FF"/>
<path d="M43.001 106.001L124.002 107.001" stroke="white" stroke-width="2" stroke-linecap="round" stroke-linejoin="round"/>
<path d="M43.001 114.001L124.002 117.501" stroke="white" stroke-width="2" stroke-linecap="round" stroke-linejoin="round"/>
<path d="M20.001 108.501L22.881 112.001L29.0011 105.001" stroke="white" stroke-width="2" stroke-linecap="round"/>
<path d="M17.5 70.0006L136.501 65.0006L135.501 88.0008H16L17.5 70.0006Z" fill="#C5D5FF"/>
<path d="M44.9999 75.0006L126.001 73.5006" stroke="white" stroke-width="2" stroke-linecap="round" stroke-linejoin="round"/>
<path d="M44.9995 83.0007L125.5 82.5007" stroke="white" stroke-width="2" stroke-linecap="round" stroke-linejoin="round"/>
<path d="M21.9995 78.5007L24.8795 82.0007L30.9996 75.0007" stroke="white" stroke-width="2" stroke-linecap="round"/>
<path d="M19.501 38.0004L141.002 29.0003L140.002 52.0005L18.001 56.0005L19.501 38.0004Z" fill="#C5D5FF"/>
<path d="M47.0006 42.0004L128.001 37.0003" stroke="white" stroke-width="2" stroke-linecap="round" stroke-linejoin="round"/>
<path d="M47.001 50.0005L127.002 46.5004" stroke="white" stroke-width="2" stroke-linecap="round" stroke-linejoin="round"/>
<path d="M24 46.5004L26.88 50.0004L33.0001 43.0004" stroke="white" stroke-width="2" stroke-linecap="round"/>
</svg>
