<svg width="164" height="148" viewBox="0 0 164 148" fill="none" xmlns="http://www.w3.org/2000/svg">
<path d="M19.0904 16.1589L158.69 1.71751C159.295 1.65677 159.905 1.72958 160.478 1.93081C161.051 2.13203 161.573 2.45674 162.007 2.88196C162.441 3.30719 162.776 3.82252 162.988 4.39152C163.201 4.96053 163.286 5.56929 163.237 6.17472L151.291 142.031C151.155 143.638 150.401 145.131 149.187 146.195C147.974 147.258 146.396 147.811 144.784 147.736L9.19537 140.426C8.09797 140.362 7.07036 139.867 6.33589 139.049C5.60142 138.231 5.21946 137.156 5.27303 136.058L13.4743 22.0424C13.5784 20.5611 14.1965 19.1626 15.2219 18.0884C16.2472 17.0142 17.6155 16.3318 19.0904 16.1589Z" fill="#D2D1E2"/>
<path d="M14.0085 14.6435L155.213 0.023822C155.826 -0.042348 156.447 0.0297558 157.028 0.234835C157.61 0.439914 158.138 0.772743 158.574 1.20887C159.011 1.645 159.343 2.17334 159.548 2.75502C159.754 3.33671 159.826 3.95695 159.759 4.57017L147.725 141.941C147.604 143.572 146.842 145.088 145.605 146.157C144.369 147.226 142.759 147.762 141.128 147.647L3.93522 140.248C3.38217 140.221 2.84015 140.083 2.3413 139.843C1.84245 139.603 1.39691 139.265 1.03112 138.849C0.665329 138.433 0.386739 137.948 0.211825 137.423C0.0369115 136.898 -0.0307645 136.342 0.01285 135.79L8.30329 20.4378C8.4596 18.9695 9.10869 17.5973 10.1447 16.5451C11.1808 15.4928 12.5427 14.8225 14.0085 14.6435Z" fill="#678AE9"/>
<path d="M28.6284 44.2393L22.21 44.5959L21.4077 56.5412L27.737 56.3629L28.6284 44.2393Z" fill="#DEECFF"/>
<path d="M21.4091 56.5412L20.9634 62.4247L27.2927 62.2464L27.7384 56.3629L21.4091 56.5412Z" fill="#ABC1FB"/>
<path d="M42.4458 28.0151L36.0273 28.4608L34.9575 43.8828L41.2868 43.6153L42.4458 28.0151Z" fill="#DEECFF"/>
<path d="M34.9568 43.8827L33.6196 62.0682L39.9489 61.8899L41.286 43.6153L34.9568 43.8827Z" fill="#ABC1FB"/>
<path d="M48.3289 33.6312L47.6157 43.2587L53.945 42.9022L54.6581 33.1854L48.3289 33.6312Z" fill="#DEECFF"/>
<path d="M47.615 43.2587L46.2778 61.8008L52.6071 61.6225L53.9442 42.9021L47.615 43.2587Z" fill="#ABC1FB"/>
<path d="M66.604 42.189L60.2748 42.5456L59.8291 49.3205L66.1583 48.9639L66.604 42.189Z" fill="#DEECFF"/>
<path d="M59.828 49.3205L58.9365 61.4442L65.2657 61.2659L66.1572 48.964L59.828 49.3205Z" fill="#ABC1FB"/>
<path d="M80.0641 31.4026L79.2618 41.565L78.8161 48.2508L72.4868 48.6074L72.9325 41.8325L73.7349 31.8483L80.0641 31.4026Z" fill="#DEECFF"/>
<path d="M72.4869 48.6074L71.5063 61.0876L77.8355 60.9984L78.8162 48.2508L72.4869 48.6074Z" fill="#ABC1FB"/>
<path d="M130.965 24.0927L119.644 42.0107L109.749 28.5499C113.582 25.3314 118.312 23.3707 123.298 22.9338C125.908 22.7453 128.527 23.1412 130.965 24.0927Z" fill="#DEECFF"/>
<path d="M139.791 40.5844L119.645 42.0107L130.966 24.0927C137.206 26.5887 140.861 32.8288 139.791 40.5844Z" fill="#F4C2C9"/>
<path d="M139.791 40.5844C139.791 40.8518 139.702 41.1193 139.702 41.3867C137.829 51.9949 127.934 60.8201 117.504 61.6224L119.644 42.0107L139.791 40.5844Z" fill="#F3F8FF"/>
<path d="M119.645 42.0108L117.506 61.6225C116.944 61.6967 116.378 61.7265 115.812 61.7117C105.204 61.7117 98.6962 53.0647 100.925 42.6348C102.213 37.1115 105.321 32.1819 109.75 28.6391L119.645 42.0108Z" fill="white"/>
<path d="M136.939 76.8661L132.303 122.062L15.7915 119.923L15.9698 116.446L41.1976 99.063C41.761 98.6634 42.4384 98.4562 43.129 98.4722C43.8196 98.4883 44.4866 98.7267 45.0308 99.1522L54.4801 106.105C54.8305 106.365 55.2288 106.553 55.6522 106.658C56.0756 106.763 56.5156 106.783 56.9467 106.716C57.3778 106.65 57.7915 106.499 58.1638 106.272C58.5361 106.044 58.8596 105.745 59.1156 105.392L68.4757 92.9121C68.7884 92.4937 69.1959 92.1555 69.6649 91.9254C70.1338 91.6953 70.6506 91.5798 71.1729 91.5885C71.6951 91.5972 72.2079 91.7298 72.6688 91.9754C73.1298 92.221 73.5259 92.5726 73.8244 93.0012L82.1149 104.501C82.3728 104.865 82.7015 105.173 83.0814 105.407C83.4612 105.641 83.8843 105.796 84.3255 105.862C84.7666 105.929 85.2166 105.906 85.6486 105.794C86.0806 105.683 86.4856 105.486 86.8395 105.214C87.401 104.789 88.0822 104.552 88.7863 104.536C89.4903 104.52 90.1815 104.726 90.7618 105.125L96.6454 109.315C97.0119 109.573 97.4265 109.755 97.8647 109.849C98.3028 109.944 98.7555 109.951 99.1961 109.867C99.6366 109.784 100.056 109.614 100.429 109.366C100.803 109.118 101.123 108.797 101.37 108.423L114.563 88.0983C114.811 87.7244 115.131 87.404 115.504 87.1559C115.877 86.9078 116.297 86.7372 116.737 86.6541C117.178 86.571 117.631 86.5771 118.069 86.672C118.507 86.767 118.921 86.9488 119.288 87.2069L123.121 89.9703C123.471 90.2314 123.869 90.4201 124.293 90.5257C124.717 90.6312 125.157 90.6514 125.588 90.585C126.02 90.5186 126.434 90.367 126.806 90.1391C127.178 89.9111 127.501 89.6113 127.757 89.2572L136.939 76.8661Z" fill="#ABC1FB"/>
<path d="M52.1614 91.2183H47.0802C46.963 91.2152 46.8466 91.2374 46.7388 91.2836C46.6311 91.3298 46.5347 91.3988 46.4562 91.4858L45.2973 92.6446C45.1306 92.808 44.9066 92.8995 44.6733 92.8995C44.44 92.8995 44.2159 92.808 44.0493 92.6446L43.1578 91.4858C43.0793 91.3988 42.9829 91.3298 42.8751 91.2836C42.7674 91.2374 42.651 91.2152 42.5338 91.2183H37.6309C37.5279 91.2238 37.425 91.2061 37.3298 91.1664C37.2346 91.1267 37.1496 91.066 37.0811 90.9889C37.0126 90.9118 36.9623 90.8203 36.934 90.7211C36.9057 90.6219 36.9002 90.5176 36.9177 90.416L37.6309 80.7884C37.6474 80.5574 37.7467 80.3402 37.9104 80.1764C38.0741 80.0127 38.2914 79.9135 38.5223 79.8969L53.0528 79.3621C53.2656 79.3621 53.4697 79.4466 53.6202 79.5971C53.7706 79.7475 53.8552 79.9516 53.8552 80.1644L53.0528 90.2377C53.0653 90.3621 53.0516 90.4877 53.0124 90.6063C52.9732 90.725 52.9096 90.8341 52.8255 90.9265C52.7415 91.019 52.6389 91.0928 52.5245 91.143C52.4101 91.1933 52.2863 91.2189 52.1614 91.2183Z" fill="white"/>
<path d="M99.7654 96.0322L94.6841 95.9431C94.567 95.9399 94.4505 95.9622 94.3428 96.0083C94.2351 96.0545 94.1386 96.1235 94.0601 96.2105L92.9012 97.3693C92.8196 97.4574 92.7192 97.526 92.6075 97.5701C92.4958 97.6141 92.3756 97.6326 92.2558 97.624C92.1361 97.6155 92.0198 97.5801 91.9155 97.5206C91.8112 97.4611 91.7215 97.379 91.6532 97.2802L90.7618 96.1213C90.6832 96.0343 90.5868 95.9654 90.4791 95.9192C90.3714 95.873 90.255 95.8508 90.1378 95.8539L85.324 95.7648C84.8783 95.7648 84.6108 95.4082 84.6108 94.8733L85.324 85.1566C85.3355 84.9386 85.4215 84.7312 85.5675 84.569C85.7135 84.4068 85.9108 84.2995 86.1263 84.2651L100.657 83.9086C100.769 83.9106 100.88 83.9357 100.982 83.9824C101.085 84.0291 101.176 84.0963 101.252 84.1799C101.327 84.2635 101.384 84.3617 101.42 84.4684C101.456 84.5751 101.469 84.6879 101.459 84.8L100.657 95.1407C100.665 95.2598 100.647 95.3793 100.605 95.491C100.563 95.6027 100.498 95.7042 100.413 95.7886C100.329 95.873 100.227 95.9384 100.116 95.9804C100.004 96.0224 99.8845 96.0401 99.7654 96.0322Z" fill="#F4C2C9"/>
</svg>
