<svg width="40" height="40" viewBox="0 0 40 40" fill="none" xmlns="http://www.w3.org/2000/svg">
<path d="M20 38.5C30.2171 38.5 38.5 30.2171 38.5 20C38.5 9.78385 30.2172 1.5 20 1.5C9.78379 1.5 1.5 9.78379 1.5 20C1.5 30.2172 9.78385 38.5 20 38.5Z" fill="white" stroke="#F5F5F5" stroke-width="3"/>
<path d="M13.8611 21.8888C15.1651 21.8888 16.2222 20.4089 16.2222 18.5833C16.2222 16.7577 15.1651 15.2777 13.8611 15.2777C12.5571 15.2777 11.5 16.7577 11.5 18.5833C11.5 20.4089 12.5571 21.8888 13.8611 21.8888Z" fill="#D1D1D0"/>
<path d="M26.1394 21.8888C27.4434 21.8888 28.5005 20.4089 28.5005 18.5833C28.5005 16.7577 27.4434 15.2777 26.1394 15.2777C24.8354 15.2777 23.7783 16.7577 23.7783 18.5833C23.7783 20.4089 24.8354 21.8888 26.1394 21.8888Z" fill="#D1D1D0"/>
<path d="M8.66518 14.3334C8.48987 14.3332 8.31806 14.2843 8.169 14.192C8.01994 14.0997 7.8995 13.9678 7.82118 13.8109C7.74285 13.6541 7.70973 13.4785 7.72552 13.3039C7.74131 13.1293 7.80538 12.9626 7.91057 12.8223C10.9913 8.71397 15.1035 8.66675 15.2772 8.66675C15.4013 8.6665 15.5241 8.69068 15.6388 8.73792C15.7535 8.78515 15.8577 8.85451 15.9456 8.94204C16.0335 9.02956 16.1033 9.13354 16.151 9.24803C16.1986 9.36252 16.2233 9.48528 16.2236 9.60931C16.2238 9.73333 16.1996 9.85619 16.1524 9.97087C16.1052 10.0856 16.0358 10.1898 15.9483 10.2777C15.8608 10.3656 15.7568 10.4353 15.6423 10.483C15.5278 10.5307 15.405 10.5554 15.281 10.5556C15.1346 10.5575 11.9112 10.6369 9.42168 13.9556C9.33371 14.0732 9.21951 14.1685 9.08817 14.2341C8.95683 14.2997 8.81199 14.3337 8.66518 14.3334ZM31.3337 14.3334C31.1869 14.3337 31.0421 14.2997 30.9107 14.2341C30.7794 14.1685 30.6652 14.0732 30.5772 13.9556C28.0839 10.6303 24.853 10.5575 24.716 10.5556C24.4663 10.5529 24.2279 10.4516 24.0526 10.2738C23.8773 10.096 23.7793 9.85616 23.7801 9.60647C23.7806 9.35707 23.88 9.11805 24.0565 8.94187C24.2331 8.7657 24.4723 8.66675 24.7217 8.66675C24.8955 8.66675 29.0066 8.71397 32.0883 12.8223C32.1935 12.9626 32.2576 13.1293 32.2734 13.3039C32.2892 13.4785 32.2561 13.6541 32.1777 13.8109C32.0994 13.9678 31.979 14.0997 31.8299 14.192C31.6809 14.2843 31.509 14.3332 31.3337 14.3334ZM25.1797 29.3302C25.1693 29.2887 24.0983 25.1945 19.9995 25.1945C15.9006 25.1945 14.8296 29.2887 14.8192 29.3302C14.7957 29.4281 14.8043 29.5308 14.8438 29.6234C14.8832 29.7159 14.9514 29.7933 15.0383 29.844C15.1261 29.8952 15.2278 29.9172 15.3289 29.907C15.43 29.8969 15.5253 29.855 15.6012 29.7874C15.6097 29.7798 16.5579 28.9723 19.9995 28.9723C23.39 28.9723 24.36 29.7562 24.3968 29.7874C24.471 29.8576 24.5659 29.9019 24.6674 29.9137C24.7689 29.9254 24.8714 29.9039 24.9596 29.8524C25.0479 29.8008 25.117 29.7221 25.1567 29.628C25.1964 29.5338 25.2045 29.4294 25.1797 29.3302Z" fill="#D1D1D0"/>
</svg>
