<svg width="32" height="32" viewBox="0 0 32 32" fill="none" xmlns="http://www.w3.org/2000/svg">
<path d="M32 16C32 24.8364 24.8364 32 16 32C7.16444 32 0 24.8364 0 16C0 7.16444 7.16444 0 16 0C24.8364 0 32 7.16444 32 16Z" fill="#FFCC4D"/>
<path d="M14.2222 16C13.8497 16 13.5031 15.7644 13.3786 15.392C13.1982 14.8596 12.4746 13.3333 11.5555 13.3333C10.6115 13.3333 9.87728 14.9573 9.73239 15.392C9.69661 15.5042 9.63891 15.6081 9.56264 15.6978C9.48637 15.7874 9.39304 15.8611 9.28808 15.9144C9.18312 15.9677 9.06862 15.9996 8.95122 16.0083C8.83382 16.017 8.71586 16.0023 8.60419 15.965C8.49253 15.9278 8.38937 15.8687 8.30072 15.7912C8.21206 15.7138 8.13968 15.6195 8.08777 15.5138C8.03585 15.4082 8.00544 15.2933 7.9983 15.1758C7.99116 15.0583 8.00743 14.9405 8.04617 14.8293C8.15728 14.4951 9.20528 11.5556 11.5555 11.5556C13.9057 11.5556 14.9537 14.4951 15.0657 14.8302C15.1102 14.9639 15.1223 15.1061 15.1011 15.2454C15.0798 15.3846 15.0257 15.5168 14.9434 15.631C14.861 15.7453 14.7526 15.8383 14.6272 15.9025C14.5019 15.9666 14.363 16 14.2222 16ZM23.1111 16C22.9245 16 22.7428 15.9413 22.5915 15.8321C22.4403 15.723 22.3272 15.569 22.2684 15.392C22.0879 14.8596 21.3626 13.3333 20.4444 13.3333C19.5004 13.3333 18.7653 14.9573 18.6204 15.392C18.5435 15.6127 18.3828 15.7942 18.173 15.8973C17.9632 16.0003 17.7213 16.0167 17.4996 15.9427C17.278 15.8687 17.0943 15.7104 16.9885 15.502C16.8826 15.2937 16.8631 15.052 16.9342 14.8293C17.0462 14.4951 18.0933 11.5556 20.4444 11.5556C22.7955 11.5556 23.8426 14.4951 23.9537 14.8302C23.9982 14.9638 24.0103 15.106 23.9891 15.2452C23.9679 15.3843 23.9139 15.5164 23.8316 15.6307C23.7493 15.7449 23.6411 15.8379 23.5158 15.9021C23.3906 15.9664 23.2518 15.9999 23.1111 16ZM15.9999 19.5556C12.7795 19.5556 10.6426 19.1804 7.99995 18.6667C7.39639 18.5502 6.22217 18.6667 6.22217 20.4444C6.22217 24 10.3066 28.4445 15.9999 28.4445C21.6924 28.4445 25.7777 24 25.7777 20.4444C25.7777 18.6667 24.6035 18.5493 23.9999 18.6667C21.3573 19.1804 19.2204 19.5556 15.9999 19.5556Z" fill="#664500"/>
<path d="M8 20.4444C8 20.4444 10.6667 21.3333 16 21.3333C21.3333 21.3333 24 20.4444 24 20.4444C24 20.4444 22.8053 26.4444 16 26.4444C9.19467 26.4444 8 20.4444 8 20.4444Z" fill="white"/>
<path d="M16.0001 24.528C12.8037 24.528 10.425 24.1973 8.945 23.8658L8.21167 22.2027C8.94323 22.48 11.6686 23 16.001 23C20.4046 23 23.145 22.4525 23.8801 22.1662L23.257 23.8036C21.8046 24.1413 19.329 24.528 16.0001 24.528Z" fill="#664500"/>
</svg>
