<svg width="42" height="42" viewBox="0 0 42 42" fill="none" xmlns="http://www.w3.org/2000/svg">
<circle cx="21" cy="21" r="21" fill="white"/>
<path d="M21.5 19.25C21.5 19.0511 21.579 18.8603 21.7197 18.7197C21.8603 18.579 22.0511 18.5 22.25 18.5H25.75C25.9489 18.5 26.1397 18.579 26.2803 18.7197C26.421 18.8603 26.5 19.0511 26.5 19.25C26.5 19.4489 26.421 19.6397 26.2803 19.7803C26.1397 19.921 25.9489 20 25.75 20H22.25C22.0511 20 21.8603 19.921 21.7197 19.7803C21.579 19.6397 21.5 19.4489 21.5 19.25ZM22.25 24C22.0511 24 21.8603 24.079 21.7197 24.2197C21.579 24.3603 21.5 24.5511 21.5 24.75C21.5 24.9489 21.579 25.1397 21.7197 25.2803C21.8603 25.421 22.0511 25.5 22.25 25.5H25.75C25.9489 25.5 26.1397 25.421 26.2803 25.2803C26.421 25.1397 26.5 24.9489 26.5 24.75C26.5 24.5511 26.421 24.3603 26.2803 24.2197C26.1397 24.079 25.9489 24 25.75 24H22.25ZM19.78 18.78C19.8537 18.7113 19.9128 18.6285 19.9538 18.5365C19.9948 18.4445 20.0168 18.3452 20.0186 18.2445C20.0204 18.1438 20.0018 18.0438 19.9641 17.9504C19.9264 17.857 19.8703 17.7722 19.799 17.701C19.7278 17.6297 19.643 17.5736 19.5496 17.5359C19.4562 17.4982 19.3562 17.4796 19.2555 17.4814C19.1548 17.4832 19.0555 17.5052 18.9635 17.5462C18.8715 17.5872 18.7887 17.6463 18.72 17.72L17.25 19.19L16.78 18.72C16.6378 18.5875 16.4498 18.5154 16.2555 18.5188C16.0612 18.5223 15.8758 18.601 15.7384 18.7384C15.601 18.8758 15.5223 19.0612 15.5188 19.2555C15.5154 19.4498 15.5875 19.6378 15.72 19.78L16.72 20.78C16.8606 20.9205 17.0512 20.9993 17.25 20.9993C17.4488 20.9993 17.6394 20.9205 17.78 20.78L19.78 18.78ZM19.78 23.22C19.9205 23.3606 19.9993 23.5512 19.9993 23.75C19.9993 23.9488 19.9205 24.1394 19.78 24.28L17.78 26.28C17.6394 26.4205 17.4488 26.4993 17.25 26.4993C17.0512 26.4993 16.8606 26.4205 16.72 26.28L15.72 25.28C15.6463 25.2113 15.5872 25.1285 15.5462 25.0365C15.5052 24.9445 15.4832 24.8452 15.4814 24.7445C15.4796 24.6438 15.4982 24.5438 15.5359 24.4504C15.5736 24.357 15.6297 24.2722 15.701 24.201C15.7722 24.1297 15.857 24.0736 15.9504 24.0359C16.0438 23.9982 16.1438 23.9796 16.2445 23.9814C16.3452 23.9832 16.4445 24.0052 16.5365 24.0462C16.6285 24.0872 16.7113 24.1463 16.78 24.22L17.25 24.69L18.72 23.22C18.8606 23.0795 19.0512 23.0007 19.25 23.0007C19.4488 23.0007 19.6394 23.0795 19.78 23.22ZM24.994 13.084C24.9521 12.5175 24.6975 11.9879 24.2813 11.6013C23.865 11.2148 23.318 11 22.75 11H19.25C18.6966 11 18.1625 11.204 17.75 11.573C17.3375 11.9419 17.0755 12.45 17.014 13H15.25C14.6533 13 14.081 13.2371 13.659 13.659C13.2371 14.081 13 14.6533 13 15.25V28.75C13 29.3467 13.2371 29.919 13.659 30.341C14.081 30.7629 14.6533 31 15.25 31H26.75C27.0455 31 27.3381 30.9418 27.611 30.8287C27.884 30.7157 28.1321 30.5499 28.341 30.341C28.5499 30.1321 28.7157 29.884 28.8287 29.611C28.9418 29.3381 29 29.0455 29 28.75V15.25C29 14.9545 28.9418 14.6619 28.8287 14.389C28.7157 14.116 28.5499 13.8679 28.341 13.659C28.1321 13.4501 27.884 13.2843 27.611 13.1713C27.3381 13.0582 27.0455 13 26.75 13H24.986L24.994 13.084ZM24.994 13.096L25 13.25C25 13.198 24.997 13.147 24.994 13.096ZM19.25 15.5H22.75C23.53 15.5 24.217 15.103 24.621 14.5H26.75C26.9489 14.5 27.1397 14.579 27.2803 14.7197C27.421 14.8603 27.5 15.0511 27.5 15.25V28.75C27.5 28.9489 27.421 29.1397 27.2803 29.2803C27.1397 29.421 26.9489 29.5 26.75 29.5H15.25C15.0511 29.5 14.8603 29.421 14.7197 29.2803C14.579 29.1397 14.5 28.9489 14.5 28.75V15.25C14.5 15.0511 14.579 14.8603 14.7197 14.7197C14.8603 14.579 15.0511 14.5 15.25 14.5H17.379C17.783 15.103 18.47 15.5 19.25 15.5ZM19.25 12.5H22.75C22.9489 12.5 23.1397 12.579 23.2803 12.7197C23.421 12.8603 23.5 13.0511 23.5 13.25C23.5 13.4489 23.421 13.6397 23.2803 13.7803C23.1397 13.921 22.9489 14 22.75 14H19.25C19.0511 14 18.8603 13.921 18.7197 13.7803C18.579 13.6397 18.5 13.4489 18.5 13.25C18.5 13.0511 18.579 12.8603 18.7197 12.7197C18.8603 12.579 19.0511 12.5 19.25 12.5Z" fill="#CAD2DC"/>
<path d="M20.5 19.25C20.5 19.0511 20.579 18.8603 20.7197 18.7197C20.8603 18.579 21.0511 18.5 21.25 18.5H24.75C24.9489 18.5 25.1397 18.579 25.2803 18.7197C25.421 18.8603 25.5 19.0511 25.5 19.25C25.5 19.4489 25.421 19.6397 25.2803 19.7803C25.1397 19.921 24.9489 20 24.75 20H21.25C21.0511 20 20.8603 19.921 20.7197 19.7803C20.579 19.6397 20.5 19.4489 20.5 19.25ZM21.25 24C21.0511 24 20.8603 24.079 20.7197 24.2197C20.579 24.3603 20.5 24.5511 20.5 24.75C20.5 24.9489 20.579 25.1397 20.7197 25.2803C20.8603 25.421 21.0511 25.5 21.25 25.5H24.75C24.9489 25.5 25.1397 25.421 25.2803 25.2803C25.421 25.1397 25.5 24.9489 25.5 24.75C25.5 24.5511 25.421 24.3603 25.2803 24.2197C25.1397 24.079 24.9489 24 24.75 24H21.25ZM18.78 18.78C18.8537 18.7113 18.9128 18.6285 18.9538 18.5365C18.9948 18.4445 19.0168 18.3452 19.0186 18.2445C19.0204 18.1438 19.0018 18.0438 18.9641 17.9504C18.9264 17.857 18.8703 17.7722 18.799 17.701C18.7278 17.6297 18.643 17.5736 18.5496 17.5359C18.4562 17.4982 18.3562 17.4796 18.2555 17.4814C18.1548 17.4832 18.0555 17.5052 17.9635 17.5462C17.8715 17.5872 17.7887 17.6463 17.72 17.72L16.25 19.19L15.78 18.72C15.6378 18.5875 15.4498 18.5154 15.2555 18.5188C15.0612 18.5223 14.8758 18.601 14.7384 18.7384C14.601 18.8758 14.5223 19.0612 14.5188 19.2555C14.5154 19.4498 14.5875 19.6378 14.72 19.78L15.72 20.78C15.8606 20.9205 16.0512 20.9993 16.25 20.9993C16.4488 20.9993 16.6394 20.9205 16.78 20.78L18.78 18.78ZM18.78 23.22C18.9205 23.3606 18.9993 23.5512 18.9993 23.75C18.9993 23.9488 18.9205 24.1394 18.78 24.28L16.78 26.28C16.6394 26.4205 16.4488 26.4993 16.25 26.4993C16.0512 26.4993 15.8606 26.4205 15.72 26.28L14.72 25.28C14.6463 25.2113 14.5872 25.1285 14.5462 25.0365C14.5052 24.9445 14.4832 24.8452 14.4814 24.7445C14.4796 24.6438 14.4982 24.5438 14.5359 24.4504C14.5736 24.357 14.6297 24.2722 14.701 24.201C14.7722 24.1297 14.857 24.0736 14.9504 24.0359C15.0438 23.9982 15.1438 23.9796 15.2445 23.9814C15.3452 23.9832 15.4445 24.0052 15.5365 24.0462C15.6285 24.0872 15.7113 24.1463 15.78 24.22L16.25 24.69L17.72 23.22C17.8606 23.0795 18.0512 23.0007 18.25 23.0007C18.4488 23.0007 18.6394 23.0795 18.78 23.22ZM23.994 13.084C23.9521 12.5175 23.6975 11.9879 23.2813 11.6013C22.865 11.2148 22.318 11 21.75 11H18.25C17.6966 11 17.1625 11.204 16.75 11.573C16.3375 11.9419 16.0755 12.45 16.014 13H14.25C13.6533 13 13.081 13.2371 12.659 13.659C12.2371 14.081 12 14.6533 12 15.25V28.75C12 29.3467 12.2371 29.919 12.659 30.341C13.081 30.7629 13.6533 31 14.25 31H25.75C26.0455 31 26.3381 30.9418 26.611 30.8287C26.884 30.7157 27.1321 30.5499 27.341 30.341C27.5499 30.1321 27.7157 29.884 27.8287 29.611C27.9418 29.3381 28 29.0455 28 28.75V15.25C28 14.9545 27.9418 14.6619 27.8287 14.389C27.7157 14.116 27.5499 13.8679 27.341 13.659C27.1321 13.4501 26.884 13.2843 26.611 13.1713C26.3381 13.0582 26.0455 13 25.75 13H23.986L23.994 13.084ZM23.994 13.096L24 13.25C24 13.198 23.997 13.147 23.994 13.096ZM18.25 15.5H21.75C22.53 15.5 23.217 15.103 23.621 14.5H25.75C25.9489 14.5 26.1397 14.579 26.2803 14.7197C26.421 14.8603 26.5 15.0511 26.5 15.25V28.75C26.5 28.9489 26.421 29.1397 26.2803 29.2803C26.1397 29.421 25.9489 29.5 25.75 29.5H14.25C14.0511 29.5 13.8603 29.421 13.7197 29.2803C13.579 29.1397 13.5 28.9489 13.5 28.75V15.25C13.5 15.0511 13.579 14.8603 13.7197 14.7197C13.8603 14.579 14.0511 14.5 14.25 14.5H16.379C16.783 15.103 17.47 15.5 18.25 15.5ZM18.25 12.5H21.75C21.9489 12.5 22.1397 12.579 22.2803 12.7197C22.421 12.8603 22.5 13.0511 22.5 13.25C22.5 13.4489 22.421 13.6397 22.2803 13.7803C22.1397 13.921 21.9489 14 21.75 14H18.25C18.0511 14 17.8603 13.921 17.7197 13.7803C17.579 13.6397 17.5 13.4489 17.5 13.25C17.5 13.0511 17.579 12.8603 17.7197 12.7197C17.8603 12.579 18.0511 12.5 18.25 12.5Z" fill="#CAD2DC"/>
</svg>
