<svg width="42" height="42" viewBox="0 0 42 42" fill="none" xmlns="http://www.w3.org/2000/svg">
<circle cx="21" cy="21" r="21" fill="white"/>
<path d="M14 24V26C13.9998 26.5046 14.1904 26.9906 14.5335 27.3605C14.8766 27.7305 15.3468 27.9572 15.85 27.995L16 28H19V30H16C14.9391 30 13.9217 29.5786 13.1716 28.8284C12.4214 28.0783 12 27.0609 12 26V24H14ZM27 19L31.4 30H29.245L28.044 27H23.954L22.755 30H20.601L25 19H27ZM26 21.885L24.753 25H27.245L26 21.885ZM17 11V13H21V20H17V23H15V20H11V13H15V11H17ZM26 12C27.0609 12 28.0783 12.4214 28.8284 13.1716C29.5786 13.9217 30 14.9391 30 16V18H28V16C28 15.4696 27.7893 14.9609 27.4142 14.5858C27.0391 14.2107 26.5304 14 26 14H23V12H26ZM15 15H13V18H15V15ZM19 15H17V18H19V15Z" fill="#CAD2DC"/>
</svg>
