<svg width="19" height="19" viewBox="0 0 19 19" fill="none" xmlns="http://www.w3.org/2000/svg">
<path d="M13 11.875C12.1667 11.875 11.4583 11.5286 10.875 10.8359C10.2917 10.1432 10 9.30208 10 8.3125C10 7.32292 10.2917 6.48177 10.875 5.78906C11.4583 5.09635 12.1667 4.75 13 4.75C13.8333 4.75 14.5417 5.09635 15.125 5.78906C15.7083 6.48177 16 7.32292 16 8.3125C16 9.30208 15.7083 10.1432 15.125 10.8359C14.5417 11.5286 13.8333 11.875 13 11.875ZM8 19C7.71667 19 7.47933 18.886 7.288 18.658C7.096 18.4308 7 18.149 7 17.8125V16.7438C7 16.3281 7.08333 15.9323 7.25 15.5563C7.41667 15.1802 7.65 14.8833 7.95 14.6656C8.7 14.1313 9.496 13.7303 10.338 13.4627C11.1793 13.1959 12.0667 13.0625 13 13.0625C13.9333 13.0625 14.821 13.1959 15.663 13.4627C16.5043 13.7303 17.3 14.1313 18.05 14.6656C18.35 14.8833 18.5833 15.1802 18.75 15.5563C18.9167 15.9323 19 16.3281 19 16.7438V17.8125C19 18.149 18.904 18.4308 18.712 18.658C18.5207 18.886 18.2833 19 18 19H8ZM9.15 16.625H16.85C16.2667 16.2292 15.65 15.9323 15 15.7344C14.35 15.5365 13.6833 15.4375 13 15.4375C12.3167 15.4375 11.65 15.5365 11 15.7344C10.35 15.9323 9.73333 16.2292 9.15 16.625ZM13 9.5C13.2833 9.5 13.5207 9.386 13.712 9.158C13.904 8.93079 14 8.64896 14 8.3125C14 7.97604 13.904 7.69381 13.712 7.46581C13.5207 7.2386 13.2833 7.125 13 7.125C12.7167 7.125 12.4793 7.2386 12.288 7.46581C12.096 7.69381 12 7.97604 12 8.3125C12 8.64896 12.096 8.93079 12.288 9.158C12.4793 9.386 12.7167 9.5 13 9.5ZM7 11.875H1C0.716667 11.875 0.479333 11.761 0.288 11.533C0.0960001 11.3058 0 11.024 0 10.6875C0 10.351 0.0960001 10.0688 0.288 9.84081C0.479333 9.6136 0.716667 9.5 1 9.5H7C7.28333 9.5 7.521 9.6136 7.713 9.84081C7.90433 10.0688 8 10.351 8 10.6875C8 11.024 7.90433 11.3058 7.713 11.533C7.521 11.761 7.28333 11.875 7 11.875ZM11 2.375H1C0.716667 2.375 0.479333 2.2614 0.288 2.03419C0.0960001 1.80619 0 1.52396 0 1.1875C0 0.851042 0.0960001 0.568813 0.288 0.340813C0.479333 0.113604 0.716667 0 1 0H11C11.2833 0 11.521 0.113604 11.713 0.340813C11.9043 0.568813 12 0.851042 12 1.1875C12 1.52396 11.9043 1.80619 11.713 2.03419C11.521 2.2614 11.2833 2.375 11 2.375ZM8.1 7.125H1C0.716667 7.125 0.479333 7.011 0.288 6.783C0.0960001 6.55579 0 6.27396 0 5.9375C0 5.60104 0.0960001 5.31881 0.288 5.09081C0.479333 4.8636 0.716667 4.75 1 4.75H9C8.76667 5.08646 8.57933 5.4526 8.438 5.84844C8.296 6.24427 8.18333 6.66979 8.1 7.125Z" fill="#CBD2DC"/>
</svg>
