<svg width="164" height="148" viewBox="0 0 164 148" fill="none" xmlns="http://www.w3.org/2000/svg">
<path d="M19.0886 16.1591L158.69 1.71754C159.295 1.6568 159.905 1.72961 160.478 1.93084C161.051 2.13206 161.573 2.45678 162.007 2.88201C162.441 3.30723 162.776 3.82258 162.988 4.39159C163.201 4.9606 163.286 5.56936 163.237 6.17481L151.291 142.032C151.155 143.64 150.401 145.133 149.187 146.196C147.974 147.26 146.396 147.813 144.784 147.738L9.19347 140.428C8.09605 140.363 7.06843 139.868 6.33395 139.05C5.59947 138.232 5.21751 137.158 5.27107 136.06L13.4725 22.0427C13.5766 20.5613 14.1947 19.1628 15.2201 18.0886C16.2454 17.0144 17.6137 16.332 19.0886 16.1591Z" fill="#D2D1E2"/>
<path d="M14.0087 14.6437L155.215 0.0238223C155.828 -0.0423485 156.449 0.0297562 157.03 0.234838C157.612 0.439919 158.14 0.772752 158.576 1.20889C159.013 1.64502 159.345 2.17336 159.55 2.75505C159.756 3.33675 159.828 3.957 159.761 4.57023L147.727 141.943C147.606 143.573 146.844 145.089 145.607 146.159C144.371 147.228 142.761 147.764 141.13 147.648L3.93527 140.249C3.38221 140.222 2.84018 140.085 2.34133 139.845C1.84247 139.604 1.39693 139.266 1.03113 138.851C0.665337 138.435 0.386743 137.95 0.211828 137.425C0.036912 136.899 -0.0307649 136.344 0.0128501 135.792L8.30339 20.4381C8.45971 18.9697 9.1088 17.5975 10.1449 16.5453C11.1809 15.493 12.5429 14.8227 14.0087 14.6437Z" fill="#678AE9"/>
<path d="M11.75 124.001L136.751 131.501" stroke="white" stroke-opacity="0.3" stroke-width="2" stroke-linecap="round" stroke-linejoin="round"/>
<path d="M11.75 124.001L67.7505 127.501" stroke="white" stroke-width="2" stroke-linecap="round" stroke-linejoin="round"/>
<ellipse rx="3.50003" ry="4.00004" transform="matrix(-1 0 0 1 69.7505 127.001)" fill="white"/>
<path d="M59.8541 82.8225L63.6142 47.4775C63.8759 45.0172 66.8356 43.9135 68.6443 45.6017L91.205 66.6583C92.7027 68.0561 92.3898 70.5106 90.5893 71.488L64.2685 85.7765C62.1444 86.9296 59.5984 85.2259 59.8541 82.8225Z" fill="white"/>
</svg>
